<ttFont>
    <TTGlyph name="A" xMin="9" yMin="0" xMax="629" yMax="732">
      <contour>
        <pt x="400" y="515" on="1"/>
        <pt x="399" y="523" on="0"/>
        <pt x="398" y="540" on="0"/>
        <pt x="396" y="548" on="1"/>
        <pt x="396" y="546" on="0"/>
        <pt x="392" y="537" on="0"/>
        <pt x="387" y="526" on="0"/>
        <pt x="382" y="516" on="0"/>
        <pt x="381" y="515" on="1"/>
        <pt x="369" y="492" on="0"/>
        <pt x="347" y="453" on="0"/>
        <pt x="326" y="416" on="0"/>
        <pt x="305" y="378" on="0"/>
        <pt x="293" y="356" on="1"/>
        <pt x="445" y="356" on="1"/>
        <pt x="434" y="396" on="0"/>
        <pt x="411" y="475" on="0"/>
      </contour>
      <contour>
        <pt x="629" y="0" on="1"/>
        <pt x="546" y="0" on="1"/>
        <pt x="526" y="69" on="0"/>
        <pt x="488" y="208" on="0"/>
        <pt x="468" y="277" on="1"/>
        <pt x="248" y="277" on="1"/>
        <pt x="209" y="208" on="0"/>
        <pt x="131" y="69" on="0"/>
        <pt x="92" y="0" on="1"/>
        <pt x="9" y="0" on="1"/>
        <pt x="112" y="184" on="0"/>
        <pt x="319" y="548" on="0"/>
        <pt x="422" y="732" on="1"/>
      </contour>
    </TTGlyph>
    <TTGlyph name="AE" xMin="10" yMin="0" xMax="755" yMax="700">
      <contour>
        <pt x="369" y="343" on="1"/>
        <pt x="397" y="548" on="1"/>
        <pt x="376" y="496" on="0"/>
        <pt x="315" y="394" on="0"/>
        <pt x="287" y="343" on="1"/>
      </contour>
      <contour>
        <pt x="10" y="0" on="1"/>
        <pt x="110" y="176" on="0"/>
        <pt x="305" y="524" on="0"/>
        <pt x="405" y="700" on="1"/>
        <pt x="755" y="700" on="1"/>
        <pt x="744" y="621" on="1"/>
        <pt x="491" y="621" on="1"/>
        <pt x="458" y="392" on="1"/>
        <pt x="672" y="392" on="1"/>
        <pt x="661" y="313" on="1"/>
        <pt x="447" y="313" on="1"/>
        <pt x="414" y="79" on="1"/>
        <pt x="681" y="79" on="1"/>
        <pt x="670" y="0" on="1"/>
        <pt x="320" y="0" on="1"/>
        <pt x="357" y="264" on="1"/>
        <pt x="242" y="264" on="1"/>
        <pt x="205" y="198" on="0"/>
        <pt x="131" y="66" on="0"/>
        <pt x="93" y="0" on="1"/>
      </contour>
    </TTGlyph>
    <TTGlyph name="Aacute" xMin="9" yMin="0" xMax="629" yMax="883">
      <component glyphName="A" x="0" y="0" flags="0x204"/>
      <component glyphName="acute" x="301" y="271" flags="0x4"/>
    </TTGlyph>
    <TTGlyph name="Acircumflex" xMin="9" yMin="0" xMax="629" yMax="931">
      <component glyphName="A" x="0" y="0" flags="0x204"/>
      <component glyphName="asciicircum" x="204" y="271" flags="0x4"/>
    </TTGlyph>
    <TTGlyph name="Adieresis" xMin="9" yMin="0" xMax="629" yMax="863">
      <component glyphName="A" x="0" y="0" flags="0x204"/>
      <component glyphName="dieresis" x="253" y="290" flags="0x4"/>
    </TTGlyph>
    <TTGlyph name="Agrave" xMin="9" yMin="0" xMax="629" yMax="883">
      <component glyphName="A" x="0" y="0" flags="0x204"/>
      <component glyphName="grave" x="340" y="271" flags="0x4"/>
    </TTGlyph>
    <TTGlyph name="Aring" xMin="9" yMin="0" xMax="629" yMax="925">
      <contour>
        <pt x="407" y="837" on="1"/>
        <pt x="405" y="823" on="0"/>
        <pt x="421" y="805" on="0"/>
        <pt x="435" y="805" on="1"/>
        <pt x="449" y="805" on="0"/>
        <pt x="470" y="823" on="0"/>
        <pt x="472" y="837" on="1"/>
        <pt x="474" y="851" on="0"/>
        <pt x="458" y="870" on="0"/>
        <pt x="444" y="870" on="1"/>
        <pt x="430" y="870" on="0"/>
        <pt x="409" y="851" on="0"/>
      </contour>
      <contour>
        <pt x="353" y="838" on="1"/>
        <pt x="355" y="856" on="0"/>
        <pt x="374" y="887" on="0"/>
        <pt x="401" y="911" on="0"/>
        <pt x="434" y="925" on="0"/>
        <pt x="452" y="925" on="1"/>
        <pt x="470" y="925" on="0"/>
        <pt x="499" y="911" on="0"/>
        <pt x="520" y="887" on="0"/>
        <pt x="529" y="856" on="0"/>
        <pt x="527" y="838" on="1"/>
        <pt x="524" y="820" on="0"/>
        <pt x="506" y="789" on="0"/>
        <pt x="478" y="765" on="0"/>
        <pt x="445" y="751" on="0"/>
        <pt x="427" y="751" on="1"/>
        <pt x="409" y="751" on="0"/>
        <pt x="380" y="765" on="0"/>
        <pt x="360" y="789" on="0"/>
        <pt x="350" y="820" on="0"/>
      </contour>
      <contour>
        <pt x="400" y="515" on="1"/>
        <pt x="399" y="523" on="0"/>
        <pt x="398" y="540" on="0"/>
        <pt x="396" y="548" on="1"/>
        <pt x="396" y="546" on="0"/>
        <pt x="392" y="537" on="0"/>
        <pt x="387" y="526" on="0"/>
        <pt x="382" y="516" on="0"/>
        <pt x="381" y="515" on="1"/>
        <pt x="369" y="492" on="0"/>
        <pt x="347" y="453" on="0"/>
        <pt x="326" y="416" on="0"/>
        <pt x="305" y="378" on="0"/>
        <pt x="293" y="356" on="1"/>
        <pt x="445" y="356" on="1"/>
        <pt x="434" y="396" on="0"/>
        <pt x="411" y="475" on="0"/>
      </contour>
      <contour>
        <pt x="629" y="0" on="1"/>
        <pt x="546" y="0" on="1"/>
        <pt x="526" y="69" on="0"/>
        <pt x="488" y="208" on="0"/>
        <pt x="468" y="277" on="1"/>
        <pt x="248" y="277" on="1"/>
        <pt x="209" y="208" on="0"/>
        <pt x="131" y="69" on="0"/>
        <pt x="92" y="0" on="1"/>
        <pt x="9" y="0" on="1"/>
        <pt x="112" y="184" on="0"/>
        <pt x="319" y="548" on="0"/>
        <pt x="422" y="732" on="1"/>
      </contour>
    </TTGlyph>
    <TTGlyph name="Atilde" xMin="9" yMin="0" xMax="629" yMax="856">
      <component glyphName="A" x="0" y="0" flags="0x204"/>
      <component glyphName="asciitilde" x="150" y="304" flags="0x4"/>
    </TTGlyph>
    <TTGlyph name="B" xMin="8" yMin="0" xMax="491" yMax="700">
      <contour>
        <pt x="179" y="621" on="1"/>
        <pt x="146" y="392" on="1"/>
        <pt x="254" y="392" on="1"/>
        <pt x="313" y="392" on="0"/>
        <pt x="391" y="458" on="0"/>
        <pt x="399" y="512" on="1"/>
        <pt x="407" y="571" on="0"/>
        <pt x="343" y="621" on="0"/>
        <pt x="285" y="621" on="1"/>
      </contour>
      <contour>
        <pt x="135" y="313" on="1"/>
        <pt x="102" y="79" on="1"/>
        <pt x="213" y="79" on="1"/>
        <pt x="244" y="79" on="0"/>
        <pt x="300" y="93" on="0"/>
        <pt x="345" y="122" on="0"/>
        <pt x="375" y="164" on="0"/>
        <pt x="379" y="193" on="1"/>
        <pt x="383" y="224" on="0"/>
        <pt x="362" y="270" on="0"/>
        <pt x="321" y="299" on="0"/>
        <pt x="263" y="313" on="0"/>
        <pt x="232" y="313" on="1"/>
      </contour>
      <contour>
        <pt x="8" y="0" on="1"/>
        <pt x="107" y="700" on="1"/>
        <pt x="290" y="700" on="1"/>
        <pt x="339" y="700" on="0"/>
        <pt x="417" y="680" on="0"/>
        <pt x="469" y="638" on="0"/>
        <pt x="491" y="571" on="0"/>
        <pt x="484" y="525" on="1"/>
        <pt x="476" y="463" on="0"/>
        <pt x="404" y="369" on="0"/>
        <pt x="341" y="352" on="1"/>
        <pt x="368" y="346" on="0"/>
        <pt x="416" y="318" on="0"/>
        <pt x="450" y="274" on="0"/>
        <pt x="466" y="216" on="0"/>
        <pt x="461" y="180" on="1"/>
        <pt x="455" y="135" on="0"/>
        <pt x="407" y="68" on="0"/>
        <pt x="337" y="23" on="0"/>
        <pt x="252" y="0" on="0"/>
        <pt x="209" y="0" on="1"/>
      </contour>
    </TTGlyph>
    <TTGlyph name="C" xMin="51" yMin="-8" xMax="645" yMax="708">
      <contour>
        <pt x="521" y="108" on="1"/>
        <pt x="557" y="42" on="1"/>
        <pt x="514" y="19" on="0"/>
        <pt x="419" y="-8" on="0"/>
        <pt x="368" y="-8" on="1"/>
        <pt x="294" y="-8" on="0"/>
        <pt x="172" y="48" on="0"/>
        <pt x="89" y="145" on="0"/>
        <pt x="51" y="275" on="0"/>
        <pt x="61" y="349" on="1"/>
        <pt x="71" y="423" on="0"/>
        <pt x="146" y="554" on="0"/>
        <pt x="257" y="651" on="0"/>
        <pt x="395" y="708" on="0"/>
        <pt x="469" y="708" on="1"/>
        <pt x="520" y="708" on="0"/>
        <pt x="607" y="682" on="0"/>
        <pt x="645" y="658" on="1"/>
        <pt x="631" y="641" on="0"/>
        <pt x="603" y="608" on="0"/>
        <pt x="589" y="591" on="1"/>
        <pt x="561" y="609" on="0"/>
        <pt x="496" y="629" on="0"/>
        <pt x="458" y="629" on="1"/>
        <pt x="401" y="629" on="0"/>
        <pt x="295" y="585" on="0"/>
        <pt x="210" y="508" on="0"/>
        <pt x="152" y="406" on="0"/>
        <pt x="144" y="349" on="1"/>
        <pt x="136" y="292" on="0"/>
        <pt x="165" y="190" on="0"/>
        <pt x="229" y="115" on="0"/>
        <pt x="322" y="71" on="0"/>
        <pt x="379" y="71" on="1"/>
        <pt x="453" y="71" on="0"/>
      </contour>
    </TTGlyph>
    <TTGlyph name="Ccedilla" xMin="68" yMin="-250" xMax="662" yMax="708">
      <contour>
        <pt x="538" y="108" on="1"/>
        <pt x="574" y="42" on="1"/>
        <pt x="533" y="20" on="0"/>
        <pt x="446" y="-6" on="0"/>
        <pt x="399" y="-8" on="1"/>
        <pt x="397" y="-22" on="0"/>
        <pt x="403" y="-39" on="0"/>
        <pt x="415" y="-50" on="0"/>
        <pt x="428" y="-57" on="0"/>
        <pt x="434" y="-61" on="1"/>
        <pt x="453" y="-77" on="0"/>
        <pt x="464" y="-117" on="0"/>
        <pt x="460" y="-142" on="1"/>
        <pt x="457" y="-163" on="0"/>
        <pt x="438" y="-202" on="0"/>
        <pt x="408" y="-232" on="0"/>
        <pt x="366" y="-250" on="0"/>
        <pt x="340" y="-250" on="1"/>
        <pt x="306" y="-250" on="0"/>
        <pt x="255" y="-213" on="0"/>
        <pt x="247" y="-175" on="1"/>
        <pt x="259" y="-169" on="0"/>
        <pt x="284" y="-157" on="0"/>
        <pt x="296" y="-151" on="1"/>
        <pt x="299" y="-167" on="0"/>
        <pt x="322" y="-188" on="0"/>
        <pt x="342" y="-188" on="1"/>
        <pt x="366" y="-188" on="0"/>
        <pt x="396" y="-156" on="0"/>
        <pt x="400" y="-132" on="1"/>
        <pt x="403" y="-112" on="0"/>
        <pt x="384" y="-89" on="0"/>
        <pt x="361" y="-71" on="0"/>
        <pt x="342" y="-51" on="0"/>
        <pt x="345" y="-34" on="1"/>
        <pt x="348" y="-6" on="1"/>
        <pt x="282" y="1" on="0"/>
        <pt x="173" y="61" on="0"/>
        <pt x="100" y="156" on="0"/>
        <pt x="68" y="280" on="0"/>
        <pt x="78" y="349" on="1"/>
        <pt x="88" y="423" on="0"/>
        <pt x="163" y="554" on="0"/>
        <pt x="274" y="651" on="0"/>
        <pt x="412" y="708" on="0"/>
        <pt x="486" y="708" on="1"/>
        <pt x="537" y="708" on="0"/>
        <pt x="624" y="682" on="0"/>
        <pt x="662" y="658" on="1"/>
        <pt x="648" y="641" on="0"/>
        <pt x="620" y="608" on="0"/>
        <pt x="606" y="591" on="1"/>
        <pt x="578" y="609" on="0"/>
        <pt x="513" y="629" on="0"/>
        <pt x="475" y="629" on="1"/>
        <pt x="418" y="629" on="0"/>
        <pt x="312" y="585" on="0"/>
        <pt x="227" y="508" on="0"/>
        <pt x="169" y="406" on="0"/>
        <pt x="161" y="349" on="1"/>
        <pt x="153" y="292" on="0"/>
        <pt x="182" y="190" on="0"/>
        <pt x="246" y="115" on="0"/>
        <pt x="339" y="71" on="0"/>
        <pt x="396" y="71" on="1"/>
        <pt x="470" y="71" on="0"/>
      </contour>
    </TTGlyph>
    <TTGlyph name="D" xMin="10" yMin="0" xMax="586" yMax="700">
      <contour>
        <pt x="109" y="700" on="1"/>
        <pt x="272" y="700" on="1"/>
        <pt x="344" y="700" on="0"/>
        <pt x="465" y="651" on="0"/>
        <pt x="548" y="559" on="0"/>
        <pt x="586" y="430" on="0"/>
        <pt x="574" y="349" on="1"/>
        <pt x="566" y="287" on="0"/>
        <pt x="510" y="162" on="0"/>
        <pt x="405" y="62" on="0"/>
        <pt x="248" y="0" on="0"/>
        <pt x="139" y="0" on="1"/>
        <pt x="10" y="0" on="1"/>
      </contour>
      <contour>
        <pt x="181" y="621" on="1"/>
        <pt x="161" y="485" on="0"/>
        <pt x="124" y="216" on="0"/>
        <pt x="105" y="80" on="1"/>
        <pt x="175" y="80" on="1"/>
        <pt x="236" y="80" on="0"/>
        <pt x="344" y="117" on="0"/>
        <pt x="428" y="186" on="0"/>
        <pt x="483" y="286" on="0"/>
        <pt x="492" y="350" on="1"/>
        <pt x="501" y="412" on="0"/>
        <pt x="472" y="512" on="0"/>
        <pt x="406" y="583" on="0"/>
        <pt x="310" y="621" on="0"/>
        <pt x="251" y="621" on="1"/>
      </contour>
    </TTGlyph>
    <TTGlyph name="E" xMin="19" yMin="0" xMax="549" yMax="700">
      <contour>
        <pt x="19" y="0" on="1"/>
        <pt x="118" y="700" on="1"/>
        <pt x="549" y="700" on="1"/>
        <pt x="538" y="621" on="1"/>
        <pt x="190" y="621" on="1"/>
        <pt x="157" y="392" on="1"/>
        <pt x="466" y="392" on="1"/>
        <pt x="455" y="313" on="1"/>
        <pt x="146" y="313" on="1"/>
        <pt x="113" y="79" on="1"/>
        <pt x="475" y="79" on="1"/>
        <pt x="464" y="0" on="1"/>
      </contour>
    </TTGlyph>
    <TTGlyph name="Eacute" xMin="19" yMin="0" xMax="549" yMax="883">
      <component glyphName="E" x="0" y="0" flags="0x204"/>
      <component glyphName="acute" x="208" y="271" flags="0x4"/>
    </TTGlyph>
    <TTGlyph name="Ecircumflex" xMin="19" yMin="0" xMax="549" yMax="931">
      <component glyphName="E" x="0" y="0" flags="0x204"/>
      <component glyphName="asciicircum" x="144" y="271" flags="0x4"/>
    </TTGlyph>
    <TTGlyph name="Edieresis" xMin="19" yMin="0" xMax="549" yMax="863">
      <component glyphName="E" x="0" y="0" flags="0x204"/>
      <component glyphName="dieresis" x="179" y="290" flags="0x4"/>
    </TTGlyph>
    <TTGlyph name="Egrave" xMin="19" yMin="0" xMax="549" yMax="883">
      <component glyphName="E" x="0" y="0" flags="0x204"/>
      <component glyphName="grave" x="256" y="271" flags="0x4"/>
    </TTGlyph>
    <TTGlyph name="Eth" xMin="10" yMin="0" xMax="614" yMax="700">
      <contour>
        <pt x="137" y="309" on="1"/>
        <pt x="104" y="79" on="1"/>
        <pt x="179" y="79" on="1"/>
        <pt x="245" y="79" on="0"/>
        <pt x="362" y="116" on="0"/>
        <pt x="452" y="185" on="0"/>
        <pt x="511" y="286" on="0"/>
        <pt x="520" y="350" on="1"/>
        <pt x="529" y="412" on="0"/>
        <pt x="496" y="513" on="0"/>
        <pt x="425" y="584" on="0"/>
        <pt x="320" y="622" on="0"/>
        <pt x="256" y="622" on="1"/>
        <pt x="181" y="622" on="1"/>
        <pt x="148" y="390" on="1"/>
        <pt x="329" y="390" on="1"/>
        <pt x="318" y="309" on="1"/>
      </contour>
      <contour>
        <pt x="65" y="390" on="1"/>
        <pt x="109" y="700" on="1"/>
        <pt x="261" y="700" on="1"/>
        <pt x="340" y="700" on="0"/>
        <pt x="476" y="651" on="0"/>
        <pt x="570" y="560" on="0"/>
        <pt x="614" y="430" on="0"/>
        <pt x="603" y="350" on="1"/>
        <pt x="594" y="287" on="0"/>
        <pt x="533" y="162" on="0"/>
        <pt x="418" y="62" on="0"/>
        <pt x="244" y="0" on="0"/>
        <pt x="123" y="0" on="1"/>
        <pt x="10" y="0" on="1"/>
        <pt x="54" y="309" on="1"/>
        <pt x="16" y="309" on="1"/>
        <pt x="27" y="390" on="1"/>
      </contour>
    </TTGlyph>
    <TTGlyph name="F" xMin="19" yMin="0" xMax="549" yMax="700">
      <contour>
        <pt x="19" y="0" on="1"/>
        <pt x="118" y="700" on="1"/>
        <pt x="549" y="700" on="1"/>
        <pt x="538" y="621" on="1"/>
        <pt x="190" y="621" on="1"/>
        <pt x="157" y="392" on="1"/>
        <pt x="466" y="392" on="1"/>
        <pt x="455" y="313" on="1"/>
        <pt x="146" y="313" on="1"/>
        <pt x="102" y="0" on="1"/>
      </contour>
    </TTGlyph>
    <TTGlyph name="G" xMin="51" yMin="-8" xMax="645" yMax="708">
      <contour>
        <pt x="396" y="221" on="1"/>
        <pt x="407" y="300" on="1"/>
        <pt x="545" y="300" on="1"/>
        <pt x="574" y="300" on="0"/>
        <pt x="590" y="271" on="0"/>
        <pt x="585" y="240" on="1"/>
        <pt x="557" y="42" on="1"/>
        <pt x="514" y="19" on="0"/>
        <pt x="419" y="-8" on="0"/>
        <pt x="368" y="-8" on="1"/>
        <pt x="294" y="-8" on="0"/>
        <pt x="172" y="48" on="0"/>
        <pt x="89" y="145" on="0"/>
        <pt x="51" y="275" on="0"/>
        <pt x="61" y="349" on="1"/>
        <pt x="71" y="423" on="0"/>
        <pt x="146" y="554" on="0"/>
        <pt x="257" y="651" on="0"/>
        <pt x="395" y="708" on="0"/>
        <pt x="469" y="708" on="1"/>
        <pt x="520" y="708" on="0"/>
        <pt x="607" y="682" on="0"/>
        <pt x="645" y="658" on="1"/>
        <pt x="631" y="641" on="0"/>
        <pt x="603" y="608" on="0"/>
        <pt x="589" y="591" on="1"/>
        <pt x="561" y="609" on="0"/>
        <pt x="496" y="629" on="0"/>
        <pt x="458" y="629" on="1"/>
        <pt x="401" y="629" on="0"/>
        <pt x="295" y="585" on="0"/>
        <pt x="210" y="508" on="0"/>
        <pt x="152" y="406" on="0"/>
        <pt x="144" y="349" on="1"/>
        <pt x="136" y="292" on="0"/>
        <pt x="165" y="190" on="0"/>
        <pt x="229" y="115" on="0"/>
        <pt x="322" y="71" on="0"/>
        <pt x="379" y="71" on="1"/>
        <pt x="431" y="71" on="0"/>
        <pt x="481" y="89" on="1"/>
        <pt x="495" y="191" on="1"/>
        <pt x="497" y="208" on="0"/>
        <pt x="492" y="221" on="0"/>
        <pt x="476" y="221" on="1"/>
      </contour>
    </TTGlyph>
    <TTGlyph name="H" xMin="28" yMin="0" xMax="671" yMax="700">
      <contour>
        <pt x="28" y="0" on="1"/>
        <pt x="127" y="700" on="1"/>
        <pt x="210" y="700" on="1"/>
        <pt x="166" y="392" on="1"/>
        <pt x="544" y="392" on="1"/>
        <pt x="588" y="700" on="1"/>
        <pt x="671" y="700" on="1"/>
        <pt x="646" y="524" on="0"/>
        <pt x="597" y="176" on="0"/>
        <pt x="572" y="0" on="1"/>
        <pt x="489" y="0" on="1"/>
        <pt x="533" y="313" on="1"/>
        <pt x="155" y="313" on="1"/>
        <pt x="111" y="0" on="1"/>
      </contour>
    </TTGlyph>
    <TTGlyph name="I" xMin="49" yMin="0" xMax="231" yMax="700">
      <contour>
        <pt x="148" y="700" on="1"/>
        <pt x="231" y="700" on="1"/>
        <pt x="132" y="0" on="1"/>
        <pt x="49" y="0" on="1"/>
      </contour>
    </TTGlyph>
    <TTGlyph name="Iacute" xMin="49" yMin="0" xMax="349" yMax="883">
      <component glyphName="I" x="0" y="0" flags="0x4"/>
      <component glyphName="acute" x="66" y="271" flags="0x4"/>
    </TTGlyph>
    <TTGlyph name="Icircumflex" xMin="49" yMin="0" xMax="324" yMax="931">
      <component glyphName="I" x="0" y="0" flags="0x4"/>
      <component glyphName="asciicircum" x="-15" y="271" flags="0x4"/>
    </TTGlyph>
    <TTGlyph name="Idieresis" xMin="49" yMin="0" xMax="328" yMax="863">
      <component glyphName="I" x="0" y="0" flags="0x4"/>
      <component glyphName="dieresis" x="7" y="290" flags="0x4"/>
    </TTGlyph>
    <TTGlyph name="Igrave" xMin="49" yMin="0" xMax="231" yMax="883">
      <component glyphName="I" x="0" y="0" flags="0x4"/>
      <component glyphName="grave" x="100" y="271" flags="0x4"/>
    </TTGlyph>
    <TTGlyph name="J" xMin="-42" yMin="-144" xMax="317" yMax="700">
      <contour>
        <pt x="-42" y="-144" on="1"/>
        <pt x="-31" y="-65" on="1"/>
        <pt x="3" y="-63" on="0"/>
        <pt x="64" y="-41" on="0"/>
        <pt x="112" y="-1" on="0"/>
        <pt x="143" y="56" on="0"/>
        <pt x="148" y="93" on="1"/>
        <pt x="234" y="700" on="1"/>
        <pt x="317" y="700" on="1"/>
        <pt x="231" y="90" on="1"/>
        <pt x="223" y="34" on="0"/>
        <pt x="174" y="-52" on="0"/>
        <pt x="102" y="-111" on="0"/>
        <pt x="9" y="-143" on="0"/>
      </contour>
    </TTGlyph>
    <TTGlyph name="K" xMin="1" yMin="0" xMax="598" yMax="700">
      <contour>
        <pt x="531" y="0" on="1"/>
        <pt x="432" y="0" on="1"/>
        <pt x="373" y="91" on="0"/>
        <pt x="256" y="272" on="0"/>
        <pt x="197" y="363" on="1"/>
        <pt x="180" y="348" on="0"/>
        <pt x="145" y="319" on="0"/>
        <pt x="127" y="304" on="1"/>
        <pt x="116" y="228" on="0"/>
        <pt x="95" y="76" on="0"/>
        <pt x="84" y="0" on="1"/>
        <pt x="1" y="0" on="1"/>
        <pt x="100" y="700" on="1"/>
        <pt x="183" y="700" on="1"/>
        <pt x="144" y="426" on="1"/>
        <pt x="142" y="418" on="0"/>
        <pt x="139" y="402" on="0"/>
        <pt x="137" y="394" on="1"/>
        <pt x="142" y="400" on="0"/>
        <pt x="154" y="411" on="0"/>
        <pt x="159" y="417" on="1"/>
        <pt x="244" y="488" on="0"/>
        <pt x="411" y="629" on="0"/>
        <pt x="496" y="700" on="1"/>
        <pt x="598" y="700" on="1"/>
        <pt x="513" y="628" on="0"/>
        <pt x="345" y="488" on="0"/>
        <pt x="260" y="416" on="1"/>
        <pt x="328" y="311" on="0"/>
        <pt x="463" y="105" on="0"/>
      </contour>
    </TTGlyph>
    <TTGlyph name="L" xMin="19" yMin="0" xMax="475" yMax="700">
      <contour>
        <pt x="19" y="0" on="1"/>
        <pt x="118" y="700" on="1"/>
        <pt x="201" y="700" on="1"/>
        <pt x="113" y="79" on="1"/>
        <pt x="475" y="79" on="1"/>
        <pt x="464" y="0" on="1"/>
      </contour>
    </TTGlyph>
    <TTGlyph name="M" xMin="48" yMin="0" xMax="883" yMax="732">
      <contour>
        <pt x="151" y="732" on="1"/>
        <pt x="226" y="613" on="0"/>
        <pt x="375" y="376" on="0"/>
        <pt x="450" y="257" on="1"/>
        <pt x="559" y="376" on="0"/>
        <pt x="774" y="613" on="0"/>
        <pt x="883" y="732" on="1"/>
        <pt x="780" y="0" on="1"/>
        <pt x="697" y="0" on="1"/>
        <pt x="763" y="470" on="1"/>
        <pt x="765" y="478" on="0"/>
        <pt x="769" y="494" on="0"/>
        <pt x="771" y="502" on="1"/>
        <pt x="691" y="404" on="0"/>
        <pt x="517" y="219" on="0"/>
        <pt x="432" y="125" on="1"/>
        <pt x="377" y="213" on="0"/>
        <pt x="267" y="387" on="0"/>
        <pt x="213" y="475" on="1"/>
        <pt x="209" y="482" on="0"/>
        <pt x="202" y="495" on="0"/>
        <pt x="199" y="502" on="1"/>
        <pt x="198" y="494" on="0"/>
        <pt x="198" y="478" on="0"/>
        <pt x="197" y="470" on="1"/>
        <pt x="131" y="0" on="1"/>
        <pt x="48" y="0" on="1"/>
      </contour>
    </TTGlyph>
    <TTGlyph name="N" xMin="50" yMin="-32" xMax="760" yMax="732">
      <contour>
        <pt x="760" y="700" on="1"/>
        <pt x="657" y="-32" on="1"/>
        <pt x="547" y="105" on="0"/>
        <pt x="331" y="375" on="0"/>
        <pt x="221" y="512" on="1"/>
        <pt x="218" y="519" on="0"/>
        <pt x="210" y="531" on="0"/>
        <pt x="206" y="538" on="1"/>
        <pt x="205" y="530" on="0"/>
        <pt x="205" y="514" on="0"/>
        <pt x="204" y="506" on="1"/>
        <pt x="133" y="0" on="1"/>
        <pt x="50" y="0" on="1"/>
        <pt x="153" y="732" on="1"/>
        <pt x="262" y="592" on="0"/>
        <pt x="478" y="317" on="0"/>
        <pt x="587" y="177" on="1"/>
        <pt x="591" y="170" on="0"/>
        <pt x="599" y="158" on="0"/>
        <pt x="603" y="151" on="1"/>
        <pt x="603" y="159" on="0"/>
        <pt x="603" y="175" on="0"/>
        <pt x="604" y="183" on="1"/>
        <pt x="677" y="700" on="1"/>
      </contour>
    </TTGlyph>
    <TTGlyph name="Ntilde" xMin="50" yMin="-32" xMax="760" yMax="844">
      <component glyphName="N" x="0" y="0" flags="0x204"/>
      <component glyphName="asciitilde" x="198" y="292" flags="0x4"/>
    </TTGlyph>
    <TTGlyph name="O" xMin="51" yMin="-8" xMax="787" yMax="708">
      <contour>
        <pt x="61" y="349" on="1"/>
        <pt x="71" y="422" on="0"/>
        <pt x="146" y="553" on="0"/>
        <pt x="257" y="651" on="0"/>
        <pt x="395" y="708" on="0"/>
        <pt x="469" y="708" on="1"/>
        <pt x="542" y="708" on="0"/>
        <pt x="665" y="651" on="0"/>
        <pt x="749" y="553" on="0"/>
        <pt x="787" y="422" on="0"/>
        <pt x="777" y="349" on="1"/>
        <pt x="767" y="275" on="0"/>
        <pt x="692" y="145" on="0"/>
        <pt x="580" y="48" on="0"/>
        <pt x="441" y="-8" on="0"/>
        <pt x="368" y="-8" on="1"/>
        <pt x="294" y="-8" on="0"/>
        <pt x="172" y="48" on="0"/>
        <pt x="89" y="145" on="0"/>
        <pt x="51" y="275" on="0"/>
      </contour>
      <contour>
        <pt x="144" y="349" on="1"/>
        <pt x="136" y="291" on="0"/>
        <pt x="165" y="190" on="0"/>
        <pt x="229" y="115" on="0"/>
        <pt x="323" y="71" on="0"/>
        <pt x="380" y="71" on="1"/>
        <pt x="437" y="71" on="0"/>
        <pt x="543" y="115" on="0"/>
        <pt x="628" y="190" on="0"/>
        <pt x="686" y="291" on="0"/>
        <pt x="694" y="349" on="1"/>
        <pt x="702" y="407" on="0"/>
        <pt x="673" y="508" on="0"/>
        <pt x="609" y="584" on="0"/>
        <pt x="516" y="628" on="0"/>
        <pt x="459" y="628" on="1"/>
        <pt x="402" y="628" on="0"/>
        <pt x="295" y="584" on="0"/>
        <pt x="210" y="508" on="0"/>
        <pt x="152" y="407" on="0"/>
      </contour>
    </TTGlyph>
    <TTGlyph name="Oacute" xMin="49" yMin="-8" xMax="785" yMax="883">
      <component glyphName="O" x="-2" y="0" flags="0x204"/>
      <component glyphName="acute" x="357" y="271" flags="0x4"/>
    </TTGlyph>
    <TTGlyph name="Ocircumflex" xMin="49" yMin="-8" xMax="785" yMax="931">
      <component glyphName="O" x="-2" y="0" flags="0x4"/>
      <component glyphName="asciicircum" x="259" y="271" flags="0x4"/>
    </TTGlyph>
    <TTGlyph name="Odieresis" xMin="49" yMin="-8" xMax="785" yMax="863">
      <component glyphName="O" x="-2" y="0" flags="0x4"/>
      <component glyphName="dieresis" x="288" y="290" flags="0x4"/>
    </TTGlyph>
    <TTGlyph name="Ograve" xMin="49" yMin="-8" xMax="785" yMax="883">
      <component glyphName="O" x="-2" y="0" flags="0x4"/>
      <component glyphName="grave" x="386" y="271" flags="0x4"/>
    </TTGlyph>
    <TTGlyph name="Oslash" xMin="51" yMin="-17" xMax="789" yMax="719">
      <contour>
        <pt x="144" y="349" on="1"/>
        <pt x="136" y="296" on="0"/>
        <pt x="159" y="203" on="0"/>
        <pt x="186" y="166" on="1"/>
        <pt x="602" y="582" on="1"/>
        <pt x="572" y="604" on="0"/>
        <pt x="500" y="629" on="0"/>
        <pt x="458" y="629" on="1"/>
        <pt x="401" y="629" on="0"/>
        <pt x="295" y="585" on="0"/>
        <pt x="210" y="508" on="0"/>
        <pt x="152" y="406" on="0"/>
      </contour>
      <contour>
        <pt x="379" y="71" on="1"/>
        <pt x="436" y="71" on="0"/>
        <pt x="542" y="115" on="0"/>
        <pt x="628" y="190" on="0"/>
        <pt x="686" y="292" on="0"/>
        <pt x="694" y="349" on="1"/>
        <pt x="702" y="401" on="0"/>
        <pt x="678" y="494" on="0"/>
        <pt x="652" y="531" on="1"/>
        <pt x="547" y="426" on="0"/>
        <pt x="342" y="220" on="0"/>
        <pt x="237" y="115" on="1"/>
        <pt x="266" y="94" on="0"/>
        <pt x="337" y="71" on="0"/>
      </contour>
      <contour>
        <pt x="61" y="349" on="1"/>
        <pt x="71" y="423" on="0"/>
        <pt x="146" y="554" on="0"/>
        <pt x="257" y="651" on="0"/>
        <pt x="395" y="708" on="0"/>
        <pt x="469" y="708" on="1"/>
        <pt x="526" y="708" on="0"/>
        <pt x="624" y="674" on="0"/>
        <pt x="664" y="644" on="1"/>
        <pt x="682" y="663" on="0"/>
        <pt x="720" y="700" on="0"/>
        <pt x="738" y="719" on="1"/>
        <pt x="789" y="668" on="1"/>
        <pt x="771" y="649" on="0"/>
        <pt x="733" y="613" on="0"/>
        <pt x="715" y="594" on="1"/>
        <pt x="753" y="546" on="0"/>
        <pt x="787" y="420" on="0"/>
        <pt x="777" y="349" on="1"/>
        <pt x="767" y="275" on="0"/>
        <pt x="692" y="145" on="0"/>
        <pt x="581" y="48" on="0"/>
        <pt x="442" y="-8" on="0"/>
        <pt x="368" y="-8" on="1"/>
        <pt x="311" y="-8" on="0"/>
        <pt x="214" y="24" on="0"/>
        <pt x="176" y="53" on="1"/>
        <pt x="158" y="36" on="0"/>
        <pt x="123" y="0" on="0"/>
        <pt x="106" y="-17" on="1"/>
        <pt x="55" y="34" on="1"/>
        <pt x="72" y="51" on="0"/>
        <pt x="106" y="86" on="0"/>
        <pt x="124" y="103" on="1"/>
        <pt x="86" y="151" on="0"/>
        <pt x="51" y="277" on="0"/>
      </contour>
    </TTGlyph>
    <TTGlyph name="Otilde" xMin="49" yMin="-8" xMax="785" yMax="879">
      <component glyphName="O" x="-2" y="0" flags="0x4"/>
      <component glyphName="asciitilde" x="192" y="327" flags="0x4"/>
    </TTGlyph>
    <TTGlyph name="P" xMin="8" yMin="0" xMax="489" yMax="700">
      <contour>
        <pt x="146" y="392" on="1"/>
        <pt x="233" y="392" on="1"/>
        <pt x="277" y="392" on="0"/>
        <pt x="338" y="415" on="0"/>
        <pt x="377" y="449" on="0"/>
        <pt x="396" y="491" on="0"/>
        <pt x="399" y="510" on="1"/>
        <pt x="402" y="532" on="0"/>
        <pt x="385" y="573" on="0"/>
        <pt x="350" y="604" on="0"/>
        <pt x="298" y="622" on="0"/>
        <pt x="267" y="622" on="1"/>
        <pt x="179" y="622" on="1"/>
      </contour>
      <contour>
        <pt x="8" y="0" on="1"/>
        <pt x="107" y="700" on="1"/>
        <pt x="272" y="700" on="1"/>
        <pt x="306" y="700" on="0"/>
        <pt x="386" y="679" on="0"/>
        <pt x="451" y="633" on="0"/>
        <pt x="489" y="561" on="0"/>
        <pt x="482" y="510" on="1"/>
        <pt x="469" y="419" on="0"/>
        <pt x="346" y="312" on="0"/>
        <pt x="244" y="312" on="1"/>
        <pt x="135" y="312" on="1"/>
        <pt x="91" y="0" on="1"/>
      </contour>
    </TTGlyph>
    <TTGlyph name="Q" xMin="51" yMin="-8" xMax="787" yMax="708">
      <contour>
        <pt x="144" y="349" on="1"/>
        <pt x="136" y="292" on="0"/>
        <pt x="165" y="190" on="0"/>
        <pt x="229" y="115" on="0"/>
        <pt x="322" y="71" on="0"/>
        <pt x="379" y="71" on="1"/>
        <pt x="436" y="71" on="0"/>
        <pt x="542" y="115" on="0"/>
        <pt x="628" y="190" on="0"/>
        <pt x="686" y="292" on="0"/>
        <pt x="694" y="349" on="1"/>
        <pt x="702" y="406" on="0"/>
        <pt x="673" y="508" on="0"/>
        <pt x="609" y="585" on="0"/>
        <pt x="515" y="629" on="0"/>
        <pt x="458" y="629" on="1"/>
        <pt x="401" y="629" on="0"/>
        <pt x="295" y="585" on="0"/>
        <pt x="210" y="508" on="0"/>
        <pt x="152" y="406" on="0"/>
      </contour>
      <contour>
        <pt x="61" y="349" on="1"/>
        <pt x="71" y="423" on="0"/>
        <pt x="146" y="554" on="0"/>
        <pt x="257" y="651" on="0"/>
        <pt x="395" y="708" on="0"/>
        <pt x="469" y="708" on="1"/>
        <pt x="543" y="708" on="0"/>
        <pt x="666" y="651" on="0"/>
        <pt x="750" y="554" on="0"/>
        <pt x="787" y="423" on="0"/>
        <pt x="777" y="349" on="1"/>
        <pt x="766" y="268" on="0"/>
        <pt x="679" y="128" on="0"/>
        <pt x="614" y="79" on="1"/>
        <pt x="761" y="79" on="1"/>
        <pt x="750" y="0" on="1"/>
        <pt x="443" y="0" on="1"/>
        <pt x="405" y="-8" on="0"/>
        <pt x="368" y="-8" on="1"/>
        <pt x="294" y="-8" on="0"/>
        <pt x="172" y="48" on="0"/>
        <pt x="89" y="145" on="0"/>
        <pt x="51" y="275" on="0"/>
      </contour>
    </TTGlyph>
    <TTGlyph name="R" xMin="8" yMin="0" xMax="489" yMax="700">
      <contour>
        <pt x="146" y="392" on="1"/>
        <pt x="233" y="392" on="1"/>
        <pt x="277" y="392" on="0"/>
        <pt x="338" y="415" on="0"/>
        <pt x="377" y="449" on="0"/>
        <pt x="396" y="491" on="0"/>
        <pt x="399" y="510" on="1"/>
        <pt x="402" y="532" on="0"/>
        <pt x="385" y="573" on="0"/>
        <pt x="350" y="604" on="0"/>
        <pt x="298" y="622" on="0"/>
        <pt x="267" y="622" on="1"/>
        <pt x="179" y="622" on="1"/>
      </contour>
      <contour>
        <pt x="8" y="0" on="1"/>
        <pt x="107" y="700" on="1"/>
        <pt x="272" y="700" on="1"/>
        <pt x="306" y="700" on="0"/>
        <pt x="386" y="679" on="0"/>
        <pt x="451" y="633" on="0"/>
        <pt x="489" y="561" on="0"/>
        <pt x="482" y="510" on="1"/>
        <pt x="471" y="435" on="0"/>
        <pt x="382" y="334" on="0"/>
        <pt x="308" y="318" on="1"/>
        <pt x="413" y="0" on="1"/>
        <pt x="323" y="0" on="1"/>
        <pt x="297" y="78" on="0"/>
        <pt x="246" y="234" on="0"/>
        <pt x="220" y="312" on="1"/>
        <pt x="203" y="312" on="1"/>
        <pt x="135" y="312" on="1"/>
        <pt x="91" y="0" on="1"/>
      </contour>
    </TTGlyph>
    <TTGlyph name="S" xMin="11" yMin="-8" xMax="488" yMax="704">
      <contour>
        <pt x="488" y="631" on="1"/>
        <pt x="474" y="616" on="0"/>
        <pt x="447" y="586" on="0"/>
        <pt x="433" y="571" on="1"/>
        <pt x="426" y="579" on="0"/>
        <pt x="403" y="598" on="0"/>
        <pt x="371" y="614" on="0"/>
        <pt x="332" y="625" on="0"/>
        <pt x="309" y="625" on="1"/>
        <pt x="251" y="625" on="0"/>
        <pt x="186" y="559" on="0"/>
        <pt x="180" y="514" on="1"/>
        <pt x="176" y="488" on="0"/>
        <pt x="189" y="455" on="0"/>
        <pt x="215" y="433" on="0"/>
        <pt x="253" y="418" on="0"/>
        <pt x="275" y="410" on="1"/>
        <pt x="306" y="398" on="0"/>
        <pt x="378" y="365" on="0"/>
        <pt x="435" y="313" on="0"/>
        <pt x="468" y="239" on="0"/>
        <pt x="461" y="187" on="1"/>
        <pt x="455" y="142" on="0"/>
        <pt x="411" y="70" on="0"/>
        <pt x="347" y="19" on="0"/>
        <pt x="267" y="-8" on="0"/>
        <pt x="225" y="-8" on="1"/>
        <pt x="187" y="-8" on="0"/>
        <pt x="118" y="13" on="0"/>
        <pt x="63" y="46" on="0"/>
        <pt x="22" y="86" on="0"/>
        <pt x="11" y="106" on="1"/>
        <pt x="71" y="158" on="1"/>
        <pt x="82" y="144" on="0"/>
        <pt x="113" y="113" on="0"/>
        <pt x="152" y="87" on="0"/>
        <pt x="200" y="71" on="0"/>
        <pt x="229" y="71" on="1"/>
        <pt x="255" y="71" on="0"/>
        <pt x="305" y="86" on="0"/>
        <pt x="346" y="115" on="0"/>
        <pt x="374" y="159" on="0"/>
        <pt x="378" y="188" on="1"/>
        <pt x="384" y="228" on="0"/>
        <pt x="351" y="277" on="0"/>
        <pt x="299" y="309" on="0"/>
        <pt x="239" y="328" on="0"/>
        <pt x="218" y="337" on="1"/>
        <pt x="201" y="344" on="0"/>
        <pt x="155" y="369" on="0"/>
        <pt x="115" y="411" on="0"/>
        <pt x="92" y="473" on="0"/>
        <pt x="97" y="517" on="1"/>
        <pt x="101" y="550" on="0"/>
        <pt x="130" y="616" on="0"/>
        <pt x="184" y="670" on="0"/>
        <pt x="265" y="704" on="0"/>
        <pt x="320" y="704" on="1"/>
        <pt x="360" y="704" on="0"/>
        <pt x="441" y="676" on="0"/>
      </contour>
    </TTGlyph>
    <TTGlyph name="T" xMin="38" yMin="0" xMax="602" yMax="700">
      <contour>
        <pt x="602" y="700" on="1"/>
        <pt x="591" y="621" on="1"/>
        <pt x="357" y="621" on="1"/>
        <pt x="269" y="0" on="1"/>
        <pt x="186" y="0" on="1"/>
        <pt x="274" y="621" on="1"/>
        <pt x="38" y="621" on="1"/>
        <pt x="49" y="700" on="1"/>
      </contour>
    </TTGlyph>
    <TTGlyph name="Thorn" xMin="50" yMin="0" xMax="508" yMax="700">
      <contour>
        <pt x="165" y="227" on="1"/>
        <pt x="252" y="227" on="1"/>
        <pt x="296" y="227" on="0"/>
        <pt x="357" y="250" on="0"/>
        <pt x="396" y="284" on="0"/>
        <pt x="415" y="326" on="0"/>
        <pt x="418" y="345" on="1"/>
        <pt x="421" y="367" on="0"/>
        <pt x="404" y="408" on="0"/>
        <pt x="369" y="439" on="0"/>
        <pt x="317" y="457" on="0"/>
        <pt x="286" y="457" on="1"/>
        <pt x="198" y="457" on="1"/>
      </contour>
      <contour>
        <pt x="133" y="0" on="1"/>
        <pt x="50" y="0" on="1"/>
        <pt x="149" y="700" on="1"/>
        <pt x="232" y="700" on="1"/>
        <pt x="209" y="535" on="1"/>
        <pt x="291" y="535" on="1"/>
        <pt x="325" y="535" on="0"/>
        <pt x="405" y="514" on="0"/>
        <pt x="470" y="468" on="0"/>
        <pt x="508" y="396" on="0"/>
        <pt x="501" y="345" on="1"/>
        <pt x="488" y="254" on="0"/>
        <pt x="365" y="147" on="0"/>
        <pt x="263" y="147" on="1"/>
        <pt x="154" y="147" on="1"/>
      </contour>
    </TTGlyph>
    <TTGlyph name="U" xMin="51" yMin="-8" xMax="630" yMax="700">
      <contour>
        <pt x="278" y="-8" on="1"/>
        <pt x="224" y="-8" on="0"/>
        <pt x="136" y="22" on="0"/>
        <pt x="77" y="81" on="0"/>
        <pt x="51" y="169" on="0"/>
        <pt x="59" y="226" on="1"/>
        <pt x="125" y="700" on="1"/>
        <pt x="208" y="700" on="1"/>
        <pt x="142" y="229" on="1"/>
        <pt x="137" y="191" on="0"/>
        <pt x="154" y="132" on="0"/>
        <pt x="193" y="92" on="0"/>
        <pt x="252" y="71" on="0"/>
        <pt x="289" y="71" on="1"/>
        <pt x="363" y="71" on="0"/>
        <pt x="470" y="152" on="0"/>
        <pt x="481" y="229" on="1"/>
        <pt x="547" y="700" on="1"/>
        <pt x="630" y="700" on="1"/>
        <pt x="564" y="226" on="1"/>
        <pt x="556" y="169" on="0"/>
        <pt x="505" y="81" on="0"/>
        <pt x="428" y="22" on="0"/>
        <pt x="332" y="-8" on="0"/>
      </contour>
    </TTGlyph>
    <TTGlyph name="Uacute" xMin="51" yMin="-8" xMax="630" yMax="883">
      <component glyphName="U" x="0" y="0" flags="0x204"/>
      <component glyphName="acute" x="262" y="271" flags="0x4"/>
    </TTGlyph>
    <TTGlyph name="Ucircumflex" xMin="51" yMin="-8" xMax="630" yMax="932">
      <component glyphName="U" x="0" y="0" flags="0x204"/>
      <component glyphName="asciicircum" x="167" y="272" flags="0x4"/>
    </TTGlyph>
    <TTGlyph name="Udieresis" xMin="51" yMin="-8" xMax="630" yMax="863">
      <component glyphName="U" x="0" y="0" flags="0x204"/>
      <component glyphName="dieresis" x="213" y="290" flags="0x4"/>
    </TTGlyph>
    <TTGlyph name="Ugrave" xMin="51" yMin="-8" xMax="630" yMax="883">
      <component glyphName="U" x="0" y="0" flags="0x204"/>
      <component glyphName="grave" x="287" y="271" flags="0x4"/>
    </TTGlyph>
    <TTGlyph name="V" xMin="105" yMin="-32" xMax="725" yMax="700">
      <contour>
        <pt x="642" y="700" on="1"/>
        <pt x="725" y="700" on="1"/>
        <pt x="622" y="516" on="0"/>
        <pt x="415" y="152" on="0"/>
        <pt x="312" y="-32" on="1"/>
        <pt x="105" y="700" on="1"/>
        <pt x="188" y="700" on="1"/>
        <pt x="225" y="570" on="0"/>
        <pt x="297" y="315" on="0"/>
        <pt x="334" y="185" on="1"/>
        <pt x="335" y="177" on="0"/>
        <pt x="336" y="160" on="0"/>
        <pt x="338" y="152" on="1"/>
        <pt x="341" y="160" on="0"/>
        <pt x="348" y="177" on="0"/>
        <pt x="352" y="185" on="1"/>
        <pt x="425" y="315" on="0"/>
        <pt x="569" y="570" on="0"/>
      </contour>
    </TTGlyph>
    <TTGlyph name="W" xMin="105" yMin="-32" xMax="1098" yMax="700">
      <contour>
        <pt x="1015" y="700" on="1"/>
        <pt x="1098" y="700" on="1"/>
        <pt x="995" y="516" on="0"/>
        <pt x="788" y="152" on="0"/>
        <pt x="685" y="-32" on="1"/>
        <pt x="567" y="385" on="1"/>
        <pt x="565" y="394" on="0"/>
        <pt x="563" y="411" on="0"/>
        <pt x="562" y="420" on="1"/>
        <pt x="540" y="364" on="0"/>
        <pt x="479" y="249" on="0"/>
        <pt x="412" y="135" on="0"/>
        <pt x="342" y="22" on="0"/>
        <pt x="312" y="-32" on="1"/>
        <pt x="105" y="700" on="1"/>
        <pt x="188" y="700" on="1"/>
        <pt x="225" y="570" on="0"/>
        <pt x="297" y="315" on="0"/>
        <pt x="334" y="185" on="1"/>
        <pt x="335" y="177" on="0"/>
        <pt x="336" y="160" on="0"/>
        <pt x="338" y="152" on="1"/>
        <pt x="356" y="197" on="0"/>
        <pt x="404" y="286" on="0"/>
        <pt x="456" y="375" on="0"/>
        <pt x="509" y="463" on="0"/>
        <pt x="533" y="506" on="1"/>
        <pt x="519" y="555" on="0"/>
        <pt x="492" y="651" on="0"/>
        <pt x="478" y="700" on="1"/>
        <pt x="561" y="700" on="1"/>
        <pt x="598" y="570" on="0"/>
        <pt x="670" y="315" on="0"/>
        <pt x="707" y="185" on="1"/>
        <pt x="708" y="177" on="0"/>
        <pt x="709" y="160" on="0"/>
        <pt x="711" y="152" on="1"/>
        <pt x="714" y="160" on="0"/>
        <pt x="721" y="177" on="0"/>
        <pt x="725" y="185" on="1"/>
        <pt x="798" y="315" on="0"/>
        <pt x="942" y="570" on="0"/>
      </contour>
    </TTGlyph>
    <TTGlyph name="X" xMin="43" yMin="0" xMax="708" yMax="700">
      <contour>
        <pt x="326" y="357" on="1"/>
        <pt x="283" y="443" on="0"/>
        <pt x="196" y="614" on="0"/>
        <pt x="152" y="700" on="1"/>
        <pt x="254" y="700" on="1"/>
        <pt x="286" y="637" on="0"/>
        <pt x="349" y="512" on="0"/>
        <pt x="381" y="449" on="1"/>
        <pt x="383" y="442" on="0"/>
        <pt x="389" y="429" on="0"/>
        <pt x="391" y="422" on="1"/>
        <pt x="395" y="429" on="0"/>
        <pt x="403" y="442" on="0"/>
        <pt x="407" y="449" on="1"/>
        <pt x="457" y="512" on="0"/>
        <pt x="556" y="637" on="0"/>
        <pt x="606" y="700" on="1"/>
        <pt x="708" y="700" on="1"/>
        <pt x="638" y="612" on="0"/>
        <pt x="501" y="439" on="0"/>
        <pt x="432" y="351" on="1"/>
        <pt x="477" y="263" on="0"/>
        <pt x="566" y="88" on="0"/>
        <pt x="611" y="0" on="1"/>
        <pt x="508" y="0" on="1"/>
        <pt x="377" y="258" on="1"/>
        <pt x="374" y="265" on="0"/>
        <pt x="369" y="279" on="0"/>
        <pt x="367" y="286" on="1"/>
        <pt x="358" y="273" on="0"/>
        <pt x="350" y="258" on="1"/>
        <pt x="298" y="193" on="0"/>
        <pt x="197" y="65" on="0"/>
        <pt x="146" y="0" on="1"/>
        <pt x="43" y="0" on="1"/>
        <pt x="115" y="90" on="0"/>
        <pt x="255" y="267" on="0"/>
      </contour>
    </TTGlyph>
    <TTGlyph name="Y" xMin="61" yMin="0" xMax="672" yMax="700">
      <contour>
        <pt x="357" y="269" on="1"/>
        <pt x="319" y="0" on="1"/>
        <pt x="217" y="0" on="1"/>
        <pt x="255" y="270" on="1"/>
        <pt x="206" y="378" on="0"/>
        <pt x="110" y="592" on="0"/>
        <pt x="61" y="700" on="1"/>
        <pt x="163" y="700" on="1"/>
        <pt x="200" y="619" on="0"/>
        <pt x="272" y="458" on="0"/>
        <pt x="309" y="377" on="1"/>
        <pt x="311" y="369" on="0"/>
        <pt x="314" y="354" on="0"/>
        <pt x="316" y="346" on="1"/>
        <pt x="317" y="346" on="1"/>
        <pt x="321" y="354" on="0"/>
        <pt x="329" y="369" on="0"/>
        <pt x="333" y="377" on="1"/>
        <pt x="393" y="458" on="0"/>
        <pt x="510" y="619" on="0"/>
        <pt x="570" y="700" on="1"/>
        <pt x="672" y="700" on="1"/>
        <pt x="592" y="591" on="0"/>
        <pt x="436" y="378" on="0"/>
      </contour>
    </TTGlyph>
    <TTGlyph name="Yacute" xMin="61" yMin="0" xMax="672" yMax="883">
      <component glyphName="Y" x="0" y="0" flags="0x204"/>
      <component glyphName="acute" x="251" y="271" flags="0x4"/>
    </TTGlyph>
    <TTGlyph name="Z" xMin="81" yMin="0" xMax="709" yMax="735">
      <contour>
        <pt x="308" y="700" on="1"/>
        <pt x="709" y="700" on="1"/>
        <pt x="698" y="621" on="1"/>
        <pt x="570" y="485" on="0"/>
        <pt x="321" y="216" on="0"/>
        <pt x="194" y="80" on="1"/>
        <pt x="651" y="80" on="1"/>
        <pt x="640" y="0" on="1"/>
        <pt x="81" y="0" on="1"/>
        <pt x="92" y="80" on="1"/>
        <pt x="219" y="216" on="0"/>
        <pt x="468" y="485" on="0"/>
        <pt x="596" y="621" on="1"/>
        <pt x="258" y="621" on="1"/>
        <pt x="227" y="621" on="0"/>
        <pt x="189" y="657" on="0"/>
        <pt x="193" y="686" on="1"/>
        <pt x="200" y="735" on="1"/>
        <pt x="283" y="735" on="1"/>
        <pt x="281" y="723" on="1"/>
        <pt x="279" y="707" on="0"/>
        <pt x="291" y="700" on="0"/>
      </contour>
    </TTGlyph>
    <TTGlyph name="a" xMin="69" yMin="-9" xMax="502" yMax="384">
      <contour>
        <pt x="159" y="188" on="1"/>
        <pt x="152" y="139" on="0"/>
        <pt x="208" y="72" on="0"/>
        <pt x="260" y="72" on="1"/>
        <pt x="286" y="72" on="0"/>
        <pt x="331" y="90" on="0"/>
        <pt x="367" y="121" on="0"/>
        <pt x="390" y="164" on="0"/>
        <pt x="393" y="188" on="1"/>
        <pt x="400" y="238" on="0"/>
        <pt x="344" y="303" on="0"/>
        <pt x="292" y="303" on="1"/>
        <pt x="266" y="303" on="0"/>
        <pt x="221" y="286" on="0"/>
        <pt x="185" y="255" on="0"/>
        <pt x="162" y="213" on="0"/>
      </contour>
      <contour>
        <pt x="75" y="187" on="1"/>
        <pt x="81" y="230" on="0"/>
        <pt x="121" y="302" on="0"/>
        <pt x="183" y="354" on="0"/>
        <pt x="261" y="384" on="0"/>
        <pt x="303" y="384" on="1"/>
        <pt x="330" y="384" on="0"/>
        <pt x="374" y="368" on="0"/>
        <pt x="405" y="349" on="0"/>
        <pt x="423" y="331" on="0"/>
        <pt x="423" y="328" on="1"/>
        <pt x="425" y="339" on="0"/>
        <pt x="431" y="363" on="0"/>
        <pt x="433" y="375" on="1"/>
        <pt x="502" y="375" on="1"/>
        <pt x="450" y="0" on="1"/>
        <pt x="377" y="0" on="1"/>
        <pt x="381" y="32" on="1"/>
        <pt x="381" y="34" on="0"/>
        <pt x="382" y="39" on="0"/>
        <pt x="382" y="41" on="1"/>
        <pt x="381" y="38" on="0"/>
        <pt x="362" y="22" on="0"/>
        <pt x="327" y="5" on="0"/>
        <pt x="278" y="-9" on="0"/>
        <pt x="248" y="-9" on="1"/>
        <pt x="206" y="-9" on="0"/>
        <pt x="137" y="22" on="0"/>
        <pt x="90" y="76" on="0"/>
        <pt x="69" y="147" on="0"/>
      </contour>
    </TTGlyph>
    <TTGlyph name="aacute" xMin="69" yMin="-9" xMax="502" yMax="612">
      <component glyphName="a" x="0" y="0" flags="0x4"/>
      <component glyphName="acute" x="209" y="0" flags="0x4"/>
    </TTGlyph>
    <TTGlyph name="acircumflex" xMin="69" yMin="-9" xMax="502" yMax="660">
      <component glyphName="a" x="0" y="0" flags="0x4"/>
      <component glyphName="asciicircum" x="106" y="0" flags="0x4"/>
    </TTGlyph>
    <TTGlyph name="acute" xMin="90" yMin="479" xMax="283" yMax="612">
      <contour>
        <pt x="90" y="479" on="1"/>
        <pt x="117" y="512" on="0"/>
        <pt x="172" y="579" on="0"/>
        <pt x="199" y="612" on="1"/>
        <pt x="283" y="612" on="1"/>
        <pt x="250" y="579" on="0"/>
        <pt x="182" y="512" on="0"/>
        <pt x="149" y="479" on="1"/>
      </contour>
    </TTGlyph>
    <TTGlyph name="adieresis" xMin="69" yMin="-9" xMax="502" yMax="573">
      <component glyphName="a" x="0" y="0" flags="0x4"/>
      <component glyphName="dieresis" x="142" y="0" flags="0x4"/>
    </TTGlyph>
    <TTGlyph name="ae" xMin="27" yMin="-8" xMax="590" yMax="385">
      <contour>
        <pt x="367" y="244" on="1"/>
        <pt x="364" y="222" on="1"/>
        <pt x="396" y="233" on="0"/>
        <pt x="458" y="255" on="0"/>
        <pt x="490" y="266" on="1"/>
        <pt x="479" y="283" on="0"/>
        <pt x="447" y="304" on="0"/>
        <pt x="426" y="304" on="1"/>
        <pt x="396" y="304" on="0"/>
        <pt x="371" y="293" on="1"/>
        <pt x="371" y="282" on="0"/>
        <pt x="369" y="258" on="0"/>
      </contour>
      <contour>
        <pt x="268" y="136" on="1"/>
        <pt x="212" y="136" on="1"/>
        <pt x="198" y="136" on="0"/>
        <pt x="165" y="134" on="0"/>
        <pt x="136" y="128" on="0"/>
        <pt x="116" y="117" on="0"/>
        <pt x="115" y="108" on="1"/>
        <pt x="113" y="97" on="0"/>
        <pt x="125" y="84" on="0"/>
        <pt x="145" y="76" on="0"/>
        <pt x="171" y="73" on="0"/>
        <pt x="185" y="73" on="1"/>
        <pt x="196" y="73" on="0"/>
        <pt x="222" y="74" on="0"/>
        <pt x="245" y="80" on="0"/>
        <pt x="262" y="95" on="0"/>
        <pt x="264" y="110" on="1"/>
      </contour>
      <contour>
        <pt x="114" y="276" on="1"/>
        <pt x="104" y="290" on="0"/>
        <pt x="87" y="315" on="0"/>
        <pt x="77" y="329" on="1"/>
        <pt x="90" y="340" on="0"/>
        <pt x="127" y="361" on="0"/>
        <pt x="169" y="376" on="0"/>
        <pt x="213" y="385" on="0"/>
        <pt x="232" y="385" on="1"/>
        <pt x="310" y="385" on="0"/>
        <pt x="341" y="363" on="1"/>
        <pt x="388" y="385" on="0"/>
        <pt x="437" y="385" on="1"/>
        <pt x="468" y="385" on="0"/>
        <pt x="521" y="360" on="0"/>
        <pt x="561" y="316" on="0"/>
        <pt x="586" y="255" on="0"/>
        <pt x="590" y="219" on="1"/>
        <pt x="530" y="198" on="0"/>
        <pt x="412" y="156" on="0"/>
        <pt x="352" y="135" on="1"/>
        <pt x="351" y="131" on="1"/>
        <pt x="348" y="107" on="0"/>
        <pt x="340" y="84" on="1"/>
        <pt x="361" y="73" on="0"/>
        <pt x="393" y="73" on="1"/>
        <pt x="416" y="73" on="0"/>
        <pt x="457" y="90" on="0"/>
        <pt x="474" y="105" on="1"/>
        <pt x="516" y="45" on="1"/>
        <pt x="488" y="20" on="0"/>
        <pt x="420" y="-8" on="0"/>
        <pt x="382" y="-8" on="1"/>
        <pt x="329" y="-8" on="0"/>
        <pt x="287" y="17" on="1"/>
        <pt x="247" y="-8" on="0"/>
        <pt x="175" y="-8" on="1"/>
        <pt x="139" y="-8" on="0"/>
        <pt x="82" y="3" on="0"/>
        <pt x="44" y="31" on="0"/>
        <pt x="27" y="77" on="0"/>
        <pt x="32" y="112" on="1"/>
        <pt x="36" y="143" on="0"/>
        <pt x="67" y="186" on="0"/>
        <pt x="110" y="211" on="0"/>
        <pt x="164" y="222" on="0"/>
        <pt x="191" y="222" on="1"/>
        <pt x="280" y="222" on="1"/>
        <pt x="284" y="246" on="1"/>
        <pt x="288" y="275" on="0"/>
        <pt x="266" y="304" on="0"/>
        <pt x="220" y="304" on="1"/>
        <pt x="194" y="304" on="0"/>
        <pt x="131" y="287" on="0"/>
      </contour>
    </TTGlyph>
    <TTGlyph name="agrave" xMin="69" yMin="-9" xMax="502" yMax="612">
      <component glyphName="a" x="0" y="0" flags="0x4"/>
      <component glyphName="grave" x="227" y="0" flags="0x4"/>
    </TTGlyph>
    <TTGlyph name="ampersand" xMin="72" yMin="-19" xMax="600" yMax="750">
      <contour>
        <pt x="161" y="188" on="1"/>
        <pt x="154" y="139" on="0"/>
        <pt x="210" y="72" on="0"/>
        <pt x="262" y="72" on="1"/>
        <pt x="300" y="72" on="0"/>
        <pt x="362" y="110" on="0"/>
        <pt x="379" y="141" on="1"/>
        <pt x="360" y="182" on="0"/>
        <pt x="323" y="262" on="0"/>
        <pt x="303" y="303" on="1"/>
        <pt x="247" y="303" on="0"/>
        <pt x="169" y="242" on="0"/>
      </contour>
      <contour>
        <pt x="480" y="194" on="1"/>
        <pt x="479" y="187" on="1"/>
        <pt x="476" y="166" on="0"/>
        <pt x="468" y="145" on="1"/>
        <pt x="482" y="115" on="0"/>
        <pt x="512" y="54" on="0"/>
        <pt x="526" y="24" on="1"/>
        <pt x="508" y="13" on="0"/>
        <pt x="473" y="-8" on="0"/>
        <pt x="455" y="-19" on="1"/>
        <pt x="445" y="1" on="0"/>
        <pt x="427" y="43" on="0"/>
        <pt x="416" y="63" on="1"/>
        <pt x="384" y="30" on="0"/>
        <pt x="298" y="-9" on="0"/>
        <pt x="250" y="-9" on="1"/>
        <pt x="208" y="-9" on="0"/>
        <pt x="140" y="22" on="0"/>
        <pt x="93" y="76" on="0"/>
        <pt x="72" y="147" on="0"/>
        <pt x="78" y="188" on="1"/>
        <pt x="83" y="224" on="0"/>
        <pt x="116" y="288" on="0"/>
        <pt x="167" y="339" on="0"/>
        <pt x="231" y="374" on="0"/>
        <pt x="266" y="380" on="1"/>
        <pt x="252" y="409" on="0"/>
        <pt x="226" y="467" on="0"/>
        <pt x="212" y="496" on="1"/>
        <pt x="198" y="526" on="0"/>
        <pt x="193" y="590" on="0"/>
        <pt x="212" y="651" on="0"/>
        <pt x="256" y="706" on="0"/>
        <pt x="292" y="726" on="1"/>
        <pt x="323" y="743" on="0"/>
        <pt x="382" y="750" on="0"/>
        <pt x="436" y="739" on="0"/>
        <pt x="483" y="717" on="0"/>
        <pt x="500" y="705" on="1"/>
        <pt x="489" y="688" on="0"/>
        <pt x="469" y="657" on="0"/>
        <pt x="458" y="640" on="1"/>
        <pt x="449" y="646" on="0"/>
        <pt x="420" y="661" on="0"/>
        <pt x="387" y="669" on="0"/>
        <pt x="353" y="669" on="0"/>
        <pt x="338" y="660" on="1"/>
        <pt x="293" y="634" on="0"/>
        <pt x="273" y="554" on="0"/>
        <pt x="292" y="515" on="1"/>
        <pt x="321" y="454" on="0"/>
        <pt x="378" y="334" on="0"/>
        <pt x="407" y="273" on="1"/>
        <pt x="413" y="304" on="0"/>
        <pt x="422" y="326" on="1"/>
        <pt x="432" y="348" on="0"/>
        <pt x="461" y="369" on="0"/>
        <pt x="496" y="376" on="0"/>
        <pt x="533" y="375" on="0"/>
        <pt x="553" y="375" on="1"/>
        <pt x="600" y="375" on="1"/>
        <pt x="589" y="294" on="1"/>
        <pt x="545" y="294" on="1"/>
        <pt x="530" y="294" on="0"/>
        <pt x="509" y="287" on="0"/>
        <pt x="494" y="266" on="0"/>
        <pt x="484" y="226" on="0"/>
      </contour>
    </TTGlyph>
    <TTGlyph name="aring" xMin="69" yMin="-9" xMax="502" yMax="627">
      <contour>
        <pt x="293" y="539" on="1"/>
        <pt x="291" y="525" on="0"/>
        <pt x="307" y="507" on="0"/>
        <pt x="321" y="507" on="1"/>
        <pt x="335" y="507" on="0"/>
        <pt x="356" y="525" on="0"/>
        <pt x="358" y="539" on="1"/>
        <pt x="360" y="553" on="0"/>
        <pt x="344" y="572" on="0"/>
        <pt x="330" y="572" on="1"/>
        <pt x="316" y="572" on="0"/>
        <pt x="295" y="553" on="0"/>
      </contour>
      <contour>
        <pt x="238" y="540" on="1"/>
        <pt x="241" y="558" on="0"/>
        <pt x="259" y="589" on="0"/>
        <pt x="287" y="613" on="0"/>
        <pt x="320" y="627" on="0"/>
        <pt x="338" y="627" on="1"/>
        <pt x="356" y="627" on="0"/>
        <pt x="385" y="613" on="0"/>
        <pt x="405" y="589" on="0"/>
        <pt x="415" y="558" on="0"/>
        <pt x="412" y="540" on="1"/>
        <pt x="410" y="522" on="0"/>
        <pt x="391" y="491" on="0"/>
        <pt x="364" y="467" on="0"/>
        <pt x="331" y="453" on="0"/>
        <pt x="313" y="453" on="1"/>
        <pt x="295" y="453" on="0"/>
        <pt x="266" y="467" on="0"/>
        <pt x="245" y="491" on="0"/>
        <pt x="236" y="522" on="0"/>
      </contour>
      <contour>
        <pt x="159" y="188" on="1"/>
        <pt x="152" y="139" on="0"/>
        <pt x="208" y="72" on="0"/>
        <pt x="260" y="72" on="1"/>
        <pt x="286" y="72" on="0"/>
        <pt x="331" y="90" on="0"/>
        <pt x="367" y="121" on="0"/>
        <pt x="390" y="164" on="0"/>
        <pt x="393" y="188" on="1"/>
        <pt x="400" y="238" on="0"/>
        <pt x="344" y="303" on="0"/>
        <pt x="292" y="303" on="1"/>
        <pt x="266" y="303" on="0"/>
        <pt x="221" y="286" on="0"/>
        <pt x="185" y="255" on="0"/>
        <pt x="162" y="213" on="0"/>
      </contour>
      <contour>
        <pt x="75" y="187" on="1"/>
        <pt x="81" y="230" on="0"/>
        <pt x="121" y="302" on="0"/>
        <pt x="183" y="354" on="0"/>
        <pt x="261" y="384" on="0"/>
        <pt x="303" y="384" on="1"/>
        <pt x="330" y="384" on="0"/>
        <pt x="374" y="368" on="0"/>
        <pt x="405" y="349" on="0"/>
        <pt x="423" y="331" on="0"/>
        <pt x="423" y="328" on="1"/>
        <pt x="425" y="339" on="0"/>
        <pt x="431" y="363" on="0"/>
        <pt x="433" y="375" on="1"/>
        <pt x="502" y="375" on="1"/>
        <pt x="450" y="0" on="1"/>
        <pt x="377" y="0" on="1"/>
        <pt x="381" y="32" on="1"/>
        <pt x="381" y="34" on="0"/>
        <pt x="382" y="39" on="0"/>
        <pt x="382" y="41" on="1"/>
        <pt x="381" y="38" on="0"/>
        <pt x="362" y="22" on="0"/>
        <pt x="327" y="5" on="0"/>
        <pt x="278" y="-9" on="0"/>
        <pt x="248" y="-9" on="1"/>
        <pt x="206" y="-9" on="0"/>
        <pt x="137" y="22" on="0"/>
        <pt x="90" y="76" on="0"/>
        <pt x="69" y="147" on="0"/>
      </contour>
    </TTGlyph>
    <TTGlyph name="asciicircum" xMin="99" yMin="479" xMax="339" yMax="660">
      <contour>
        <pt x="244" y="660" on="1"/>
        <pt x="268" y="615" on="0"/>
        <pt x="315" y="524" on="0"/>
        <pt x="339" y="479" on="1"/>
        <pt x="280" y="479" on="1"/>
        <pt x="229" y="551" on="1"/>
        <pt x="212" y="533" on="0"/>
        <pt x="175" y="497" on="0"/>
        <pt x="158" y="479" on="1"/>
        <pt x="99" y="479" on="1"/>
        <pt x="135" y="524" on="0"/>
        <pt x="208" y="615" on="0"/>
      </contour>
    </TTGlyph>
    <TTGlyph name="asciitilde" xMin="115" yMin="449" xMax="443" yMax="552">
      <contour>
        <pt x="268" y="481" on="1"/>
        <pt x="255" y="497" on="0"/>
        <pt x="233" y="507" on="0"/>
        <pt x="219" y="507" on="1"/>
        <pt x="205" y="507" on="0"/>
        <pt x="167" y="489" on="0"/>
        <pt x="160" y="461" on="1"/>
        <pt x="115" y="464" on="1"/>
        <pt x="119" y="484" on="0"/>
        <pt x="141" y="517" on="0"/>
        <pt x="171" y="540" on="0"/>
        <pt x="204" y="552" on="0"/>
        <pt x="219" y="552" on="1"/>
        <pt x="242" y="552" on="0"/>
        <pt x="277" y="534" on="0"/>
        <pt x="291" y="519" on="1"/>
        <pt x="304" y="503" on="0"/>
        <pt x="325" y="493" on="0"/>
        <pt x="339" y="493" on="1"/>
        <pt x="346" y="493" on="0"/>
        <pt x="364" y="497" on="0"/>
        <pt x="381" y="507" on="0"/>
        <pt x="396" y="525" on="0"/>
        <pt x="399" y="539" on="1"/>
        <pt x="410" y="538" on="0"/>
        <pt x="432" y="537" on="0"/>
        <pt x="443" y="536" on="1"/>
        <pt x="439" y="516" on="0"/>
        <pt x="417" y="483" on="0"/>
        <pt x="388" y="461" on="0"/>
        <pt x="355" y="449" on="0"/>
        <pt x="340" y="449" on="1"/>
        <pt x="317" y="449" on="0"/>
        <pt x="282" y="467" on="0"/>
      </contour>
    </TTGlyph>
    <TTGlyph name="asterisk" xMin="20" yMin="434" xMax="319" yMax="720">
      <contour>
        <pt x="249" y="575" on="1"/>
        <pt x="264" y="566" on="0"/>
        <pt x="293" y="548" on="0"/>
        <pt x="307" y="539" on="1"/>
        <pt x="294" y="521" on="0"/>
        <pt x="268" y="484" on="0"/>
        <pt x="255" y="466" on="1"/>
        <pt x="241" y="475" on="0"/>
        <pt x="212" y="494" on="0"/>
        <pt x="198" y="503" on="1"/>
        <pt x="196" y="486" on="0"/>
        <pt x="190" y="451" on="0"/>
        <pt x="187" y="434" on="1"/>
        <pt x="107" y="434" on="1"/>
        <pt x="117" y="504" on="1"/>
        <pt x="101" y="495" on="0"/>
        <pt x="68" y="478" on="0"/>
        <pt x="51" y="469" on="1"/>
        <pt x="43" y="487" on="0"/>
        <pt x="28" y="524" on="0"/>
        <pt x="20" y="542" on="1"/>
        <pt x="37" y="550" on="0"/>
        <pt x="69" y="568" on="0"/>
        <pt x="86" y="576" on="1"/>
        <pt x="72" y="585" on="0"/>
        <pt x="45" y="604" on="0"/>
        <pt x="31" y="613" on="1"/>
        <pt x="79" y="682" on="1"/>
        <pt x="94" y="673" on="0"/>
        <pt x="123" y="654" on="0"/>
        <pt x="137" y="645" on="1"/>
        <pt x="148" y="720" on="1"/>
        <pt x="232" y="720" on="1"/>
        <pt x="220" y="645" on="1"/>
        <pt x="289" y="681" on="1"/>
        <pt x="297" y="664" on="0"/>
        <pt x="312" y="629" on="0"/>
        <pt x="319" y="612" on="1"/>
        <pt x="302" y="603" on="0"/>
        <pt x="267" y="584" on="0"/>
      </contour>
    </TTGlyph>
    <TTGlyph name="at" xMin="53" yMin="-232" xMax="921" yMax="610">
      <contour>
        <pt x="367" y="188" on="1"/>
        <pt x="360" y="139" on="0"/>
        <pt x="416" y="72" on="0"/>
        <pt x="468" y="72" on="1"/>
        <pt x="494" y="72" on="0"/>
        <pt x="539" y="90" on="0"/>
        <pt x="575" y="121" on="0"/>
        <pt x="598" y="164" on="0"/>
        <pt x="601" y="188" on="1"/>
        <pt x="609" y="238" on="0"/>
        <pt x="553" y="303" on="0"/>
        <pt x="501" y="303" on="1"/>
        <pt x="475" y="303" on="0"/>
        <pt x="430" y="286" on="0"/>
        <pt x="394" y="255" on="0"/>
        <pt x="371" y="213" on="0"/>
      </contour>
      <contour>
        <pt x="909" y="188" on="1"/>
        <pt x="898" y="135" on="0"/>
        <pt x="847" y="64" on="0"/>
        <pt x="785" y="19" on="0"/>
        <pt x="718" y="0" on="0"/>
        <pt x="691" y="0" on="1"/>
        <pt x="585" y="0" on="1"/>
        <pt x="588" y="20" on="1"/>
        <pt x="589" y="25" on="0"/>
        <pt x="590" y="35" on="0"/>
        <pt x="591" y="40" on="1"/>
        <pt x="589" y="37" on="0"/>
        <pt x="569" y="21" on="0"/>
        <pt x="534" y="5" on="0"/>
        <pt x="486" y="-9" on="0"/>
        <pt x="457" y="-9" on="1"/>
        <pt x="415" y="-9" on="0"/>
        <pt x="345" y="22" on="0"/>
        <pt x="299" y="76" on="0"/>
        <pt x="277" y="147" on="0"/>
        <pt x="283" y="187" on="1"/>
        <pt x="289" y="226" on="0"/>
        <pt x="330" y="297" on="0"/>
        <pt x="392" y="351" on="0"/>
        <pt x="470" y="382" on="0"/>
        <pt x="512" y="382" on="1"/>
        <pt x="538" y="382" on="0"/>
        <pt x="581" y="368" on="0"/>
        <pt x="612" y="349" on="0"/>
        <pt x="630" y="331" on="0"/>
        <pt x="631" y="328" on="1"/>
        <pt x="633" y="339" on="0"/>
        <pt x="640" y="363" on="0"/>
        <pt x="642" y="375" on="1"/>
        <pt x="711" y="375" on="1"/>
        <pt x="669" y="81" on="1"/>
        <pt x="702" y="81" on="1"/>
        <pt x="722" y="81" on="0"/>
        <pt x="762" y="92" on="0"/>
        <pt x="795" y="117" on="0"/>
        <pt x="819" y="158" on="0"/>
        <pt x="825" y="188" on="1"/>
        <pt x="835" y="259" on="0"/>
        <pt x="800" y="383" on="0"/>
        <pt x="721" y="476" on="0"/>
        <pt x="606" y="529" on="0"/>
        <pt x="536" y="529" on="1"/>
        <pt x="465" y="529" on="0"/>
        <pt x="334" y="476" on="0"/>
        <pt x="229" y="383" on="0"/>
        <pt x="158" y="259" on="0"/>
        <pt x="148" y="188" on="1"/>
        <pt x="138" y="117" on="0"/>
        <pt x="174" y="-6" on="0"/>
        <pt x="254" y="-98" on="0"/>
        <pt x="370" y="-151" on="0"/>
        <pt x="441" y="-151" on="1"/>
        <pt x="500" y="-151" on="0"/>
        <pt x="610" y="-116" on="0"/>
        <pt x="659" y="-85" on="1"/>
        <pt x="670" y="-100" on="0"/>
        <pt x="690" y="-129" on="0"/>
        <pt x="701" y="-144" on="1"/>
        <pt x="673" y="-166" on="0"/>
        <pt x="606" y="-199" on="0"/>
        <pt x="534" y="-221" on="0"/>
        <pt x="462" y="-232" on="0"/>
        <pt x="429" y="-232" on="1"/>
        <pt x="341" y="-232" on="0"/>
        <pt x="196" y="-166" on="0"/>
        <pt x="97" y="-52" on="0"/>
        <pt x="53" y="102" on="0"/>
        <pt x="65" y="189" on="1"/>
        <pt x="77" y="276" on="0"/>
        <pt x="165" y="430" on="0"/>
        <pt x="296" y="544" on="0"/>
        <pt x="460" y="610" on="0"/>
        <pt x="548" y="610" on="1"/>
        <pt x="635" y="610" on="0"/>
        <pt x="779" y="544" on="0"/>
        <pt x="877" y="430" on="0"/>
        <pt x="921" y="276" on="0"/>
      </contour>
    </TTGlyph>
    <TTGlyph name="atilde" xMin="69" yMin="-9" xMax="502" yMax="552">
      <component glyphName="a" x="0" y="0" flags="0x4"/>
      <component glyphName="asciitilde" x="46" y="0" flags="0x4"/>
    </TTGlyph>
    <TTGlyph name="b" xMin="82" yMin="-9" xMax="515" yMax="750">
      <contour>
        <pt x="425" y="188" on="1"/>
        <pt x="432" y="238" on="0"/>
        <pt x="376" y="303" on="0"/>
        <pt x="324" y="303" on="1"/>
        <pt x="298" y="303" on="0"/>
        <pt x="253" y="286" on="0"/>
        <pt x="217" y="255" on="0"/>
        <pt x="194" y="213" on="0"/>
        <pt x="191" y="188" on="1"/>
        <pt x="184" y="139" on="0"/>
        <pt x="240" y="72" on="0"/>
        <pt x="292" y="72" on="1"/>
        <pt x="318" y="72" on="0"/>
        <pt x="363" y="90" on="0"/>
        <pt x="399" y="121" on="0"/>
        <pt x="422" y="164" on="0"/>
      </contour>
      <contour>
        <pt x="509" y="188" on="1"/>
        <pt x="503" y="144" on="0"/>
        <pt x="463" y="72" on="0"/>
        <pt x="402" y="20" on="0"/>
        <pt x="323" y="-9" on="0"/>
        <pt x="280" y="-9" on="1"/>
        <pt x="250" y="-9" on="0"/>
        <pt x="205" y="5" on="0"/>
        <pt x="175" y="22" on="0"/>
        <pt x="160" y="38" on="0"/>
        <pt x="160" y="41" on="1"/>
        <pt x="160" y="39" on="0"/>
        <pt x="159" y="34" on="0"/>
        <pt x="159" y="32" on="1"/>
        <pt x="155" y="0" on="1"/>
        <pt x="82" y="0" on="1"/>
        <pt x="187" y="750" on="1"/>
        <pt x="270" y="750" on="1"/>
        <pt x="215" y="362" on="1"/>
        <pt x="212" y="354" on="0"/>
        <pt x="204" y="338" on="0"/>
        <pt x="201" y="330" on="1"/>
        <pt x="202" y="333" on="0"/>
        <pt x="224" y="350" on="0"/>
        <pt x="260" y="369" on="0"/>
        <pt x="308" y="384" on="0"/>
        <pt x="335" y="384" on="1"/>
        <pt x="377" y="384" on="0"/>
        <pt x="447" y="353" on="0"/>
        <pt x="493" y="299" on="0"/>
        <pt x="515" y="228" on="0"/>
      </contour>
    </TTGlyph>
    <TTGlyph name="backslash" xMin="53" yMin="-19" xMax="318" yMax="736">
      <contour>
        <pt x="147" y="736" on="1"/>
        <pt x="190" y="546" on="0"/>
        <pt x="275" y="171" on="0"/>
        <pt x="318" y="-19" on="1"/>
        <pt x="224" y="-19" on="1"/>
        <pt x="181" y="171" on="0"/>
        <pt x="96" y="546" on="0"/>
        <pt x="53" y="736" on="1"/>
      </contour>
    </TTGlyph>
    <TTGlyph name="bar" xMin="25" yMin="-232" xMax="240" yMax="700">
      <contour>
        <pt x="25" y="-232" on="1"/>
        <pt x="156" y="700" on="1"/>
        <pt x="240" y="700" on="1"/>
        <pt x="109" y="-232" on="1"/>
      </contour>
    </TTGlyph>
    <TTGlyph name="braceleft" xMin="24" yMin="-149" xMax="352" yMax="746">
      <contour>
        <pt x="24" y="256" on="1"/>
        <pt x="35" y="337" on="1"/>
        <pt x="59" y="338" on="0"/>
        <pt x="94" y="365" on="0"/>
        <pt x="117" y="405" on="0"/>
        <pt x="130" y="452" on="0"/>
        <pt x="133" y="472" on="1"/>
        <pt x="155" y="628" on="1"/>
        <pt x="161" y="674" on="0"/>
        <pt x="187" y="723" on="0"/>
        <pt x="222" y="744" on="0"/>
        <pt x="265" y="746" on="0"/>
        <pt x="289" y="746" on="1"/>
        <pt x="352" y="746" on="1"/>
        <pt x="341" y="665" on="1"/>
        <pt x="297" y="665" on="1"/>
        <pt x="282" y="665" on="0"/>
        <pt x="261" y="657" on="0"/>
        <pt x="246" y="634" on="0"/>
        <pt x="235" y="594" on="0"/>
        <pt x="231" y="562" on="1"/>
        <pt x="212" y="433" on="1"/>
        <pt x="208" y="402" on="0"/>
        <pt x="189" y="357" on="0"/>
        <pt x="165" y="325" on="0"/>
        <pt x="139" y="304" on="0"/>
        <pt x="129" y="298" on="1"/>
        <pt x="138" y="292" on="0"/>
        <pt x="157" y="271" on="0"/>
        <pt x="172" y="238" on="0"/>
        <pt x="179" y="194" on="0"/>
        <pt x="175" y="164" on="1"/>
        <pt x="157" y="35" on="1"/>
        <pt x="152" y="3" on="0"/>
        <pt x="151" y="-38" on="0"/>
        <pt x="160" y="-60" on="0"/>
        <pt x="179" y="-68" on="0"/>
        <pt x="194" y="-68" on="1"/>
        <pt x="238" y="-68" on="1"/>
        <pt x="227" y="-149" on="1"/>
        <pt x="164" y="-149" on="1"/>
        <pt x="141" y="-149" on="0"/>
        <pt x="98" y="-147" on="0"/>
        <pt x="68" y="-126" on="0"/>
        <pt x="56" y="-78" on="0"/>
        <pt x="62" y="-31" on="1"/>
        <pt x="84" y="121" on="1"/>
        <pt x="87" y="141" on="0"/>
        <pt x="87" y="188" on="0"/>
        <pt x="75" y="228" on="0"/>
        <pt x="48" y="255" on="0"/>
      </contour>
    </TTGlyph>
    <TTGlyph name="braceright" xMin="-32" yMin="-149" xMax="295" yMax="746">
      <contour>
        <pt x="295" y="337" on="1"/>
        <pt x="283" y="256" on="1"/>
        <pt x="259" y="255" on="0"/>
        <pt x="225" y="228" on="0"/>
        <pt x="201" y="188" on="0"/>
        <pt x="188" y="141" on="0"/>
        <pt x="185" y="121" on="1"/>
        <pt x="164" y="-31" on="1"/>
        <pt x="158" y="-78" on="0"/>
        <pt x="132" y="-126" on="0"/>
        <pt x="97" y="-147" on="0"/>
        <pt x="54" y="-149" on="0"/>
        <pt x="30" y="-149" on="1"/>
        <pt x="-32" y="-149" on="1"/>
        <pt x="-21" y="-68" on="1"/>
        <pt x="22" y="-68" on="1"/>
        <pt x="37" y="-68" on="0"/>
        <pt x="58" y="-60" on="0"/>
        <pt x="73" y="-38" on="0"/>
        <pt x="83" y="3" on="0"/>
        <pt x="88" y="35" on="1"/>
        <pt x="107" y="164" on="1"/>
        <pt x="111" y="194" on="0"/>
        <pt x="130" y="239" on="0"/>
        <pt x="154" y="271" on="0"/>
        <pt x="180" y="292" on="0"/>
        <pt x="190" y="298" on="1"/>
        <pt x="181" y="304" on="0"/>
        <pt x="162" y="325" on="0"/>
        <pt x="147" y="357" on="0"/>
        <pt x="140" y="402" on="0"/>
        <pt x="144" y="433" on="1"/>
        <pt x="162" y="562" on="1"/>
        <pt x="167" y="594" on="0"/>
        <pt x="168" y="634" on="0"/>
        <pt x="159" y="657" on="0"/>
        <pt x="140" y="665" on="0"/>
        <pt x="125" y="665" on="1"/>
        <pt x="81" y="665" on="1"/>
        <pt x="92" y="746" on="1"/>
        <pt x="155" y="746" on="1"/>
        <pt x="178" y="746" on="0"/>
        <pt x="221" y="744" on="0"/>
        <pt x="251" y="723" on="0"/>
        <pt x="263" y="675" on="0"/>
        <pt x="257" y="628" on="1"/>
        <pt x="235" y="472" on="1"/>
        <pt x="232" y="452" on="0"/>
        <pt x="232" y="405" on="0"/>
        <pt x="244" y="365" on="0"/>
        <pt x="271" y="338" on="0"/>
      </contour>
    </TTGlyph>
    <TTGlyph name="bracketleft" xMin="20" yMin="-149" xMax="337" yMax="746">
      <contour>
        <pt x="20" y="-149" on="1"/>
        <pt x="145" y="746" on="1"/>
        <pt x="337" y="746" on="1"/>
        <pt x="326" y="665" on="1"/>
        <pt x="217" y="665" on="1"/>
        <pt x="114" y="-68" on="1"/>
        <pt x="223" y="-68" on="1"/>
        <pt x="212" y="-149" on="1"/>
      </contour>
    </TTGlyph>
    <TTGlyph name="bracketright" xMin="-3" yMin="-149" xMax="313" yMax="746">
      <contour>
        <pt x="313" y="746" on="1"/>
        <pt x="188" y="-149" on="1"/>
        <pt x="-3" y="-149" on="1"/>
        <pt x="7" y="-68" on="1"/>
        <pt x="116" y="-68" on="1"/>
        <pt x="219" y="665" on="1"/>
        <pt x="110" y="665" on="1"/>
        <pt x="121" y="746" on="1"/>
      </contour>
    </TTGlyph>
    <TTGlyph name="brokenbar" xMin="3" yMin="-233" xMax="218" yMax="700">
      <contour>
        <pt x="87" y="-233" on="1"/>
        <pt x="3" y="-233" on="1"/>
        <pt x="52" y="117" on="1"/>
        <pt x="136" y="117" on="1"/>
      </contour>
      <contour>
        <pt x="169" y="350" on="1"/>
        <pt x="85" y="350" on="1"/>
        <pt x="134" y="700" on="1"/>
        <pt x="218" y="700" on="1"/>
      </contour>
    </TTGlyph>
    <TTGlyph name="bullet" xMin="108" yMin="174" xMax="370" yMax="428">
      <contour>
        <pt x="112" y="300" on="1"/>
        <pt x="116" y="327" on="0"/>
        <pt x="142" y="373" on="0"/>
        <pt x="181" y="408" on="0"/>
        <pt x="230" y="428" on="0"/>
        <pt x="256" y="428" on="1"/>
        <pt x="283" y="428" on="0"/>
        <pt x="326" y="408" on="0"/>
        <pt x="356" y="373" on="0"/>
        <pt x="370" y="327" on="0"/>
        <pt x="366" y="300" on="1"/>
        <pt x="362" y="273" on="0"/>
        <pt x="336" y="227" on="0"/>
        <pt x="297" y="193" on="0"/>
        <pt x="248" y="174" on="0"/>
        <pt x="221" y="174" on="1"/>
        <pt x="195" y="174" on="0"/>
        <pt x="151" y="193" on="0"/>
        <pt x="122" y="227" on="0"/>
        <pt x="108" y="273" on="0"/>
      </contour>
    </TTGlyph>
    <TTGlyph name="c" xMin="56" yMin="-9" xMax="410" yMax="384">
      <contour>
        <pt x="324" y="97" on="1"/>
        <pt x="335" y="81" on="0"/>
        <pt x="354" y="50" on="0"/>
        <pt x="365" y="34" on="1"/>
        <pt x="336" y="14" on="0"/>
        <pt x="270" y="-9" on="0"/>
        <pt x="234" y="-9" on="1"/>
        <pt x="192" y="-9" on="0"/>
        <pt x="124" y="22" on="0"/>
        <pt x="77" y="76" on="0"/>
        <pt x="56" y="147" on="0"/>
        <pt x="62" y="188" on="1"/>
        <pt x="68" y="232" on="0"/>
        <pt x="108" y="304" on="0"/>
        <pt x="169" y="356" on="0"/>
        <pt x="246" y="384" on="0"/>
        <pt x="289" y="384" on="1"/>
        <pt x="326" y="384" on="0"/>
        <pt x="387" y="361" on="0"/>
        <pt x="410" y="341" on="1"/>
        <pt x="395" y="325" on="0"/>
        <pt x="365" y="295" on="0"/>
        <pt x="350" y="279" on="1"/>
        <pt x="321" y="303" on="0"/>
        <pt x="278" y="303" on="1"/>
        <pt x="252" y="303" on="0"/>
        <pt x="207" y="286" on="0"/>
        <pt x="171" y="255" on="0"/>
        <pt x="148" y="213" on="0"/>
        <pt x="145" y="188" on="1"/>
        <pt x="138" y="139" on="0"/>
        <pt x="194" y="72" on="0"/>
        <pt x="246" y="72" on="1"/>
        <pt x="290" y="72" on="0"/>
      </contour>
    </TTGlyph>
    <TTGlyph name="ccedilla" xMin="48" yMin="-250" xMax="401" yMax="384">
      <contour>
        <pt x="315" y="97" on="1"/>
        <pt x="326" y="81" on="0"/>
        <pt x="345" y="50" on="0"/>
        <pt x="356" y="34" on="1"/>
        <pt x="327" y="14" on="0"/>
        <pt x="260" y="-9" on="0"/>
        <pt x="224" y="-9" on="1"/>
        <pt x="222" y="-23" on="0"/>
        <pt x="229" y="-39" on="0"/>
        <pt x="240" y="-50" on="0"/>
        <pt x="253" y="-57" on="0"/>
        <pt x="259" y="-61" on="1"/>
        <pt x="278" y="-77" on="0"/>
        <pt x="289" y="-117" on="0"/>
        <pt x="285" y="-142" on="1"/>
        <pt x="280" y="-176" on="0"/>
        <pt x="238" y="-233" on="0"/>
        <pt x="203" y="-244" on="1"/>
        <pt x="185" y="-250" on="0"/>
        <pt x="165" y="-250" on="1"/>
        <pt x="131" y="-250" on="0"/>
        <pt x="79" y="-213" on="0"/>
        <pt x="71" y="-175" on="1"/>
        <pt x="84" y="-169" on="0"/>
        <pt x="109" y="-157" on="0"/>
        <pt x="121" y="-151" on="1"/>
        <pt x="124" y="-167" on="0"/>
        <pt x="147" y="-188" on="0"/>
        <pt x="167" y="-188" on="1"/>
        <pt x="191" y="-188" on="0"/>
        <pt x="221" y="-156" on="0"/>
        <pt x="225" y="-132" on="1"/>
        <pt x="228" y="-112" on="0"/>
        <pt x="209" y="-89" on="0"/>
        <pt x="186" y="-71" on="0"/>
        <pt x="167" y="-51" on="0"/>
        <pt x="169" y="-34" on="1"/>
        <pt x="174" y="-2" on="1"/>
        <pt x="143" y="6" on="0"/>
        <pt x="94" y="42" on="0"/>
        <pt x="61" y="92" on="0"/>
        <pt x="48" y="154" on="0"/>
        <pt x="53" y="188" on="1"/>
        <pt x="59" y="228" on="0"/>
        <pt x="100" y="300" on="0"/>
        <pt x="161" y="353" on="0"/>
        <pt x="238" y="384" on="0"/>
        <pt x="280" y="384" on="1"/>
        <pt x="317" y="384" on="0"/>
        <pt x="378" y="361" on="0"/>
        <pt x="401" y="341" on="1"/>
        <pt x="386" y="325" on="0"/>
        <pt x="355" y="295" on="0"/>
        <pt x="340" y="279" on="1"/>
        <pt x="311" y="303" on="0"/>
        <pt x="269" y="303" on="1"/>
        <pt x="243" y="303" on="0"/>
        <pt x="198" y="286" on="0"/>
        <pt x="162" y="255" on="0"/>
        <pt x="139" y="213" on="0"/>
        <pt x="136" y="188" on="1"/>
        <pt x="132" y="164" on="0"/>
        <pt x="143" y="121" on="0"/>
        <pt x="170" y="90" on="0"/>
        <pt x="210" y="72" on="0"/>
        <pt x="236" y="72" on="1"/>
        <pt x="279" y="72" on="0"/>
      </contour>
    </TTGlyph>
    <TTGlyph name="cedilla" xMin="98" yMin="-250" xMax="316" yMax="0">
      <contour>
        <pt x="201" y="0" on="1"/>
        <pt x="252" y="0" on="1"/>
        <pt x="251" y="-7" on="1"/>
        <pt x="249" y="-21" on="0"/>
        <pt x="255" y="-38" on="0"/>
        <pt x="266" y="-49" on="0"/>
        <pt x="279" y="-56" on="0"/>
        <pt x="285" y="-61" on="1"/>
        <pt x="305" y="-77" on="0"/>
        <pt x="316" y="-117" on="0"/>
        <pt x="312" y="-142" on="1"/>
        <pt x="309" y="-163" on="0"/>
        <pt x="290" y="-202" on="0"/>
        <pt x="260" y="-232" on="0"/>
        <pt x="218" y="-250" on="0"/>
        <pt x="192" y="-250" on="1"/>
        <pt x="158" y="-250" on="0"/>
        <pt x="106" y="-213" on="0"/>
        <pt x="98" y="-175" on="1"/>
        <pt x="111" y="-169" on="0"/>
        <pt x="136" y="-157" on="0"/>
        <pt x="148" y="-151" on="1"/>
        <pt x="151" y="-167" on="0"/>
        <pt x="174" y="-188" on="0"/>
        <pt x="194" y="-188" on="1"/>
        <pt x="218" y="-188" on="0"/>
        <pt x="248" y="-156" on="0"/>
        <pt x="252" y="-132" on="1"/>
        <pt x="255" y="-112" on="0"/>
        <pt x="236" y="-89" on="0"/>
        <pt x="213" y="-71" on="0"/>
        <pt x="194" y="-51" on="0"/>
        <pt x="196" y="-34" on="1"/>
      </contour>
    </TTGlyph>
    <TTGlyph name="cent" xMin="31" yMin="-68" xMax="384" yMax="438">
      <contour>
        <pt x="119" y="188" on="1"/>
        <pt x="114" y="154" on="0"/>
        <pt x="138" y="100" on="0"/>
        <pt x="164" y="85" on="1"/>
        <pt x="193" y="289" on="1"/>
        <pt x="163" y="275" on="0"/>
        <pt x="124" y="222" on="0"/>
      </contour>
      <contour>
        <pt x="298" y="97" on="1"/>
        <pt x="309" y="81" on="0"/>
        <pt x="328" y="50" on="0"/>
        <pt x="339" y="34" on="1"/>
        <pt x="292" y="-1" on="0"/>
        <pt x="236" y="-7" on="1"/>
        <pt x="227" y="-68" on="1"/>
        <pt x="143" y="-68" on="1"/>
        <pt x="152" y="0" on="1"/>
        <pt x="122" y="9" on="0"/>
        <pt x="75" y="45" on="0"/>
        <pt x="44" y="94" on="0"/>
        <pt x="31" y="155" on="0"/>
        <pt x="36" y="188" on="1"/>
        <pt x="40" y="221" on="0"/>
        <pt x="70" y="281" on="0"/>
        <pt x="115" y="331" on="0"/>
        <pt x="173" y="367" on="0"/>
        <pt x="205" y="376" on="1"/>
        <pt x="214" y="438" on="1"/>
        <pt x="298" y="438" on="1"/>
        <pt x="290" y="382" on="1"/>
        <pt x="316" y="378" on="0"/>
        <pt x="367" y="358" on="0"/>
        <pt x="384" y="341" on="1"/>
        <pt x="369" y="325" on="0"/>
        <pt x="339" y="295" on="0"/>
        <pt x="324" y="279" on="1"/>
        <pt x="305" y="293" on="0"/>
        <pt x="279" y="300" on="1"/>
        <pt x="247" y="74" on="1"/>
        <pt x="260" y="77" on="0"/>
        <pt x="287" y="89" on="0"/>
      </contour>
    </TTGlyph>
    <TTGlyph name="colon" xMin="12" yMin="0" xMax="156" yMax="355">
      <contour>
        <pt x="50" y="302" on="1"/>
        <pt x="53" y="325" on="0"/>
        <pt x="89" y="355" on="0"/>
        <pt x="109" y="355" on="1"/>
        <pt x="128" y="355" on="0"/>
        <pt x="156" y="325" on="0"/>
        <pt x="153" y="302" on="1"/>
        <pt x="150" y="279" on="0"/>
        <pt x="114" y="250" on="0"/>
        <pt x="95" y="250" on="1"/>
        <pt x="75" y="250" on="0"/>
        <pt x="47" y="279" on="0"/>
      </contour>
      <contour>
        <pt x="15" y="52" on="1"/>
        <pt x="18" y="75" on="0"/>
        <pt x="54" y="105" on="0"/>
        <pt x="74" y="105" on="1"/>
        <pt x="93" y="105" on="0"/>
        <pt x="121" y="75" on="0"/>
        <pt x="118" y="52" on="1"/>
        <pt x="115" y="29" on="0"/>
        <pt x="79" y="0" on="0"/>
        <pt x="60" y="0" on="1"/>
        <pt x="40" y="0" on="0"/>
        <pt x="12" y="29" on="0"/>
      </contour>
    </TTGlyph>
    <TTGlyph name="comma" xMin="-12" yMin="-120" xMax="177" yMax="86">
      <contour>
        <pt x="177" y="86" on="1"/>
        <pt x="148" y="34" on="0"/>
        <pt x="91" y="-68" on="0"/>
        <pt x="62" y="-120" on="1"/>
        <pt x="-12" y="-120" on="1"/>
        <pt x="14" y="-68" on="0"/>
        <pt x="66" y="34" on="0"/>
        <pt x="93" y="86" on="1"/>
      </contour>
    </TTGlyph>
    <TTGlyph name="copyright" xMin="128" yMin="111" xMax="670" yMax="634">
      <contour>
        <pt x="368" y="148" on="1"/>
        <pt x="415" y="148" on="0"/>
        <pt x="501" y="182" on="0"/>
        <pt x="570" y="242" on="0"/>
        <pt x="615" y="324" on="0"/>
        <pt x="622" y="372" on="1"/>
        <pt x="629" y="421" on="0"/>
        <pt x="607" y="503" on="0"/>
        <pt x="555" y="563" on="0"/>
        <pt x="478" y="597" on="0"/>
        <pt x="431" y="597" on="1"/>
        <pt x="384" y="597" on="0"/>
        <pt x="298" y="563" on="0"/>
        <pt x="229" y="503" on="0"/>
        <pt x="183" y="421" on="0"/>
        <pt x="176" y="372" on="1"/>
        <pt x="169" y="324" on="0"/>
        <pt x="192" y="242" on="0"/>
        <pt x="244" y="182" on="0"/>
        <pt x="321" y="148" on="0"/>
      </contour>
      <contour>
        <pt x="363" y="111" on="1"/>
        <pt x="309" y="111" on="0"/>
        <pt x="219" y="151" on="0"/>
        <pt x="157" y="221" on="0"/>
        <pt x="128" y="316" on="0"/>
        <pt x="136" y="372" on="1"/>
        <pt x="144" y="429" on="0"/>
        <pt x="200" y="525" on="0"/>
        <pt x="281" y="595" on="0"/>
        <pt x="382" y="634" on="0"/>
        <pt x="436" y="634" on="1"/>
        <pt x="490" y="634" on="0"/>
        <pt x="580" y="595" on="0"/>
        <pt x="642" y="525" on="0"/>
        <pt x="670" y="429" on="0"/>
        <pt x="662" y="372" on="1"/>
        <pt x="654" y="316" on="0"/>
        <pt x="599" y="221" on="0"/>
        <pt x="518" y="151" on="0"/>
        <pt x="417" y="111" on="0"/>
      </contour>
      <contour>
        <pt x="452" y="266" on="1"/>
        <pt x="469" y="236" on="1"/>
        <pt x="449" y="225" on="0"/>
        <pt x="406" y="213" on="0"/>
        <pt x="383" y="213" on="1"/>
        <pt x="350" y="213" on="0"/>
        <pt x="294" y="239" on="0"/>
        <pt x="257" y="283" on="0"/>
        <pt x="240" y="342" on="0"/>
        <pt x="245" y="375" on="1"/>
        <pt x="249" y="409" on="0"/>
        <pt x="283" y="468" on="0"/>
        <pt x="333" y="512" on="0"/>
        <pt x="396" y="537" on="0"/>
        <pt x="429" y="537" on="1"/>
        <pt x="473" y="537" on="0"/>
        <pt x="508" y="515" on="1"/>
        <pt x="502" y="507" on="0"/>
        <pt x="489" y="492" on="0"/>
        <pt x="483" y="484" on="1"/>
        <pt x="470" y="492" on="0"/>
        <pt x="441" y="502" on="0"/>
        <pt x="424" y="502" on="1"/>
        <pt x="398" y="502" on="0"/>
        <pt x="351" y="482" on="0"/>
        <pt x="312" y="447" on="0"/>
        <pt x="286" y="401" on="0"/>
        <pt x="282" y="375" on="1"/>
        <pt x="279" y="349" on="0"/>
        <pt x="292" y="303" on="0"/>
        <pt x="320" y="269" on="0"/>
        <pt x="362" y="249" on="0"/>
        <pt x="388" y="249" on="1"/>
        <pt x="423" y="249" on="0"/>
      </contour>
    </TTGlyph>
    <TTGlyph name="currency" xMin="70" yMin="196" xMax="424" yMax="522">
      <contour>
        <pt x="171" y="360" on="1"/>
        <pt x="166" y="328" on="0"/>
        <pt x="205" y="283" on="0"/>
        <pt x="237" y="283" on="1"/>
        <pt x="253" y="283" on="0"/>
        <pt x="283" y="295" on="0"/>
        <pt x="307" y="316" on="0"/>
        <pt x="324" y="344" on="0"/>
        <pt x="326" y="360" on="1"/>
        <pt x="330" y="392" on="0"/>
        <pt x="291" y="438" on="0"/>
        <pt x="259" y="438" on="1"/>
        <pt x="227" y="438" on="0"/>
        <pt x="176" y="392" on="0"/>
      </contour>
      <contour>
        <pt x="87" y="361" on="1"/>
        <pt x="90" y="383" on="0"/>
        <pt x="107" y="422" on="0"/>
        <pt x="119" y="439" on="1"/>
        <pt x="114" y="445" on="0"/>
        <pt x="104" y="457" on="0"/>
        <pt x="99" y="463" on="1"/>
        <pt x="166" y="522" on="1"/>
        <pt x="187" y="498" on="1"/>
        <pt x="207" y="507" on="0"/>
        <pt x="247" y="519" on="0"/>
        <pt x="269" y="519" on="1"/>
        <pt x="291" y="519" on="0"/>
        <pt x="329" y="508" on="0"/>
        <pt x="346" y="498" on="1"/>
        <pt x="373" y="522" on="1"/>
        <pt x="424" y="463" on="1"/>
        <pt x="399" y="441" on="1"/>
        <pt x="416" y="404" on="0"/>
        <pt x="410" y="361" on="1"/>
        <pt x="404" y="317" on="0"/>
        <pt x="375" y="280" on="1"/>
        <pt x="396" y="256" on="1"/>
        <pt x="329" y="197" on="1"/>
        <pt x="323" y="203" on="0"/>
        <pt x="312" y="216" on="0"/>
        <pt x="306" y="222" on="1"/>
        <pt x="268" y="202" on="0"/>
        <pt x="224" y="202" on="1"/>
        <pt x="182" y="202" on="0"/>
        <pt x="149" y="221" on="1"/>
        <pt x="121" y="196" on="1"/>
        <pt x="70" y="255" on="1"/>
        <pt x="97" y="279" on="1"/>
        <pt x="81" y="317" on="0"/>
      </contour>
    </TTGlyph>
    <TTGlyph name="d" xMin="69" yMin="-9" xMax="555" yMax="750">
      <contour>
        <pt x="159" y="188" on="1"/>
        <pt x="152" y="139" on="0"/>
        <pt x="208" y="72" on="0"/>
        <pt x="260" y="72" on="1"/>
        <pt x="286" y="72" on="0"/>
        <pt x="331" y="90" on="0"/>
        <pt x="367" y="121" on="0"/>
        <pt x="390" y="164" on="0"/>
        <pt x="393" y="188" on="1"/>
        <pt x="400" y="238" on="0"/>
        <pt x="344" y="303" on="0"/>
        <pt x="292" y="303" on="1"/>
        <pt x="266" y="303" on="0"/>
        <pt x="221" y="286" on="0"/>
        <pt x="185" y="255" on="0"/>
        <pt x="162" y="213" on="0"/>
      </contour>
      <contour>
        <pt x="75" y="188" on="1"/>
        <pt x="81" y="228" on="0"/>
        <pt x="121" y="299" on="0"/>
        <pt x="183" y="353" on="0"/>
        <pt x="261" y="384" on="0"/>
        <pt x="303" y="384" on="1"/>
        <pt x="330" y="384" on="0"/>
        <pt x="374" y="369" on="0"/>
        <pt x="405" y="350" on="0"/>
        <pt x="423" y="333" on="0"/>
        <pt x="423" y="330" on="1"/>
        <pt x="421" y="338" on="0"/>
        <pt x="419" y="354" on="0"/>
        <pt x="417" y="362" on="1"/>
        <pt x="472" y="750" on="1"/>
        <pt x="555" y="750" on="1"/>
        <pt x="450" y="0" on="1"/>
        <pt x="377" y="0" on="1"/>
        <pt x="381" y="32" on="1"/>
        <pt x="381" y="34" on="0"/>
        <pt x="382" y="39" on="0"/>
        <pt x="382" y="41" on="1"/>
        <pt x="381" y="38" on="0"/>
        <pt x="362" y="22" on="0"/>
        <pt x="327" y="5" on="0"/>
        <pt x="278" y="-9" on="0"/>
        <pt x="248" y="-9" on="1"/>
        <pt x="206" y="-9" on="0"/>
        <pt x="137" y="22" on="0"/>
        <pt x="90" y="76" on="0"/>
        <pt x="69" y="148" on="0"/>
      </contour>
    </TTGlyph>
    <TTGlyph name="degree" xMin="30" yMin="460" xMax="243" yMax="660">
      <contour>
        <pt x="131" y="511" on="1"/>
        <pt x="151" y="511" on="0"/>
        <pt x="184" y="539" on="0"/>
        <pt x="186" y="559" on="1"/>
        <pt x="189" y="579" on="0"/>
        <pt x="164" y="608" on="0"/>
        <pt x="144" y="608" on="1"/>
        <pt x="124" y="608" on="0"/>
        <pt x="92" y="579" on="0"/>
        <pt x="89" y="559" on="1"/>
        <pt x="87" y="539" on="0"/>
        <pt x="111" y="511" on="0"/>
      </contour>
      <contour>
        <pt x="36" y="560" on="1"/>
        <pt x="39" y="581" on="0"/>
        <pt x="59" y="617" on="0"/>
        <pt x="91" y="644" on="0"/>
        <pt x="131" y="660" on="0"/>
        <pt x="152" y="660" on="1"/>
        <pt x="194" y="660" on="0"/>
        <pt x="243" y="602" on="0"/>
        <pt x="238" y="560" on="1"/>
        <pt x="235" y="539" on="0"/>
        <pt x="214" y="502" on="0"/>
        <pt x="182" y="475" on="0"/>
        <pt x="144" y="460" on="0"/>
        <pt x="123" y="460" on="1"/>
        <pt x="80" y="460" on="0"/>
        <pt x="30" y="518" on="0"/>
      </contour>
    </TTGlyph>
    <TTGlyph name="dieresis" xMin="45" yMin="468" xMax="321" yMax="573">
      <contour>
        <pt x="214" y="520" on="1"/>
        <pt x="218" y="543" on="0"/>
        <pt x="254" y="573" on="0"/>
        <pt x="274" y="573" on="1"/>
        <pt x="293" y="573" on="0"/>
        <pt x="321" y="543" on="0"/>
        <pt x="317" y="520" on="1"/>
        <pt x="314" y="497" on="0"/>
        <pt x="278" y="468" on="0"/>
        <pt x="259" y="468" on="1"/>
        <pt x="239" y="468" on="0"/>
        <pt x="211" y="497" on="0"/>
      </contour>
      <contour>
        <pt x="48" y="520" on="1"/>
        <pt x="52" y="543" on="0"/>
        <pt x="88" y="573" on="0"/>
        <pt x="108" y="573" on="1"/>
        <pt x="127" y="573" on="0"/>
        <pt x="155" y="543" on="0"/>
        <pt x="151" y="520" on="1"/>
        <pt x="148" y="497" on="0"/>
        <pt x="112" y="468" on="0"/>
        <pt x="93" y="468" on="1"/>
        <pt x="73" y="468" on="0"/>
        <pt x="45" y="497" on="0"/>
      </contour>
    </TTGlyph>
    <TTGlyph name="divide" xMin="62" yMin="71" xMax="433" yMax="426">
      <contour>
        <pt x="422" y="206" on="1"/>
        <pt x="62" y="206" on="1"/>
        <pt x="73" y="287" on="1"/>
        <pt x="433" y="287" on="1"/>
      </contour>
      <contour>
        <pt x="216" y="373" on="1"/>
        <pt x="219" y="396" on="0"/>
        <pt x="255" y="426" on="0"/>
        <pt x="275" y="426" on="1"/>
        <pt x="294" y="426" on="0"/>
        <pt x="322" y="396" on="0"/>
        <pt x="319" y="373" on="1"/>
        <pt x="316" y="350" on="0"/>
        <pt x="280" y="321" on="0"/>
        <pt x="261" y="321" on="1"/>
        <pt x="241" y="321" on="0"/>
        <pt x="213" y="350" on="0"/>
      </contour>
      <contour>
        <pt x="181" y="123" on="1"/>
        <pt x="184" y="146" on="0"/>
        <pt x="220" y="176" on="0"/>
        <pt x="240" y="176" on="1"/>
        <pt x="259" y="176" on="0"/>
        <pt x="287" y="146" on="0"/>
        <pt x="284" y="123" on="1"/>
        <pt x="281" y="100" on="0"/>
        <pt x="245" y="71" on="0"/>
        <pt x="226" y="71" on="1"/>
        <pt x="206" y="71" on="0"/>
        <pt x="178" y="100" on="0"/>
      </contour>
    </TTGlyph>
    <TTGlyph name="dollar" xMin="11" yMin="-68" xMax="488" yMax="764">
      <contour>
        <pt x="180" y="514" on="1"/>
        <pt x="175" y="481" on="0"/>
        <pt x="198" y="443" on="0"/>
        <pt x="219" y="432" on="1"/>
        <pt x="224" y="429" on="0"/>
        <pt x="236" y="424" on="0"/>
        <pt x="242" y="422" on="1"/>
        <pt x="270" y="620" on="1"/>
        <pt x="230" y="609" on="0"/>
        <pt x="185" y="551" on="0"/>
      </contour>
      <contour>
        <pt x="378" y="188" on="1"/>
        <pt x="381" y="211" on="0"/>
        <pt x="372" y="246" on="0"/>
        <pt x="353" y="273" on="0"/>
        <pt x="325" y="293" on="0"/>
        <pt x="309" y="301" on="1"/>
        <pt x="278" y="78" on="1"/>
        <pt x="316" y="89" on="0"/>
        <pt x="372" y="143" on="0"/>
      </contour>
      <contour>
        <pt x="488" y="631" on="1"/>
        <pt x="474" y="616" on="0"/>
        <pt x="447" y="586" on="0"/>
        <pt x="433" y="571" on="1"/>
        <pt x="422" y="582" on="0"/>
        <pt x="382" y="611" on="0"/>
        <pt x="354" y="619" on="1"/>
        <pt x="322" y="391" on="1"/>
        <pt x="350" y="379" on="0"/>
        <pt x="405" y="344" on="0"/>
        <pt x="446" y="295" on="0"/>
        <pt x="467" y="230" on="0"/>
        <pt x="461" y="187" on="1"/>
        <pt x="455" y="148" on="0"/>
        <pt x="420" y="82" on="0"/>
        <pt x="368" y="32" on="0"/>
        <pt x="302" y="1" on="0"/>
        <pt x="266" y="-5" on="1"/>
        <pt x="257" y="-68" on="1"/>
        <pt x="173" y="-68" on="1"/>
        <pt x="182" y="-4" on="1"/>
        <pt x="151" y="1" on="0"/>
        <pt x="97" y="24" on="0"/>
        <pt x="53" y="54" on="0"/>
        <pt x="20" y="89" on="0"/>
        <pt x="11" y="106" on="1"/>
        <pt x="71" y="158" on="1"/>
        <pt x="90" y="134" on="0"/>
        <pt x="150" y="83" on="0"/>
        <pt x="193" y="74" on="1"/>
        <pt x="229" y="332" on="1"/>
        <pt x="224" y="334" on="0"/>
        <pt x="211" y="340" on="0"/>
        <pt x="204" y="344" on="1"/>
        <pt x="186" y="353" on="0"/>
        <pt x="144" y="378" on="0"/>
        <pt x="111" y="419" on="0"/>
        <pt x="92" y="476" on="0"/>
        <pt x="97" y="517" on="1"/>
        <pt x="100" y="547" on="0"/>
        <pt x="125" y="607" on="0"/>
        <pt x="169" y="659" on="0"/>
        <pt x="236" y="695" on="0"/>
        <pt x="281" y="701" on="1"/>
        <pt x="290" y="764" on="1"/>
        <pt x="374" y="764" on="1"/>
        <pt x="365" y="700" on="1"/>
        <pt x="394" y="694" on="0"/>
        <pt x="454" y="663" on="0"/>
      </contour>
    </TTGlyph>
    <TTGlyph name="e" xMin="56" yMin="-9" xMax="442" yMax="384">
      <contour>
        <pt x="278" y="303" on="1"/>
        <pt x="238" y="303" on="0"/>
        <pt x="175" y="263" on="0"/>
        <pt x="158" y="231" on="1"/>
        <pt x="153" y="223" on="0"/>
        <pt x="148" y="205" on="0"/>
        <pt x="146" y="196" on="1"/>
        <pt x="195" y="213" on="0"/>
        <pt x="294" y="248" on="0"/>
        <pt x="343" y="265" on="1"/>
        <pt x="332" y="282" on="0"/>
        <pt x="299" y="303" on="0"/>
      </contour>
      <contour>
        <pt x="442" y="218" on="1"/>
        <pt x="371" y="193" on="0"/>
        <pt x="229" y="143" on="0"/>
        <pt x="157" y="118" on="1"/>
        <pt x="169" y="97" on="0"/>
        <pt x="215" y="72" on="0"/>
        <pt x="246" y="72" on="1"/>
        <pt x="269" y="72" on="0"/>
        <pt x="309" y="89" on="0"/>
        <pt x="326" y="104" on="1"/>
        <pt x="337" y="89" on="0"/>
        <pt x="358" y="59" on="0"/>
        <pt x="369" y="44" on="1"/>
        <pt x="340" y="19" on="0"/>
        <pt x="272" y="-9" on="0"/>
        <pt x="234" y="-9" on="1"/>
        <pt x="192" y="-9" on="0"/>
        <pt x="124" y="22" on="0"/>
        <pt x="77" y="76" on="0"/>
        <pt x="56" y="147" on="0"/>
        <pt x="62" y="188" on="1"/>
        <pt x="68" y="234" on="0"/>
        <pt x="108" y="307" on="0"/>
        <pt x="169" y="357" on="0"/>
        <pt x="246" y="384" on="0"/>
        <pt x="289" y="384" on="1"/>
        <pt x="320" y="384" on="0"/>
        <pt x="373" y="359" on="0"/>
        <pt x="413" y="315" on="0"/>
        <pt x="438" y="254" on="0"/>
      </contour>
    </TTGlyph>
    <TTGlyph name="eacute" xMin="56" yMin="-9" xMax="456" yMax="612">
      <component glyphName="e" x="0" y="0" flags="0x204"/>
      <component glyphName="acute" x="173" y="0" flags="0x4"/>
    </TTGlyph>
    <TTGlyph name="ecircumflex" xMin="56" yMin="-9" xMax="442" yMax="660">
      <component glyphName="e" x="0" y="0" flags="0x204"/>
      <component glyphName="asciicircum" x="80" y="0" flags="0x4"/>
    </TTGlyph>
    <TTGlyph name="edieresis" xMin="56" yMin="-9" xMax="442" yMax="573">
      <component glyphName="e" x="0" y="0" flags="0x204"/>
      <component glyphName="dieresis" x="111" y="0" flags="0x4"/>
    </TTGlyph>
    <TTGlyph name="egrave" xMin="56" yMin="-9" xMax="442" yMax="612">
      <component glyphName="e" x="0" y="0" flags="0x204"/>
      <component glyphName="grave" x="196" y="0" flags="0x4"/>
    </TTGlyph>
    <TTGlyph name="eight" xMin="13" yMin="-8" xMax="463" yMax="658">
      <contour>
        <pt x="204" y="498" on="1"/>
        <pt x="199" y="466" on="0"/>
        <pt x="237" y="424" on="0"/>
        <pt x="268" y="424" on="1"/>
        <pt x="300" y="424" on="0"/>
        <pt x="349" y="466" on="0"/>
        <pt x="354" y="498" on="1"/>
        <pt x="359" y="530" on="0"/>
        <pt x="322" y="577" on="0"/>
        <pt x="290" y="577" on="1"/>
        <pt x="275" y="577" on="0"/>
        <pt x="246" y="564" on="0"/>
        <pt x="222" y="542" on="0"/>
        <pt x="206" y="514" on="0"/>
      </contour>
      <contour>
        <pt x="105" y="209" on="1"/>
        <pt x="101" y="181" on="0"/>
        <pt x="115" y="132" on="0"/>
        <pt x="145" y="95" on="0"/>
        <pt x="190" y="73" on="0"/>
        <pt x="217" y="73" on="1"/>
        <pt x="245" y="73" on="0"/>
        <pt x="297" y="95" on="0"/>
        <pt x="340" y="132" on="0"/>
        <pt x="368" y="181" on="0"/>
        <pt x="372" y="209" on="1"/>
        <pt x="376" y="236" on="0"/>
        <pt x="362" y="284" on="0"/>
        <pt x="332" y="320" on="0"/>
        <pt x="287" y="342" on="0"/>
        <pt x="260" y="343" on="1"/>
        <pt x="231" y="343" on="0"/>
        <pt x="178" y="322" on="0"/>
        <pt x="137" y="286" on="0"/>
        <pt x="109" y="237" on="0"/>
      </contour>
      <contour>
        <pt x="19" y="209" on="1"/>
        <pt x="27" y="267" on="0"/>
        <pt x="96" y="362" on="0"/>
        <pt x="147" y="391" on="1"/>
        <pt x="130" y="411" on="0"/>
        <pt x="114" y="466" on="0"/>
        <pt x="119" y="498" on="1"/>
        <pt x="123" y="531" on="0"/>
        <pt x="156" y="589" on="0"/>
        <pt x="205" y="633" on="0"/>
        <pt x="266" y="658" on="0"/>
        <pt x="299" y="658" on="1"/>
        <pt x="332" y="658" on="0"/>
        <pt x="387" y="633" on="0"/>
        <pt x="424" y="589" on="0"/>
        <pt x="441" y="531" on="0"/>
        <pt x="437" y="498" on="1"/>
        <pt x="432" y="466" on="0"/>
        <pt x="401" y="411" on="0"/>
        <pt x="378" y="391" on="1"/>
        <pt x="420" y="362" on="0"/>
        <pt x="463" y="267" on="0"/>
        <pt x="455" y="209" on="1"/>
        <pt x="449" y="164" on="0"/>
        <pt x="403" y="85" on="0"/>
        <pt x="335" y="26" on="0"/>
        <pt x="251" y="-8" on="0"/>
        <pt x="206" y="-8" on="1"/>
        <pt x="161" y="-8" on="0"/>
        <pt x="87" y="26" on="0"/>
        <pt x="36" y="85" on="0"/>
        <pt x="13" y="164" on="0"/>
      </contour>
    </TTGlyph>
    <TTGlyph name="emdash" xMin="93" yMin="174" xMax="606" yMax="255">
      <contour>
        <pt x="93" y="174" on="1"/>
        <pt x="104" y="255" on="1"/>
        <pt x="606" y="255" on="1"/>
        <pt x="595" y="174" on="1"/>
      </contour>
    </TTGlyph>
    <TTGlyph name="endash" xMin="94" yMin="174" xMax="406" yMax="255">
      <contour>
        <pt x="94" y="174" on="1"/>
        <pt x="105" y="255" on="1"/>
        <pt x="406" y="255" on="1"/>
        <pt x="395" y="174" on="1"/>
      </contour>
    </TTGlyph>
    <TTGlyph name="equal" xMin="80" yMin="112" xMax="625" yMax="387">
      <contour>
        <pt x="598" y="193" on="1"/>
        <pt x="586" y="112" on="1"/>
        <pt x="80" y="112" on="1"/>
        <pt x="92" y="193" on="1"/>
      </contour>
      <contour>
        <pt x="625" y="387" on="1"/>
        <pt x="613" y="306" on="1"/>
        <pt x="107" y="306" on="1"/>
        <pt x="119" y="387" on="1"/>
      </contour>
    </TTGlyph>
    <TTGlyph name="eth" xMin="27" yMin="-7" xMax="436" yMax="738">
      <contour>
        <pt x="111" y="188" on="1"/>
        <pt x="108" y="163" on="0"/>
        <pt x="120" y="121" on="0"/>
        <pt x="148" y="91" on="0"/>
        <pt x="189" y="74" on="0"/>
        <pt x="215" y="75" on="1"/>
        <pt x="241" y="76" on="0"/>
        <pt x="286" y="95" on="0"/>
        <pt x="321" y="127" on="0"/>
        <pt x="343" y="170" on="0"/>
        <pt x="346" y="194" on="1"/>
        <pt x="350" y="244" on="0"/>
        <pt x="293" y="307" on="0"/>
        <pt x="241" y="306" on="1"/>
        <pt x="188" y="304" on="0"/>
        <pt x="116" y="238" on="0"/>
      </contour>
      <contour>
        <pt x="154" y="531" on="1"/>
        <pt x="171" y="546" on="0"/>
        <pt x="202" y="576" on="0"/>
        <pt x="218" y="591" on="1"/>
        <pt x="183" y="641" on="0"/>
        <pt x="139" y="683" on="1"/>
        <pt x="156" y="697" on="0"/>
        <pt x="191" y="724" on="0"/>
        <pt x="208" y="738" on="1"/>
        <pt x="249" y="703" on="0"/>
        <pt x="286" y="655" on="1"/>
        <pt x="300" y="668" on="0"/>
        <pt x="325" y="692" on="0"/>
        <pt x="338" y="705" on="1"/>
        <pt x="351" y="692" on="0"/>
        <pt x="377" y="667" on="0"/>
        <pt x="389" y="654" on="1"/>
        <pt x="373" y="639" on="0"/>
        <pt x="343" y="610" on="0"/>
        <pt x="327" y="595" on="1"/>
        <pt x="352" y="554" on="0"/>
        <pt x="395" y="456" on="0"/>
        <pt x="424" y="352" on="0"/>
        <pt x="436" y="246" on="0"/>
        <pt x="429" y="197" on="1"/>
        <pt x="425" y="156" on="0"/>
        <pt x="387" y="84" on="0"/>
        <pt x="329" y="29" on="0"/>
        <pt x="253" y="-5" on="0"/>
        <pt x="211" y="-6" on="1"/>
        <pt x="169" y="-7" on="0"/>
        <pt x="100" y="22" on="0"/>
        <pt x="51" y="74" on="0"/>
        <pt x="27" y="144" on="0"/>
        <pt x="31" y="185" on="1"/>
        <pt x="35" y="225" on="0"/>
        <pt x="75" y="298" on="0"/>
        <pt x="136" y="352" on="0"/>
        <pt x="213" y="385" on="0"/>
        <pt x="255" y="386" on="1"/>
        <pt x="287" y="387" on="0"/>
        <pt x="317" y="378" on="1"/>
        <pt x="310" y="418" on="0"/>
        <pt x="280" y="493" on="0"/>
        <pt x="259" y="528" on="1"/>
        <pt x="246" y="515" on="0"/>
        <pt x="218" y="491" on="0"/>
        <pt x="204" y="478" on="1"/>
        <pt x="192" y="492" on="0"/>
        <pt x="166" y="517" on="0"/>
      </contour>
    </TTGlyph>
    <TTGlyph name="exclam" xMin="0" yMin="0" xMax="192" yMax="750">
      <contour>
        <pt x="46" y="0" on="1"/>
        <pt x="26" y="0" on="0"/>
        <pt x="0" y="30" on="0"/>
        <pt x="1" y="53" on="1"/>
        <pt x="4" y="76" on="0"/>
        <pt x="41" y="105" on="0"/>
        <pt x="61" y="105" on="1"/>
        <pt x="80" y="105" on="0"/>
        <pt x="107" y="76" on="0"/>
        <pt x="104" y="53" on="1"/>
        <pt x="101" y="30" on="0"/>
        <pt x="65" y="0" on="0"/>
        <pt x="46" y="0" on="1"/>
      </contour>
      <contour>
        <pt x="109" y="750" on="1"/>
        <pt x="192" y="750" on="1"/>
        <pt x="110" y="166" on="1"/>
        <pt x="27" y="166" on="1"/>
      </contour>
    </TTGlyph>
    <TTGlyph name="exclamdown" xMin="4" yMin="-210" xMax="198" yMax="540">
      <contour>
        <pt x="151" y="540" on="1"/>
        <pt x="170" y="540" on="0"/>
        <pt x="198" y="510" on="0"/>
        <pt x="195" y="487" on="1"/>
        <pt x="192" y="464" on="0"/>
        <pt x="155" y="435" on="0"/>
        <pt x="136" y="435" on="1"/>
        <pt x="116" y="435" on="0"/>
        <pt x="89" y="464" on="0"/>
        <pt x="92" y="487" on="1"/>
        <pt x="96" y="510" on="0"/>
        <pt x="131" y="540" on="0"/>
      </contour>
      <contour>
        <pt x="86" y="374" on="1"/>
        <pt x="169" y="374" on="1"/>
        <pt x="87" y="-210" on="1"/>
        <pt x="4" y="-210" on="1"/>
      </contour>
    </TTGlyph>
    <TTGlyph name="f" xMin="64" yMin="0" xMax="432" yMax="751">
      <contour>
        <pt x="64" y="303" on="1"/>
        <pt x="75" y="384" on="1"/>
        <pt x="139" y="384" on="1"/>
        <pt x="158" y="517" on="1"/>
        <pt x="166" y="573" on="0"/>
        <pt x="215" y="659" on="0"/>
        <pt x="288" y="718" on="0"/>
        <pt x="380" y="749" on="0"/>
        <pt x="432" y="751" on="1"/>
        <pt x="421" y="672" on="1"/>
        <pt x="351" y="668" on="0"/>
        <pt x="252" y="588" on="0"/>
        <pt x="241" y="514" on="1"/>
        <pt x="222" y="384" on="1"/>
        <pt x="339" y="384" on="1"/>
        <pt x="328" y="303" on="1"/>
        <pt x="211" y="303" on="1"/>
        <pt x="169" y="0" on="1"/>
        <pt x="86" y="0" on="1"/>
        <pt x="128" y="303" on="1"/>
      </contour>
    </TTGlyph>
    <TTGlyph name="five" xMin="65" yMin="-8" xMax="476" yMax="650">
      <contour>
        <pt x="138" y="292" on="1"/>
        <pt x="189" y="650" on="1"/>
        <pt x="476" y="650" on="1"/>
        <pt x="464" y="569" on="1"/>
        <pt x="261" y="569" on="1"/>
        <pt x="241" y="422" on="1"/>
        <pt x="247" y="423" on="0"/>
        <pt x="260" y="424" on="0"/>
        <pt x="267" y="424" on="1"/>
        <pt x="312" y="424" on="0"/>
        <pt x="387" y="391" on="0"/>
        <pt x="438" y="332" on="0"/>
        <pt x="462" y="254" on="0"/>
        <pt x="456" y="209" on="1"/>
        <pt x="450" y="164" on="0"/>
        <pt x="403" y="85" on="0"/>
        <pt x="335" y="26" on="0"/>
        <pt x="251" y="-8" on="0"/>
        <pt x="206" y="-8" on="1"/>
        <pt x="162" y="-8" on="0"/>
        <pt x="90" y="24" on="0"/>
        <pt x="65" y="53" on="1"/>
        <pt x="82" y="67" on="0"/>
        <pt x="117" y="95" on="0"/>
        <pt x="134" y="109" on="1"/>
        <pt x="149" y="92" on="0"/>
        <pt x="192" y="73" on="0"/>
        <pt x="218" y="73" on="1"/>
        <pt x="246" y="73" on="0"/>
        <pt x="298" y="95" on="0"/>
        <pt x="340" y="132" on="0"/>
        <pt x="369" y="181" on="0"/>
        <pt x="373" y="209" on="1"/>
        <pt x="377" y="237" on="0"/>
        <pt x="362" y="286" on="0"/>
        <pt x="330" y="322" on="0"/>
        <pt x="284" y="343" on="0"/>
        <pt x="256" y="343" on="1"/>
        <pt x="221" y="343" on="0"/>
        <pt x="160" y="320" on="0"/>
      </contour>
    </TTGlyph>
    <TTGlyph name="four" xMin="16" yMin="0" xMax="490" yMax="658">
      <contour>
        <pt x="330" y="413" on="1"/>
        <pt x="296" y="375" on="0"/>
        <pt x="229" y="302" on="0"/>
        <pt x="195" y="264" on="1"/>
        <pt x="309" y="264" on="1"/>
      </contour>
      <contour>
        <pt x="16" y="183" on="1"/>
        <pt x="125" y="302" on="0"/>
        <pt x="340" y="539" on="0"/>
        <pt x="449" y="658" on="1"/>
        <pt x="393" y="264" on="1"/>
        <pt x="490" y="264" on="1"/>
        <pt x="479" y="183" on="1"/>
        <pt x="382" y="183" on="1"/>
        <pt x="356" y="0" on="1"/>
        <pt x="272" y="0" on="1"/>
        <pt x="298" y="183" on="1"/>
      </contour>
    </TTGlyph>
    <TTGlyph name="g" xMin="65" yMin="-250" xMax="502" yMax="384">
      <contour>
        <pt x="159" y="188" on="1"/>
        <pt x="152" y="139" on="0"/>
        <pt x="208" y="72" on="0"/>
        <pt x="260" y="72" on="1"/>
        <pt x="286" y="72" on="0"/>
        <pt x="331" y="90" on="0"/>
        <pt x="367" y="121" on="0"/>
        <pt x="390" y="164" on="0"/>
        <pt x="393" y="188" on="1"/>
        <pt x="400" y="238" on="0"/>
        <pt x="344" y="303" on="0"/>
        <pt x="292" y="303" on="1"/>
        <pt x="266" y="303" on="0"/>
        <pt x="221" y="286" on="0"/>
        <pt x="185" y="255" on="0"/>
        <pt x="162" y="213" on="0"/>
      </contour>
      <contour>
        <pt x="433" y="375" on="1"/>
        <pt x="502" y="375" on="1"/>
        <pt x="447" y="-16" on="1"/>
        <pt x="441" y="-60" on="1"/>
        <pt x="435" y="-100" on="0"/>
        <pt x="394" y="-169" on="0"/>
        <pt x="334" y="-220" on="0"/>
        <pt x="257" y="-250" on="0"/>
        <pt x="215" y="-250" on="1"/>
        <pt x="170" y="-250" on="0"/>
        <pt x="92" y="-211" on="0"/>
        <pt x="65" y="-190" on="1"/>
        <pt x="81" y="-173" on="0"/>
        <pt x="113" y="-139" on="0"/>
        <pt x="129" y="-122" on="1"/>
        <pt x="147" y="-137" on="0"/>
        <pt x="196" y="-164" on="0"/>
        <pt x="225" y="-164" on="1"/>
        <pt x="251" y="-164" on="0"/>
        <pt x="297" y="-146" on="0"/>
        <pt x="333" y="-115" on="0"/>
        <pt x="357" y="-72" on="0"/>
        <pt x="360" y="-47" on="1"/>
        <pt x="369" y="20" on="1"/>
        <pt x="372" y="25" on="0"/>
        <pt x="378" y="34" on="0"/>
        <pt x="381" y="39" on="1"/>
        <pt x="377" y="35" on="0"/>
        <pt x="356" y="19" on="0"/>
        <pt x="321" y="4" on="0"/>
        <pt x="276" y="-8" on="0"/>
        <pt x="248" y="-8" on="1"/>
        <pt x="206" y="-8" on="0"/>
        <pt x="137" y="23" on="0"/>
        <pt x="90" y="76" on="0"/>
        <pt x="69" y="147" on="0"/>
        <pt x="75" y="187" on="1"/>
        <pt x="81" y="231" on="0"/>
        <pt x="121" y="303" on="0"/>
        <pt x="183" y="355" on="0"/>
        <pt x="261" y="384" on="0"/>
        <pt x="303" y="384" on="1"/>
        <pt x="330" y="384" on="0"/>
        <pt x="374" y="368" on="0"/>
        <pt x="405" y="349" on="0"/>
        <pt x="423" y="331" on="0"/>
        <pt x="423" y="328" on="1"/>
        <pt x="425" y="339" on="0"/>
        <pt x="431" y="363" on="0"/>
      </contour>
    </TTGlyph>
    <TTGlyph name="germandbls" xMin="10" yMin="-9" xMax="493" yMax="657">
      <contour>
        <pt x="152" y="9" on="1"/>
        <pt x="163" y="28" on="0"/>
        <pt x="186" y="64" on="0"/>
        <pt x="197" y="83" on="1"/>
        <pt x="221" y="72" on="0"/>
        <pt x="247" y="72" on="1"/>
        <pt x="275" y="72" on="0"/>
        <pt x="327" y="94" on="0"/>
        <pt x="370" y="131" on="0"/>
        <pt x="398" y="180" on="0"/>
        <pt x="402" y="208" on="1"/>
        <pt x="406" y="236" on="0"/>
        <pt x="391" y="285" on="0"/>
        <pt x="359" y="321" on="0"/>
        <pt x="312" y="342" on="0"/>
        <pt x="284" y="342" on="1"/>
        <pt x="283" y="342" on="1"/>
        <pt x="285" y="352" on="0"/>
        <pt x="286" y="371" on="0"/>
        <pt x="288" y="382" on="1"/>
        <pt x="293" y="423" on="1"/>
        <pt x="327" y="423" on="0"/>
        <pt x="379" y="462" on="0"/>
        <pt x="384" y="497" on="1"/>
        <pt x="386" y="513" on="0"/>
        <pt x="379" y="542" on="0"/>
        <pt x="361" y="564" on="0"/>
        <pt x="335" y="576" on="0"/>
        <pt x="319" y="576" on="1"/>
        <pt x="262" y="573" on="0"/>
        <pt x="179" y="492" on="0"/>
        <pt x="169" y="418" on="1"/>
        <pt x="110" y="0" on="1"/>
        <pt x="27" y="0" on="1"/>
        <pt x="74" y="334" on="1"/>
        <pt x="10" y="334" on="1"/>
        <pt x="21" y="415" on="1"/>
        <pt x="85" y="415" on="1"/>
        <pt x="86" y="423" on="1"/>
        <pt x="94" y="477" on="0"/>
        <pt x="141" y="564" on="0"/>
        <pt x="207" y="625" on="0"/>
        <pt x="288" y="657" on="0"/>
        <pt x="329" y="657" on="1"/>
        <pt x="362" y="657" on="0"/>
        <pt x="417" y="632" on="0"/>
        <pt x="454" y="588" on="0"/>
        <pt x="471" y="530" on="0"/>
        <pt x="467" y="497" on="1"/>
        <pt x="462" y="465" on="0"/>
        <pt x="431" y="410" on="0"/>
        <pt x="408" y="390" on="1"/>
        <pt x="450" y="361" on="0"/>
        <pt x="493" y="266" on="0"/>
        <pt x="485" y="208" on="1"/>
        <pt x="479" y="163" on="0"/>
        <pt x="433" y="84" on="0"/>
        <pt x="365" y="25" on="0"/>
        <pt x="281" y="-9" on="0"/>
        <pt x="236" y="-9" on="1"/>
        <pt x="189" y="-9" on="0"/>
      </contour>
    </TTGlyph>
    <TTGlyph name="grave" xMin="-41" yMin="479" xMax="113" yMax="612">
      <contour>
        <pt x="42" y="612" on="1"/>
        <pt x="60" y="579" on="0"/>
        <pt x="95" y="512" on="0"/>
        <pt x="113" y="479" on="1"/>
        <pt x="54" y="479" on="1"/>
        <pt x="30" y="512" on="0"/>
        <pt x="-17" y="579" on="0"/>
        <pt x="-41" y="612" on="1"/>
      </contour>
    </TTGlyph>
    <TTGlyph name="greater" xMin="80" yMin="-14" xMax="553" yMax="490">
      <contour>
        <pt x="80" y="-14" on="1"/>
        <pt x="96" y="99" on="1"/>
        <pt x="161" y="134" on="0"/>
        <pt x="291" y="203" on="0"/>
        <pt x="357" y="238" on="1"/>
        <pt x="301" y="273" on="0"/>
        <pt x="191" y="342" on="0"/>
        <pt x="135" y="377" on="1"/>
        <pt x="151" y="490" on="1"/>
        <pt x="252" y="427" on="0"/>
        <pt x="451" y="301" on="0"/>
        <pt x="553" y="238" on="1"/>
        <pt x="434" y="175" on="0"/>
        <pt x="199" y="49" on="0"/>
      </contour>
    </TTGlyph>
    <TTGlyph name="guillemotleft" xMin="117" yMin="77" xMax="481" yMax="400">
      <contour>
        <pt x="436" y="77" on="1"/>
        <pt x="288" y="239" on="1"/>
        <pt x="336" y="280" on="0"/>
        <pt x="433" y="359" on="0"/>
        <pt x="481" y="400" on="1"/>
        <pt x="468" y="306" on="1"/>
        <pt x="449" y="289" on="0"/>
        <pt x="413" y="256" on="0"/>
        <pt x="394" y="239" on="1"/>
        <pt x="408" y="222" on="0"/>
        <pt x="435" y="189" on="0"/>
        <pt x="449" y="172" on="1"/>
      </contour>
      <contour>
        <pt x="265" y="77" on="1"/>
        <pt x="117" y="239" on="1"/>
        <pt x="165" y="280" on="0"/>
        <pt x="262" y="359" on="0"/>
        <pt x="310" y="400" on="1"/>
        <pt x="297" y="305" on="1"/>
        <pt x="278" y="288" on="0"/>
        <pt x="242" y="256" on="0"/>
        <pt x="223" y="239" on="1"/>
        <pt x="237" y="222" on="0"/>
        <pt x="264" y="189" on="0"/>
        <pt x="278" y="172" on="1"/>
      </contour>
    </TTGlyph>
    <TTGlyph name="guillemotright" xMin="94" yMin="77" xMax="459" yMax="400">
      <contour>
        <pt x="107" y="172" on="1"/>
        <pt x="126" y="189" on="0"/>
        <pt x="162" y="222" on="0"/>
        <pt x="182" y="239" on="1"/>
        <pt x="168" y="256" on="0"/>
        <pt x="140" y="289" on="0"/>
        <pt x="126" y="306" on="1"/>
        <pt x="139" y="400" on="1"/>
        <pt x="177" y="359" on="0"/>
        <pt x="250" y="280" on="0"/>
        <pt x="288" y="239" on="1"/>
        <pt x="94" y="77" on="1"/>
      </contour>
      <contour>
        <pt x="278" y="172" on="1"/>
        <pt x="297" y="189" on="0"/>
        <pt x="333" y="222" on="0"/>
        <pt x="353" y="239" on="1"/>
        <pt x="339" y="256" on="0"/>
        <pt x="311" y="288" on="0"/>
        <pt x="297" y="305" on="1"/>
        <pt x="310" y="400" on="1"/>
        <pt x="348" y="359" on="0"/>
        <pt x="421" y="280" on="0"/>
        <pt x="459" y="239" on="1"/>
        <pt x="265" y="77" on="1"/>
      </contour>
    </TTGlyph>
    <TTGlyph name="guilsinglleft" xMin="117" yMin="77" xMax="310" yMax="400">
      <contour>
        <pt x="265" y="77" on="1"/>
        <pt x="117" y="239" on="1"/>
        <pt x="165" y="280" on="0"/>
        <pt x="262" y="359" on="0"/>
        <pt x="310" y="400" on="1"/>
        <pt x="297" y="305" on="1"/>
        <pt x="278" y="288" on="0"/>
        <pt x="242" y="256" on="0"/>
        <pt x="223" y="239" on="1"/>
        <pt x="237" y="222" on="0"/>
        <pt x="264" y="189" on="0"/>
        <pt x="278" y="172" on="1"/>
      </contour>
    </TTGlyph>
    <TTGlyph name="guilsinglright" xMin="94" yMin="77" xMax="288" yMax="400">
      <contour>
        <pt x="107" y="172" on="1"/>
        <pt x="126" y="189" on="0"/>
        <pt x="162" y="222" on="0"/>
        <pt x="182" y="239" on="1"/>
        <pt x="168" y="256" on="0"/>
        <pt x="140" y="288" on="0"/>
        <pt x="126" y="305" on="1"/>
        <pt x="139" y="400" on="1"/>
        <pt x="177" y="359" on="0"/>
        <pt x="250" y="280" on="0"/>
        <pt x="288" y="239" on="1"/>
        <pt x="94" y="77" on="1"/>
      </contour>
    </TTGlyph>
    <TTGlyph name="h" xMin="82" yMin="0" xMax="497" yMax="750">
      <contour>
        <pt x="187" y="750" on="1"/>
        <pt x="270" y="750" on="1"/>
        <pt x="210" y="324" on="1"/>
        <pt x="201" y="279" on="1"/>
        <pt x="230" y="328" on="0"/>
        <pt x="321" y="381" on="0"/>
        <pt x="378" y="384" on="1"/>
        <pt x="437" y="384" on="0"/>
        <pt x="497" y="322" on="0"/>
        <pt x="492" y="272" on="1"/>
        <pt x="454" y="0" on="1"/>
        <pt x="371" y="0" on="1"/>
        <pt x="403" y="234" on="1"/>
        <pt x="405" y="261" on="0"/>
        <pt x="376" y="300" on="0"/>
        <pt x="338" y="302" on="1"/>
        <pt x="312" y="302" on="0"/>
        <pt x="262" y="284" on="0"/>
        <pt x="222" y="252" on="0"/>
        <pt x="194" y="208" on="0"/>
        <pt x="190" y="182" on="1"/>
        <pt x="165" y="0" on="1"/>
        <pt x="82" y="0" on="1"/>
      </contour>
    </TTGlyph>
    <TTGlyph name="hyphen" xMin="47" yMin="147" xMax="242" yMax="228">
      <contour>
        <pt x="47" y="147" on="1"/>
        <pt x="58" y="228" on="1"/>
        <pt x="242" y="228" on="1"/>
        <pt x="231" y="147" on="1"/>
      </contour>
    </TTGlyph>
    <TTGlyph name="i" xMin="58" yMin="0" xMax="228" yMax="573">
      <contour>
        <pt x="122" y="520" on="1"/>
        <pt x="125" y="543" on="0"/>
        <pt x="161" y="573" on="0"/>
        <pt x="181" y="573" on="1"/>
        <pt x="200" y="573" on="0"/>
        <pt x="228" y="543" on="0"/>
        <pt x="225" y="520" on="1"/>
        <pt x="221" y="497" on="0"/>
        <pt x="185" y="468" on="0"/>
        <pt x="166" y="468" on="1"/>
        <pt x="146" y="468" on="0"/>
        <pt x="118" y="497" on="0"/>
      </contour>
      <contour>
        <pt x="141" y="0" on="1"/>
        <pt x="58" y="0" on="1"/>
        <pt x="110" y="375" on="1"/>
        <pt x="193" y="375" on="1"/>
      </contour>
    </TTGlyph>
    <TTGlyph name="iacute" xMin="58" yMin="0" xMax="330" yMax="612">
      <contour>
        <pt x="141" y="0" on="1"/>
        <pt x="58" y="0" on="1"/>
        <pt x="110" y="375" on="1"/>
        <pt x="193" y="375" on="1"/>
      </contour>
      <contour>
        <pt x="137" y="479" on="1"/>
        <pt x="164" y="512" on="0"/>
        <pt x="219" y="579" on="0"/>
        <pt x="246" y="612" on="1"/>
        <pt x="330" y="612" on="1"/>
        <pt x="297" y="579" on="0"/>
        <pt x="229" y="512" on="0"/>
        <pt x="196" y="479" on="1"/>
      </contour>
    </TTGlyph>
    <TTGlyph name="icircumflex" xMin="56" yMin="0" xMax="296" yMax="660">
      <contour>
        <pt x="158" y="0" on="1"/>
        <pt x="75" y="0" on="1"/>
        <pt x="127" y="375" on="1"/>
        <pt x="210" y="375" on="1"/>
      </contour>
      <contour>
        <pt x="201" y="660" on="1"/>
        <pt x="225" y="615" on="0"/>
        <pt x="272" y="524" on="0"/>
        <pt x="296" y="479" on="1"/>
        <pt x="237" y="479" on="1"/>
        <pt x="186" y="551" on="1"/>
        <pt x="169" y="533" on="0"/>
        <pt x="132" y="497" on="0"/>
        <pt x="115" y="479" on="1"/>
        <pt x="56" y="479" on="1"/>
        <pt x="92" y="524" on="0"/>
        <pt x="165" y="615" on="0"/>
      </contour>
    </TTGlyph>
    <TTGlyph name="idieresis" xMin="67" yMin="0" xMax="343" yMax="573">
      <contour>
        <pt x="182" y="0" on="1"/>
        <pt x="99" y="0" on="1"/>
        <pt x="151" y="375" on="1"/>
        <pt x="234" y="375" on="1"/>
      </contour>
      <contour>
        <pt x="236" y="520" on="1"/>
        <pt x="240" y="543" on="0"/>
        <pt x="276" y="573" on="0"/>
        <pt x="296" y="573" on="1"/>
        <pt x="315" y="573" on="0"/>
        <pt x="343" y="543" on="0"/>
        <pt x="339" y="520" on="1"/>
        <pt x="336" y="497" on="0"/>
        <pt x="300" y="468" on="0"/>
        <pt x="281" y="468" on="1"/>
        <pt x="261" y="468" on="0"/>
        <pt x="233" y="497" on="0"/>
      </contour>
      <contour>
        <pt x="70" y="520" on="1"/>
        <pt x="74" y="543" on="0"/>
        <pt x="110" y="573" on="0"/>
        <pt x="130" y="573" on="1"/>
        <pt x="149" y="573" on="0"/>
        <pt x="177" y="543" on="0"/>
        <pt x="173" y="520" on="1"/>
        <pt x="170" y="497" on="0"/>
        <pt x="134" y="468" on="0"/>
        <pt x="115" y="468" on="1"/>
        <pt x="95" y="468" on="0"/>
        <pt x="67" y="497" on="0"/>
      </contour>
    </TTGlyph>
    <TTGlyph name="igrave" xMin="35" yMin="0" xMax="193" yMax="612">
      <contour>
        <pt x="141" y="0" on="1"/>
        <pt x="58" y="0" on="1"/>
        <pt x="110" y="375" on="1"/>
        <pt x="193" y="375" on="1"/>
      </contour>
      <contour>
        <pt x="118" y="612" on="1"/>
        <pt x="136" y="579" on="0"/>
        <pt x="171" y="512" on="0"/>
        <pt x="189" y="479" on="1"/>
        <pt x="130" y="479" on="1"/>
        <pt x="106" y="512" on="0"/>
        <pt x="59" y="579" on="0"/>
        <pt x="35" y="612" on="1"/>
      </contour>
    </TTGlyph>
    <TTGlyph name="j" xMin="4" yMin="-181" xMax="247" yMax="573">
      <contour>
        <pt x="141" y="520" on="1"/>
        <pt x="144" y="543" on="0"/>
        <pt x="180" y="573" on="0"/>
        <pt x="200" y="573" on="1"/>
        <pt x="219" y="573" on="0"/>
        <pt x="247" y="543" on="0"/>
        <pt x="244" y="520" on="1"/>
        <pt x="240" y="497" on="0"/>
        <pt x="204" y="468" on="0"/>
        <pt x="185" y="468" on="1"/>
        <pt x="165" y="468" on="0"/>
        <pt x="137" y="497" on="0"/>
      </contour>
      <contour>
        <pt x="52" y="-181" on="1"/>
        <pt x="40" y="-165" on="0"/>
        <pt x="16" y="-135" on="0"/>
        <pt x="4" y="-119" on="1"/>
        <pt x="63" y="-77" on="0"/>
        <pt x="75" y="3" on="1"/>
        <pt x="127" y="376" on="1"/>
        <pt x="148" y="376" on="0"/>
        <pt x="189" y="375" on="0"/>
        <pt x="210" y="375" on="1"/>
        <pt x="158" y="0" on="1"/>
        <pt x="149" y="-61" on="0"/>
        <pt x="94" y="-152" on="0"/>
      </contour>
    </TTGlyph>
    <TTGlyph name="k" xMin="58" yMin="0" xMax="423" yMax="750">
      <contour>
        <pt x="380" y="384" on="1"/>
        <pt x="391" y="372" on="0"/>
        <pt x="412" y="347" on="0"/>
        <pt x="423" y="335" on="1"/>
        <pt x="385" y="303" on="0"/>
        <pt x="316" y="246" on="0"/>
        <pt x="278" y="214" on="1"/>
        <pt x="310" y="160" on="0"/>
        <pt x="372" y="54" on="0"/>
        <pt x="404" y="0" on="1"/>
        <pt x="308" y="0" on="1"/>
        <pt x="284" y="40" on="0"/>
        <pt x="236" y="120" on="0"/>
        <pt x="212" y="160" on="1"/>
        <pt x="198" y="149" on="0"/>
        <pt x="171" y="125" on="0"/>
        <pt x="157" y="114" on="1"/>
        <pt x="141" y="0" on="1"/>
        <pt x="58" y="0" on="1"/>
        <pt x="163" y="750" on="1"/>
        <pt x="246" y="750" on="1"/>
        <pt x="170" y="211" on="1"/>
        <pt x="225" y="256" on="0"/>
        <pt x="326" y="339" on="0"/>
      </contour>
    </TTGlyph>
    <TTGlyph name="l" xMin="58" yMin="0" xMax="246" yMax="750">
      <contour>
        <pt x="141" y="0" on="1"/>
        <pt x="58" y="0" on="1"/>
        <pt x="163" y="750" on="1"/>
        <pt x="246" y="750" on="1"/>
      </contour>
    </TTGlyph>
    <TTGlyph name="less" xMin="116" yMin="-14" xMax="588" yMax="490">
      <contour>
        <pt x="533" y="99" on="1"/>
        <pt x="517" y="-14" on="1"/>
        <pt x="416" y="49" on="0"/>
        <pt x="217" y="175" on="0"/>
        <pt x="116" y="238" on="1"/>
        <pt x="234" y="301" on="0"/>
        <pt x="469" y="427" on="0"/>
        <pt x="588" y="490" on="1"/>
        <pt x="572" y="377" on="1"/>
        <pt x="507" y="342" on="0"/>
        <pt x="377" y="273" on="0"/>
        <pt x="312" y="238" on="1"/>
        <pt x="367" y="203" on="0"/>
        <pt x="477" y="134" on="0"/>
      </contour>
    </TTGlyph>
    <TTGlyph name="logicalnot" xMin="98" yMin="148" xMax="467" yMax="248">
      <contour>
        <pt x="368" y="148" on="1"/>
        <pt x="374" y="188" on="1"/>
        <pt x="98" y="188" on="1"/>
        <pt x="107" y="248" on="1"/>
        <pt x="467" y="248" on="1"/>
        <pt x="452" y="148" on="1"/>
      </contour>
    </TTGlyph>
    <TTGlyph name="m" xMin="82" yMin="0" xMax="786" yMax="384">
      <contour>
        <pt x="134" y="375" on="1"/>
        <pt x="207" y="375" on="1"/>
        <pt x="206" y="366" on="1"/>
        <pt x="204" y="342" on="0"/>
        <pt x="203" y="303" on="0"/>
        <pt x="201" y="279" on="1"/>
        <pt x="229" y="327" on="0"/>
        <pt x="321" y="382" on="0"/>
        <pt x="378" y="384" on="1"/>
        <pt x="433" y="384" on="0"/>
        <pt x="493" y="329" on="0"/>
        <pt x="492" y="284" on="1"/>
        <pt x="521" y="330" on="0"/>
        <pt x="612" y="382" on="0"/>
        <pt x="667" y="384" on="1"/>
        <pt x="726" y="384" on="0"/>
        <pt x="786" y="322" on="0"/>
        <pt x="781" y="272" on="1"/>
        <pt x="743" y="0" on="1"/>
        <pt x="660" y="0" on="1"/>
        <pt x="692" y="234" on="1"/>
        <pt x="694" y="261" on="0"/>
        <pt x="665" y="300" on="0"/>
        <pt x="627" y="302" on="1"/>
        <pt x="601" y="302" on="0"/>
        <pt x="551" y="284" on="0"/>
        <pt x="511" y="252" on="0"/>
        <pt x="483" y="208" on="0"/>
        <pt x="479" y="182" on="1"/>
        <pt x="454" y="0" on="1"/>
        <pt x="371" y="0" on="1"/>
        <pt x="403" y="234" on="1"/>
        <pt x="405" y="261" on="0"/>
        <pt x="376" y="300" on="0"/>
        <pt x="338" y="302" on="1"/>
        <pt x="312" y="302" on="0"/>
        <pt x="262" y="284" on="0"/>
        <pt x="222" y="252" on="0"/>
        <pt x="194" y="208" on="0"/>
        <pt x="190" y="182" on="1"/>
        <pt x="165" y="0" on="1"/>
        <pt x="82" y="0" on="1"/>
      </contour>
    </TTGlyph>
    <TTGlyph name="macron" xMin="81" yMin="478" xMax="318" yMax="531">
      <contour>
        <pt x="81" y="478" on="1"/>
        <pt x="88" y="531" on="1"/>
        <pt x="318" y="531" on="1"/>
        <pt x="311" y="478" on="1"/>
      </contour>
    </TTGlyph>
    <TTGlyph name="mu" xMin="41" yMin="-201" xMax="494" yMax="375">
      <contour>
        <pt x="440" y="-9" on="1"/>
        <pt x="357" y="-9" on="1"/>
        <pt x="365" y="51" on="1"/>
        <pt x="375" y="96" on="1"/>
        <pt x="347" y="48" on="0"/>
        <pt x="254" y="-7" on="0"/>
        <pt x="197" y="-9" on="1"/>
        <pt x="171" y="-9" on="0"/>
        <pt x="152" y="-3" on="1"/>
        <pt x="124" y="-201" on="1"/>
        <pt x="41" y="-201" on="1"/>
        <pt x="122" y="375" on="1"/>
        <pt x="205" y="375" on="1"/>
        <pt x="172" y="141" on="1"/>
        <pt x="170" y="114" on="0"/>
        <pt x="200" y="75" on="0"/>
        <pt x="238" y="73" on="1"/>
        <pt x="264" y="73" on="0"/>
        <pt x="314" y="91" on="0"/>
        <pt x="354" y="123" on="0"/>
        <pt x="382" y="167" on="0"/>
        <pt x="385" y="193" on="1"/>
        <pt x="411" y="375" on="1"/>
        <pt x="494" y="375" on="1"/>
      </contour>
    </TTGlyph>
    <TTGlyph name="multiply" xMin="96" yMin="0" xMax="435" yMax="314">
      <contour>
        <pt x="341" y="0" on="1"/>
        <pt x="320" y="25" on="0"/>
        <pt x="278" y="73" on="0"/>
        <pt x="256" y="98" on="1"/>
        <pt x="229" y="74" on="0"/>
        <pt x="173" y="25" on="0"/>
        <pt x="146" y="1" on="1"/>
        <pt x="133" y="15" on="0"/>
        <pt x="108" y="44" on="0"/>
        <pt x="96" y="58" on="1"/>
        <pt x="124" y="83" on="0"/>
        <pt x="179" y="131" on="0"/>
        <pt x="207" y="156" on="1"/>
        <pt x="122" y="255" on="1"/>
        <pt x="190" y="314" on="1"/>
        <pt x="275" y="215" on="1"/>
        <pt x="303" y="240" on="0"/>
        <pt x="358" y="288" on="0"/>
        <pt x="386" y="313" on="1"/>
        <pt x="399" y="299" on="0"/>
        <pt x="423" y="269" on="0"/>
        <pt x="435" y="255" on="1"/>
        <pt x="408" y="231" on="0"/>
        <pt x="352" y="182" on="0"/>
        <pt x="325" y="158" on="1"/>
        <pt x="346" y="133" on="0"/>
        <pt x="387" y="84" on="0"/>
        <pt x="409" y="59" on="1"/>
      </contour>
    </TTGlyph>
    <TTGlyph name="n" xMin="82" yMin="0" xMax="497" yMax="384">
      <contour>
        <pt x="134" y="375" on="1"/>
        <pt x="207" y="375" on="1"/>
        <pt x="206" y="366" on="1"/>
        <pt x="204" y="342" on="0"/>
        <pt x="203" y="303" on="0"/>
        <pt x="201" y="279" on="1"/>
        <pt x="228" y="327" on="0"/>
        <pt x="324" y="384" on="0"/>
        <pt x="378" y="384" on="1"/>
        <pt x="437" y="384" on="0"/>
        <pt x="497" y="322" on="0"/>
        <pt x="492" y="272" on="1"/>
        <pt x="454" y="0" on="1"/>
        <pt x="371" y="0" on="1"/>
        <pt x="403" y="234" on="1"/>
        <pt x="405" y="261" on="0"/>
        <pt x="376" y="300" on="0"/>
        <pt x="338" y="302" on="1"/>
        <pt x="312" y="302" on="0"/>
        <pt x="262" y="284" on="0"/>
        <pt x="222" y="252" on="0"/>
        <pt x="194" y="208" on="0"/>
        <pt x="190" y="182" on="1"/>
        <pt x="165" y="0" on="1"/>
        <pt x="82" y="0" on="1"/>
      </contour>
    </TTGlyph>
    <TTGlyph name="nine" xMin="34" yMin="-9" xMax="482" yMax="636">
      <contour>
        <pt x="390" y="419" on="1"/>
        <pt x="394" y="447" on="0"/>
        <pt x="381" y="496" on="0"/>
        <pt x="350" y="533" on="0"/>
        <pt x="305" y="555" on="0"/>
        <pt x="278" y="555" on="1"/>
        <pt x="250" y="555" on="0"/>
        <pt x="198" y="533" on="0"/>
        <pt x="156" y="496" on="0"/>
        <pt x="127" y="447" on="0"/>
        <pt x="123" y="419" on="1"/>
        <pt x="119" y="391" on="0"/>
        <pt x="134" y="342" on="0"/>
        <pt x="166" y="306" on="0"/>
        <pt x="212" y="285" on="0"/>
        <pt x="240" y="285" on="1"/>
        <pt x="267" y="285" on="0"/>
        <pt x="318" y="306" on="0"/>
        <pt x="359" y="342" on="0"/>
        <pt x="386" y="391" on="0"/>
      </contour>
      <contour>
        <pt x="476" y="419" on="1"/>
        <pt x="467" y="351" on="0"/>
        <pt x="387" y="229" on="0"/>
        <pt x="274" y="122" on="0"/>
        <pt x="144" y="30" on="0"/>
        <pt x="85" y="-9" on="1"/>
        <pt x="74" y="7" on="0"/>
        <pt x="53" y="39" on="0"/>
        <pt x="42" y="55" on="1"/>
        <pt x="113" y="98" on="0"/>
        <pt x="214" y="173" on="0"/>
        <pt x="250" y="205" on="1"/>
        <pt x="245" y="204" on="0"/>
        <pt x="234" y="204" on="0"/>
        <pt x="229" y="204" on="1"/>
        <pt x="184" y="204" on="0"/>
        <pt x="109" y="237" on="0"/>
        <pt x="58" y="296" on="0"/>
        <pt x="34" y="374" on="0"/>
        <pt x="40" y="419" on="1"/>
        <pt x="46" y="464" on="0"/>
        <pt x="93" y="543" on="0"/>
        <pt x="161" y="602" on="0"/>
        <pt x="245" y="636" on="0"/>
        <pt x="290" y="636" on="1"/>
        <pt x="335" y="636" on="0"/>
        <pt x="409" y="601" on="0"/>
        <pt x="459" y="542" on="0"/>
        <pt x="482" y="463" on="0"/>
      </contour>
    </TTGlyph>
    <TTGlyph name="ntilde" xMin="82" yMin="0" xMax="513" yMax="546">
      <component glyphName="n" x="0" y="0" flags="0x4"/>
      <component glyphName="asciitilde" x="70" y="-6" flags="0x4"/>
    </TTGlyph>
    <TTGlyph name="numbersign" xMin="6" yMin="0" xMax="536" yMax="643">
      <contour>
        <pt x="229" y="371" on="1"/>
        <pt x="223" y="345" on="0"/>
        <pt x="210" y="295" on="0"/>
        <pt x="203" y="269" on="1"/>
        <pt x="303" y="269" on="1"/>
        <pt x="310" y="295" on="0"/>
        <pt x="323" y="345" on="0"/>
        <pt x="329" y="371" on="1"/>
      </contour>
      <contour>
        <pt x="233" y="0" on="1"/>
        <pt x="245" y="48" on="0"/>
        <pt x="270" y="140" on="0"/>
        <pt x="282" y="188" on="1"/>
        <pt x="182" y="188" on="1"/>
        <pt x="170" y="140" on="0"/>
        <pt x="145" y="48" on="0"/>
        <pt x="133" y="0" on="1"/>
        <pt x="49" y="0" on="1"/>
        <pt x="61" y="48" on="0"/>
        <pt x="86" y="140" on="0"/>
        <pt x="98" y="188" on="1"/>
        <pt x="6" y="188" on="1"/>
        <pt x="27" y="269" on="1"/>
        <pt x="119" y="269" on="1"/>
        <pt x="126" y="295" on="0"/>
        <pt x="139" y="345" on="0"/>
        <pt x="145" y="371" on="1"/>
        <pt x="54" y="371" on="1"/>
        <pt x="59" y="391" on="0"/>
        <pt x="69" y="432" on="0"/>
        <pt x="74" y="452" on="1"/>
        <pt x="166" y="452" on="1"/>
        <pt x="179" y="500" on="0"/>
        <pt x="204" y="595" on="0"/>
        <pt x="217" y="643" on="1"/>
        <pt x="301" y="643" on="1"/>
        <pt x="288" y="595" on="0"/>
        <pt x="263" y="500" on="0"/>
        <pt x="250" y="452" on="1"/>
        <pt x="350" y="452" on="1"/>
        <pt x="363" y="500" on="0"/>
        <pt x="388" y="595" on="0"/>
        <pt x="401" y="643" on="1"/>
        <pt x="485" y="643" on="1"/>
        <pt x="472" y="595" on="0"/>
        <pt x="447" y="500" on="0"/>
        <pt x="434" y="452" on="1"/>
        <pt x="536" y="452" on="1"/>
        <pt x="531" y="432" on="0"/>
        <pt x="521" y="391" on="0"/>
        <pt x="516" y="371" on="1"/>
        <pt x="413" y="371" on="1"/>
        <pt x="407" y="345" on="0"/>
        <pt x="394" y="295" on="0"/>
        <pt x="387" y="269" on="1"/>
        <pt x="489" y="269" on="1"/>
        <pt x="468" y="188" on="1"/>
        <pt x="366" y="188" on="1"/>
        <pt x="354" y="140" on="0"/>
        <pt x="329" y="48" on="0"/>
        <pt x="317" y="0" on="1"/>
      </contour>
    </TTGlyph>
    <TTGlyph name="o" xMin="56" yMin="-9" xMax="469" yMax="384">
      <contour>
        <pt x="62" y="188" on="1"/>
        <pt x="68" y="235" on="0"/>
        <pt x="109" y="308" on="0"/>
        <pt x="170" y="358" on="0"/>
        <pt x="247" y="384" on="0"/>
        <pt x="289" y="384" on="1"/>
        <pt x="331" y="384" on="0"/>
        <pt x="401" y="353" on="0"/>
        <pt x="447" y="300" on="0"/>
        <pt x="469" y="228" on="0"/>
        <pt x="463" y="188" on="1"/>
        <pt x="457" y="144" on="0"/>
        <pt x="416" y="72" on="0"/>
        <pt x="354" y="20" on="0"/>
        <pt x="276" y="-9" on="0"/>
        <pt x="234" y="-9" on="1"/>
        <pt x="192" y="-9" on="0"/>
        <pt x="124" y="22" on="0"/>
        <pt x="77" y="76" on="0"/>
        <pt x="56" y="147" on="0"/>
      </contour>
      <contour>
        <pt x="145" y="187" on="1"/>
        <pt x="142" y="163" on="0"/>
        <pt x="154" y="121" on="0"/>
        <pt x="181" y="90" on="0"/>
        <pt x="220" y="72" on="0"/>
        <pt x="244" y="72" on="1"/>
        <pt x="268" y="72" on="0"/>
        <pt x="313" y="90" on="0"/>
        <pt x="349" y="121" on="0"/>
        <pt x="373" y="163" on="0"/>
        <pt x="376" y="187" on="1"/>
        <pt x="379" y="211" on="0"/>
        <pt x="367" y="253" on="0"/>
        <pt x="340" y="285" on="0"/>
        <pt x="300" y="303" on="0"/>
        <pt x="276" y="303" on="1"/>
        <pt x="252" y="303" on="0"/>
        <pt x="208" y="285" on="0"/>
        <pt x="172" y="253" on="0"/>
        <pt x="148" y="211" on="0"/>
      </contour>
    </TTGlyph>
    <TTGlyph name="oacute" xMin="56" yMin="-9" xMax="487" yMax="612">
      <component glyphName="o" x="0" y="0" flags="0x4"/>
      <component glyphName="acute" x="204" y="0" flags="0x4"/>
    </TTGlyph>
    <TTGlyph name="ocircumflex" xMin="56" yMin="-9" xMax="469" yMax="660">
      <component glyphName="o" x="0" y="0" flags="0x4"/>
      <component glyphName="asciicircum" x="75" y="0" flags="0x4"/>
    </TTGlyph>
    <TTGlyph name="odieresis" xMin="56" yMin="-9" xMax="469" yMax="573">
      <component glyphName="o" x="0" y="0" flags="0x4"/>
      <component glyphName="dieresis" x="111" y="0" flags="0x4"/>
    </TTGlyph>
    <TTGlyph name="ograve" xMin="56" yMin="-9" xMax="469" yMax="612">
      <component glyphName="o" x="0" y="0" flags="0x4"/>
      <component glyphName="grave" x="212" y="0" flags="0x4"/>
    </TTGlyph>
    <TTGlyph name="one" xMin="56" yMin="0" xMax="231" yMax="650">
      <contour>
        <pt x="68" y="569" on="1"/>
        <pt x="79" y="650" on="1"/>
        <pt x="231" y="650" on="1"/>
        <pt x="140" y="0" on="1"/>
        <pt x="56" y="0" on="1"/>
        <pt x="136" y="569" on="1"/>
      </contour>
    </TTGlyph>
    <TTGlyph name="onehalf" xMin="136" yMin="-19" xMax="852" yMax="736">
      <component glyphName="one" x="97" y="234" scalex="0.709899902344" scaley="0.709716796875" flags="0x4"/>
      <component glyphName="two" x="510" y="0" scalex="0.708312988281" scaley="0.709716796875" flags="0x4"/>
      <component glyphName="slash" x="239" y="0" flags="0x4"/>
    </TTGlyph>
    <TTGlyph name="onequarter" xMin="136" yMin="-19" xMax="839" yMax="736">
      <component glyphName="slash" x="239" y="0" flags="0x4"/>
      <component glyphName="four" x="474" y="0" scalex="0.742980957031" scaley="0.744689941406" flags="0x4"/>
      <component glyphName="one" x="97" y="234" scalex="0.709899902344" scaley="0.709716796875" flags="0x4"/>
    </TTGlyph>
    <TTGlyph name="onesuperior" xMin="67" yMin="401" xMax="149" yMax="700">
      <component glyphName="one" x="42" y="401" scalex="0.460510253906" scaley="0.460021972656" flags="0x4"/>
    </TTGlyph>
    <TTGlyph name="ordfeminine" xMin="107" yMin="299" xMax="421" yMax="583">
      <component glyphName="a" x="58" y="306" scalex="0.721374511719" scaley="0.721252441406" flags="0x4"/>
    </TTGlyph>
    <TTGlyph name="ordmasculine" xMin="105" yMin="299" xMax="404" yMax="583">
      <component glyphName="o" x="65" y="306" scale="0.721252441406" flags="0x4"/>
    </TTGlyph>
    <TTGlyph name="oslash" xMin="14" yMin="-26" xMax="442" yMax="401">
      <contour>
        <pt x="119" y="188" on="1"/>
        <pt x="113" y="153" on="0"/>
        <pt x="127" y="125" on="1"/>
        <pt x="297" y="295" on="1"/>
        <pt x="275" y="303" on="0"/>
        <pt x="252" y="303" on="1"/>
        <pt x="226" y="303" on="0"/>
        <pt x="181" y="286" on="0"/>
        <pt x="145" y="255" on="0"/>
        <pt x="122" y="213" on="0"/>
      </contour>
      <contour>
        <pt x="219" y="72" on="1"/>
        <pt x="245" y="72" on="0"/>
        <pt x="290" y="90" on="0"/>
        <pt x="326" y="121" on="0"/>
        <pt x="349" y="164" on="0"/>
        <pt x="353" y="188" on="1"/>
        <pt x="358" y="229" on="0"/>
        <pt x="340" y="259" on="1"/>
        <pt x="295" y="215" on="0"/>
        <pt x="209" y="129" on="0"/>
        <pt x="165" y="85" on="1"/>
        <pt x="189" y="72" on="0"/>
      </contour>
      <contour>
        <pt x="36" y="188" on="1"/>
        <pt x="42" y="228" on="0"/>
        <pt x="83" y="300" on="0"/>
        <pt x="144" y="353" on="0"/>
        <pt x="221" y="384" on="0"/>
        <pt x="263" y="384" on="1"/>
        <pt x="319" y="384" on="0"/>
        <pt x="359" y="358" on="1"/>
        <pt x="370" y="369" on="0"/>
        <pt x="392" y="390" on="0"/>
        <pt x="403" y="401" on="1"/>
        <pt x="413" y="391" on="0"/>
        <pt x="432" y="371" on="0"/>
        <pt x="442" y="361" on="1"/>
        <pt x="402" y="321" on="1"/>
        <pt x="423" y="295" on="0"/>
        <pt x="442" y="226" on="0"/>
        <pt x="437" y="188" on="1"/>
        <pt x="431" y="147" on="0"/>
        <pt x="390" y="76" on="0"/>
        <pt x="328" y="22" on="0"/>
        <pt x="250" y="-9" on="0"/>
        <pt x="208" y="-9" on="1"/>
        <pt x="177" y="-9" on="0"/>
        <pt x="125" y="8" on="0"/>
        <pt x="103" y="23" on="1"/>
        <pt x="91" y="11" on="0"/>
        <pt x="67" y="-14" on="0"/>
        <pt x="54" y="-26" on="1"/>
        <pt x="44" y="-16" on="0"/>
        <pt x="24" y="2" on="0"/>
        <pt x="14" y="12" on="1"/>
        <pt x="26" y="25" on="0"/>
        <pt x="51" y="49" on="0"/>
        <pt x="64" y="62" on="1"/>
        <pt x="46" y="88" on="0"/>
        <pt x="31" y="152" on="0"/>
      </contour>
    </TTGlyph>
    <TTGlyph name="otilde" xMin="56" yMin="-9" xMax="469" yMax="552">
      <component glyphName="o" x="0" y="0" flags="0x4"/>
      <component glyphName="asciitilde" x="15" y="0" flags="0x4"/>
    </TTGlyph>
    <TTGlyph name="p" xMin="31" yMin="-250" xMax="500" yMax="384">
      <contour>
        <pt x="410" y="188" on="1"/>
        <pt x="417" y="238" on="0"/>
        <pt x="361" y="303" on="0"/>
        <pt x="309" y="303" on="1"/>
        <pt x="283" y="303" on="0"/>
        <pt x="238" y="286" on="0"/>
        <pt x="202" y="255" on="0"/>
        <pt x="179" y="213" on="0"/>
        <pt x="176" y="188" on="1"/>
        <pt x="169" y="139" on="0"/>
        <pt x="225" y="72" on="0"/>
        <pt x="277" y="72" on="1"/>
        <pt x="303" y="72" on="0"/>
        <pt x="348" y="90" on="0"/>
        <pt x="384" y="121" on="0"/>
        <pt x="407" y="164" on="0"/>
      </contour>
      <contour>
        <pt x="494" y="188" on="1"/>
        <pt x="488" y="144" on="0"/>
        <pt x="447" y="72" on="0"/>
        <pt x="385" y="20" on="0"/>
        <pt x="307" y="-9" on="0"/>
        <pt x="265" y="-9" on="1"/>
        <pt x="235" y="-9" on="0"/>
        <pt x="190" y="5" on="0"/>
        <pt x="160" y="22" on="0"/>
        <pt x="145" y="38" on="0"/>
        <pt x="145" y="41" on="1"/>
        <pt x="147" y="36" on="0"/>
        <pt x="150" y="24" on="0"/>
        <pt x="152" y="19" on="1"/>
        <pt x="114" y="-250" on="1"/>
        <pt x="31" y="-250" on="1"/>
        <pt x="119" y="375" on="1"/>
        <pt x="188" y="375" on="1"/>
        <pt x="186" y="363" on="0"/>
        <pt x="187" y="340" on="0"/>
        <pt x="186" y="328" on="1"/>
        <pt x="187" y="331" on="0"/>
        <pt x="209" y="349" on="0"/>
        <pt x="245" y="368" on="0"/>
        <pt x="293" y="384" on="0"/>
        <pt x="320" y="384" on="1"/>
        <pt x="362" y="384" on="0"/>
        <pt x="432" y="353" on="0"/>
        <pt x="478" y="299" on="0"/>
        <pt x="500" y="228" on="0"/>
      </contour>
    </TTGlyph>
    <TTGlyph name="paragraph" xMin="62" yMin="0" xMax="499" yMax="750">
      <contour>
        <pt x="231" y="0" on="1"/>
        <pt x="148" y="0" on="1"/>
        <pt x="207" y="423" on="1"/>
        <pt x="173" y="423" on="0"/>
        <pt x="117" y="448" on="0"/>
        <pt x="79" y="492" on="0"/>
        <pt x="62" y="552" on="0"/>
        <pt x="67" y="586" on="1"/>
        <pt x="72" y="620" on="0"/>
        <pt x="106" y="680" on="0"/>
        <pt x="156" y="724" on="0"/>
        <pt x="219" y="750" on="0"/>
        <pt x="253" y="750" on="1"/>
        <pt x="499" y="750" on="1"/>
        <pt x="394" y="0" on="1"/>
        <pt x="311" y="0" on="1"/>
        <pt x="405" y="669" on="1"/>
        <pt x="325" y="669" on="1"/>
      </contour>
    </TTGlyph>
    <TTGlyph name="parenleft" xMin="104" yMin="-164" xMax="413" yMax="746">
      <contour>
        <pt x="115" y="291" on="1"/>
        <pt x="125" y="366" on="0"/>
        <pt x="172" y="502" on="0"/>
        <pt x="235" y="618" on="0"/>
        <pt x="307" y="713" on="0"/>
        <pt x="343" y="746" on="1"/>
        <pt x="360" y="740" on="0"/>
        <pt x="396" y="729" on="0"/>
        <pt x="413" y="723" on="1"/>
        <pt x="380" y="690" on="0"/>
        <pt x="312" y="600" on="0"/>
        <pt x="253" y="490" on="0"/>
        <pt x="209" y="362" on="0"/>
        <pt x="199" y="291" on="1"/>
        <pt x="189" y="220" on="0"/>
        <pt x="197" y="92" on="0"/>
        <pt x="225" y="-18" on="0"/>
        <pt x="268" y="-108" on="0"/>
        <pt x="292" y="-141" on="1"/>
        <pt x="273" y="-147" on="0"/>
        <pt x="235" y="-158" on="0"/>
        <pt x="216" y="-164" on="1"/>
        <pt x="189" y="-131" on="0"/>
        <pt x="143" y="-36" on="0"/>
        <pt x="113" y="80" on="0"/>
        <pt x="104" y="216" on="0"/>
      </contour>
    </TTGlyph>
    <TTGlyph name="parenright" xMin="13" yMin="-167" xMax="322" yMax="743">
      <contour>
        <pt x="312" y="288" on="1"/>
        <pt x="301" y="213" on="0"/>
        <pt x="254" y="77" on="0"/>
        <pt x="191" y="-39" on="0"/>
        <pt x="119" y="-134" on="0"/>
        <pt x="83" y="-167" on="1"/>
        <pt x="66" y="-162" on="0"/>
        <pt x="30" y="-151" on="0"/>
        <pt x="13" y="-146" on="1"/>
        <pt x="46" y="-113" on="0"/>
        <pt x="114" y="-23" on="0"/>
        <pt x="173" y="87" on="0"/>
        <pt x="217" y="215" on="0"/>
        <pt x="227" y="286" on="1"/>
        <pt x="237" y="357" on="0"/>
        <pt x="229" y="485" on="0"/>
        <pt x="201" y="595" on="0"/>
        <pt x="158" y="685" on="0"/>
        <pt x="134" y="718" on="1"/>
        <pt x="153" y="724" on="0"/>
        <pt x="191" y="737" on="0"/>
        <pt x="210" y="743" on="1"/>
        <pt x="237" y="710" on="0"/>
        <pt x="283" y="615" on="0"/>
        <pt x="313" y="499" on="0"/>
        <pt x="322" y="363" on="0"/>
      </contour>
    </TTGlyph>
    <TTGlyph name="percent" xMin="105" yMin="-16" xMax="634" yMax="515">
      <contour>
        <pt x="458" y="111" on="1"/>
        <pt x="455" y="91" on="0"/>
        <pt x="476" y="65" on="0"/>
        <pt x="496" y="65" on="1"/>
        <pt x="516" y="65" on="0"/>
        <pt x="543" y="91" on="0"/>
        <pt x="546" y="111" on="1"/>
        <pt x="549" y="131" on="0"/>
        <pt x="528" y="156" on="0"/>
        <pt x="508" y="156" on="1"/>
        <pt x="488" y="156" on="0"/>
        <pt x="461" y="131" on="0"/>
      </contour>
      <contour>
        <pt x="484" y="-16" on="1"/>
        <pt x="458" y="-16" on="0"/>
        <pt x="414" y="4" on="0"/>
        <pt x="384" y="38" on="0"/>
        <pt x="370" y="84" on="0"/>
        <pt x="374" y="111" on="1"/>
        <pt x="378" y="137" on="0"/>
        <pt x="405" y="183" on="0"/>
        <pt x="444" y="217" on="0"/>
        <pt x="494" y="237" on="0"/>
        <pt x="520" y="237" on="1"/>
        <pt x="546" y="237" on="0"/>
        <pt x="590" y="217" on="0"/>
        <pt x="620" y="183" on="0"/>
        <pt x="634" y="137" on="0"/>
        <pt x="630" y="111" on="1"/>
        <pt x="626" y="84" on="0"/>
        <pt x="599" y="38" on="0"/>
        <pt x="559" y="4" on="0"/>
        <pt x="510" y="-16" on="0"/>
      </contour>
      <contour>
        <pt x="193" y="389" on="1"/>
        <pt x="190" y="369" on="0"/>
        <pt x="211" y="343" on="0"/>
        <pt x="231" y="343" on="1"/>
        <pt x="251" y="343" on="0"/>
        <pt x="278" y="369" on="0"/>
        <pt x="281" y="389" on="1"/>
        <pt x="284" y="409" on="0"/>
        <pt x="263" y="434" on="0"/>
        <pt x="243" y="434" on="1"/>
        <pt x="223" y="434" on="0"/>
        <pt x="196" y="409" on="0"/>
      </contour>
      <contour>
        <pt x="219" y="262" on="1"/>
        <pt x="193" y="262" on="0"/>
        <pt x="149" y="282" on="0"/>
        <pt x="119" y="316" on="0"/>
        <pt x="105" y="362" on="0"/>
        <pt x="109" y="389" on="1"/>
        <pt x="113" y="415" on="0"/>
        <pt x="140" y="461" on="0"/>
        <pt x="179" y="495" on="0"/>
        <pt x="229" y="515" on="0"/>
        <pt x="255" y="515" on="1"/>
        <pt x="281" y="515" on="0"/>
        <pt x="325" y="495" on="0"/>
        <pt x="355" y="461" on="0"/>
        <pt x="369" y="415" on="0"/>
        <pt x="365" y="389" on="1"/>
        <pt x="361" y="362" on="0"/>
        <pt x="334" y="316" on="0"/>
        <pt x="294" y="282" on="0"/>
        <pt x="245" y="262" on="0"/>
      </contour>
      <contour>
        <pt x="138" y="0" on="1"/>
        <pt x="231" y="126" on="0"/>
        <pt x="414" y="374" on="0"/>
        <pt x="507" y="500" on="1"/>
        <pt x="598" y="500" on="1"/>
        <pt x="505" y="374" on="0"/>
        <pt x="322" y="126" on="0"/>
        <pt x="229" y="0" on="1"/>
      </contour>
    </TTGlyph>
    <TTGlyph name="period" xMin="29" yMin="0" xMax="139" yMax="105">
      <contour>
        <pt x="32" y="52" on="1"/>
        <pt x="36" y="75" on="0"/>
        <pt x="72" y="105" on="0"/>
        <pt x="92" y="105" on="1"/>
        <pt x="111" y="105" on="0"/>
        <pt x="139" y="75" on="0"/>
        <pt x="135" y="52" on="1"/>
        <pt x="132" y="29" on="0"/>
        <pt x="96" y="0" on="0"/>
        <pt x="77" y="0" on="1"/>
        <pt x="57" y="0" on="0"/>
        <pt x="29" y="29" on="0"/>
      </contour>
    </TTGlyph>
    <TTGlyph name="periodcentered" xMin="30" yMin="230" xMax="140" yMax="335">
      <component glyphName="period" x="1" y="230" flags="0x4"/>
    </TTGlyph>
    <TTGlyph name="plus" xMin="80" yMin="51" xMax="451" yMax="411">
      <contour>
        <pt x="198" y="51" on="1"/>
        <pt x="218" y="190" on="1"/>
        <pt x="80" y="190" on="1"/>
        <pt x="91" y="271" on="1"/>
        <pt x="229" y="271" on="1"/>
        <pt x="249" y="411" on="1"/>
        <pt x="333" y="411" on="1"/>
        <pt x="313" y="271" on="1"/>
        <pt x="451" y="271" on="1"/>
        <pt x="440" y="190" on="1"/>
        <pt x="302" y="190" on="1"/>
        <pt x="282" y="51" on="1"/>
      </contour>
    </TTGlyph>
    <TTGlyph name="plusminus" xMin="52" yMin="100" xMax="459" yMax="571">
      <contour>
        <pt x="206" y="211" on="1"/>
        <pt x="226" y="350" on="1"/>
        <pt x="88" y="350" on="1"/>
        <pt x="99" y="431" on="1"/>
        <pt x="237" y="431" on="1"/>
        <pt x="257" y="571" on="1"/>
        <pt x="341" y="571" on="1"/>
        <pt x="321" y="431" on="1"/>
        <pt x="459" y="431" on="1"/>
        <pt x="448" y="350" on="1"/>
        <pt x="310" y="350" on="1"/>
        <pt x="290" y="211" on="1"/>
      </contour>
      <contour>
        <pt x="412" y="100" on="1"/>
        <pt x="52" y="100" on="1"/>
        <pt x="64" y="181" on="1"/>
        <pt x="424" y="181" on="1"/>
      </contour>
    </TTGlyph>
    <TTGlyph name="q" xMin="69" yMin="-250" xMax="502" yMax="384">
      <contour>
        <pt x="159" y="188" on="1"/>
        <pt x="152" y="139" on="0"/>
        <pt x="208" y="72" on="0"/>
        <pt x="260" y="72" on="1"/>
        <pt x="286" y="72" on="0"/>
        <pt x="331" y="90" on="0"/>
        <pt x="367" y="121" on="0"/>
        <pt x="390" y="164" on="0"/>
        <pt x="393" y="188" on="1"/>
        <pt x="400" y="238" on="0"/>
        <pt x="344" y="303" on="0"/>
        <pt x="292" y="303" on="1"/>
        <pt x="266" y="303" on="0"/>
        <pt x="221" y="286" on="0"/>
        <pt x="185" y="255" on="0"/>
        <pt x="162" y="213" on="0"/>
      </contour>
      <contour>
        <pt x="75" y="188" on="1"/>
        <pt x="81" y="231" on="0"/>
        <pt x="121" y="303" on="0"/>
        <pt x="183" y="355" on="0"/>
        <pt x="261" y="384" on="0"/>
        <pt x="303" y="384" on="1"/>
        <pt x="330" y="384" on="0"/>
        <pt x="374" y="368" on="0"/>
        <pt x="405" y="349" on="0"/>
        <pt x="423" y="331" on="0"/>
        <pt x="423" y="328" on="1"/>
        <pt x="425" y="340" on="0"/>
        <pt x="431" y="363" on="0"/>
        <pt x="433" y="375" on="1"/>
        <pt x="502" y="375" on="1"/>
        <pt x="414" y="-250" on="1"/>
        <pt x="331" y="-250" on="1"/>
        <pt x="369" y="19" on="1"/>
        <pt x="372" y="24" on="0"/>
        <pt x="379" y="36" on="0"/>
        <pt x="382" y="41" on="1"/>
        <pt x="381" y="38" on="0"/>
        <pt x="362" y="22" on="0"/>
        <pt x="327" y="5" on="0"/>
        <pt x="278" y="-9" on="0"/>
        <pt x="248" y="-9" on="1"/>
        <pt x="206" y="-9" on="0"/>
        <pt x="137" y="22" on="0"/>
        <pt x="90" y="76" on="0"/>
        <pt x="69" y="148" on="0"/>
      </contour>
    </TTGlyph>
    <TTGlyph name="question" xMin="70" yMin="0" xMax="467" yMax="732">
      <contour>
        <pt x="140" y="552" on="1"/>
        <pt x="123" y="559" on="0"/>
        <pt x="87" y="572" on="0"/>
        <pt x="70" y="579" on="1"/>
        <pt x="80" y="601" on="0"/>
        <pt x="114" y="654" on="0"/>
        <pt x="167" y="700" on="0"/>
        <pt x="241" y="732" on="0"/>
        <pt x="292" y="732" on="1"/>
        <pt x="333" y="732" on="0"/>
        <pt x="401" y="701" on="0"/>
        <pt x="446" y="648" on="0"/>
        <pt x="467" y="577" on="0"/>
        <pt x="461" y="537" on="1"/>
        <pt x="453" y="481" on="0"/>
        <pt x="389" y="398" on="0"/>
        <pt x="338" y="364" on="1"/>
        <pt x="323" y="354" on="0"/>
        <pt x="288" y="333" on="0"/>
        <pt x="256" y="306" on="0"/>
        <pt x="233" y="269" on="0"/>
        <pt x="229" y="242" on="1"/>
        <pt x="218" y="164" on="1"/>
        <pt x="134" y="164" on="1"/>
        <pt x="148" y="261" on="1"/>
        <pt x="152" y="293" on="0"/>
        <pt x="179" y="333" on="0"/>
        <pt x="216" y="364" on="0"/>
        <pt x="263" y="391" on="0"/>
        <pt x="288" y="409" on="1"/>
        <pt x="328" y="436" on="0"/>
        <pt x="371" y="500" on="0"/>
        <pt x="376" y="537" on="1"/>
        <pt x="383" y="586" on="0"/>
        <pt x="331" y="651" on="0"/>
        <pt x="281" y="651" on="1"/>
        <pt x="225" y="651" on="0"/>
        <pt x="162" y="601" on="0"/>
      </contour>
      <contour>
        <pt x="152" y="0" on="1"/>
        <pt x="132" y="0" on="0"/>
        <pt x="104" y="29" on="0"/>
        <pt x="107" y="52" on="1"/>
        <pt x="111" y="75" on="0"/>
        <pt x="147" y="105" on="0"/>
        <pt x="167" y="105" on="1"/>
        <pt x="186" y="105" on="0"/>
        <pt x="214" y="75" on="0"/>
        <pt x="210" y="52" on="1"/>
        <pt x="207" y="29" on="0"/>
        <pt x="171" y="0" on="0"/>
      </contour>
    </TTGlyph>
    <TTGlyph name="questiondown" xMin="1" yMin="-193" xMax="398" yMax="539">
      <component glyphName="question" x="468" y="539" scale="-1.0" flags="0x4"/>
    </TTGlyph>
    <TTGlyph name="quotedbl" xMin="45" yMin="472" xMax="296" yMax="720">
      <contour>
        <pt x="178" y="472" on="1"/>
        <pt x="213" y="720" on="1"/>
        <pt x="296" y="720" on="1"/>
        <pt x="286" y="657" on="0"/>
        <pt x="267" y="535" on="0"/>
        <pt x="257" y="472" on="1"/>
      </contour>
      <contour>
        <pt x="45" y="472" on="1"/>
        <pt x="80" y="720" on="1"/>
        <pt x="163" y="720" on="1"/>
        <pt x="153" y="657" on="0"/>
        <pt x="134" y="535" on="0"/>
        <pt x="124" y="472" on="1"/>
      </contour>
    </TTGlyph>
    <TTGlyph name="quotedblbase" xMin="12" yMin="-53" xMax="220" yMax="92">
      <contour>
        <pt x="49" y="-53" on="1"/>
        <pt x="39" y="-47" on="0"/>
        <pt x="22" y="-35" on="0"/>
        <pt x="12" y="-29" on="1"/>
        <pt x="35" y="-9" on="0"/>
        <pt x="63" y="50" on="0"/>
        <pt x="61" y="85" on="1"/>
        <pt x="74" y="87" on="0"/>
        <pt x="100" y="90" on="0"/>
        <pt x="114" y="92" on="1"/>
        <pt x="116" y="50" on="0"/>
        <pt x="81" y="-25" on="0"/>
      </contour>
      <contour>
        <pt x="153" y="-53" on="1"/>
        <pt x="143" y="-47" on="0"/>
        <pt x="126" y="-35" on="0"/>
        <pt x="116" y="-29" on="1"/>
        <pt x="139" y="-9" on="0"/>
        <pt x="167" y="50" on="0"/>
        <pt x="165" y="85" on="1"/>
        <pt x="178" y="87" on="0"/>
        <pt x="204" y="90" on="0"/>
        <pt x="218" y="92" on="1"/>
        <pt x="220" y="50" on="0"/>
        <pt x="185" y="-25" on="0"/>
      </contour>
    </TTGlyph>
    <TTGlyph name="quotedblleft" xMin="27" yMin="566" xMax="213" yMax="711">
      <contour>
        <pt x="213" y="590" on="1"/>
        <pt x="168" y="566" on="1"/>
        <pt x="145" y="594" on="0"/>
        <pt x="131" y="669" on="0"/>
        <pt x="145" y="711" on="1"/>
        <pt x="157" y="709" on="0"/>
        <pt x="183" y="706" on="0"/>
        <pt x="196" y="704" on="1"/>
        <pt x="184" y="669" on="0"/>
        <pt x="194" y="610" on="0"/>
      </contour>
      <contour>
        <pt x="109" y="590" on="1"/>
        <pt x="64" y="566" on="1"/>
        <pt x="41" y="594" on="0"/>
        <pt x="27" y="669" on="0"/>
        <pt x="41" y="711" on="1"/>
        <pt x="53" y="709" on="0"/>
        <pt x="79" y="706" on="0"/>
        <pt x="92" y="704" on="1"/>
        <pt x="80" y="669" on="0"/>
        <pt x="90" y="610" on="0"/>
      </contour>
    </TTGlyph>
    <TTGlyph name="quotedblright" xMin="4" yMin="566" xMax="212" yMax="711">
      <contour>
        <pt x="41" y="566" on="1"/>
        <pt x="31" y="572" on="0"/>
        <pt x="14" y="584" on="0"/>
        <pt x="4" y="590" on="1"/>
        <pt x="27" y="610" on="0"/>
        <pt x="55" y="669" on="0"/>
        <pt x="53" y="704" on="1"/>
        <pt x="66" y="706" on="0"/>
        <pt x="92" y="709" on="0"/>
        <pt x="106" y="711" on="1"/>
        <pt x="108" y="669" on="0"/>
        <pt x="73" y="594" on="0"/>
      </contour>
      <contour>
        <pt x="145" y="566" on="1"/>
        <pt x="135" y="572" on="0"/>
        <pt x="118" y="584" on="0"/>
        <pt x="108" y="590" on="1"/>
        <pt x="131" y="610" on="0"/>
        <pt x="159" y="669" on="0"/>
        <pt x="157" y="704" on="1"/>
        <pt x="170" y="706" on="0"/>
        <pt x="196" y="709" on="0"/>
        <pt x="210" y="711" on="1"/>
        <pt x="212" y="669" on="0"/>
        <pt x="177" y="594" on="0"/>
      </contour>
    </TTGlyph>
    <TTGlyph name="quoteleft" xMin="27" yMin="566" xMax="109" yMax="711">
      <contour>
        <pt x="109" y="590" on="1"/>
        <pt x="64" y="566" on="1"/>
        <pt x="41" y="594" on="0"/>
        <pt x="27" y="669" on="0"/>
        <pt x="41" y="711" on="1"/>
        <pt x="53" y="709" on="0"/>
        <pt x="79" y="706" on="0"/>
        <pt x="92" y="704" on="1"/>
        <pt x="80" y="669" on="0"/>
        <pt x="90" y="610" on="0"/>
      </contour>
    </TTGlyph>
    <TTGlyph name="quoteright" xMin="28" yMin="566" xMax="132" yMax="711">
      <contour>
        <pt x="65" y="566" on="1"/>
        <pt x="55" y="572" on="0"/>
        <pt x="38" y="584" on="0"/>
        <pt x="28" y="590" on="1"/>
        <pt x="51" y="610" on="0"/>
        <pt x="79" y="669" on="0"/>
        <pt x="77" y="704" on="1"/>
        <pt x="90" y="706" on="0"/>
        <pt x="116" y="709" on="0"/>
        <pt x="130" y="711" on="1"/>
        <pt x="132" y="669" on="0"/>
        <pt x="97" y="594" on="0"/>
      </contour>
    </TTGlyph>
    <TTGlyph name="quotesinglbase" xMin="12" yMin="-53" xMax="116" yMax="92">
      <contour>
        <pt x="49" y="-53" on="1"/>
        <pt x="39" y="-47" on="0"/>
        <pt x="22" y="-35" on="0"/>
        <pt x="12" y="-29" on="1"/>
        <pt x="35" y="-9" on="0"/>
        <pt x="63" y="50" on="0"/>
        <pt x="61" y="85" on="1"/>
        <pt x="74" y="87" on="0"/>
        <pt x="100" y="90" on="0"/>
        <pt x="114" y="92" on="1"/>
        <pt x="116" y="50" on="0"/>
        <pt x="81" y="-25" on="0"/>
      </contour>
    </TTGlyph>
    <TTGlyph name="quotesingle" xMin="24" yMin="472" xMax="143" yMax="720">
      <contour>
        <pt x="24" y="472" on="1"/>
        <pt x="59" y="720" on="1"/>
        <pt x="143" y="720" on="1"/>
        <pt x="133" y="657" on="0"/>
        <pt x="114" y="535" on="0"/>
        <pt x="104" y="472" on="1"/>
      </contour>
    </TTGlyph>
    <TTGlyph name="r" xMin="82" yMin="0" xMax="359" yMax="384">
      <contour>
        <pt x="342" y="302" on="1"/>
        <pt x="312" y="302" on="0"/>
        <pt x="259" y="284" on="0"/>
        <pt x="219" y="252" on="0"/>
        <pt x="194" y="208" on="0"/>
        <pt x="190" y="182" on="1"/>
        <pt x="165" y="0" on="1"/>
        <pt x="82" y="0" on="1"/>
        <pt x="134" y="375" on="1"/>
        <pt x="207" y="375" on="1"/>
        <pt x="206" y="366" on="1"/>
        <pt x="204" y="342" on="0"/>
        <pt x="203" y="303" on="0"/>
        <pt x="201" y="279" on="1"/>
        <pt x="216" y="304" on="0"/>
        <pt x="259" y="343" on="0"/>
        <pt x="303" y="370" on="0"/>
        <pt x="344" y="384" on="0"/>
        <pt x="359" y="384" on="1"/>
      </contour>
    </TTGlyph>
    <TTGlyph name="registered" xMin="128" yMin="111" xMax="670" yMax="634">
      <contour>
        <pt x="368" y="148" on="1"/>
        <pt x="415" y="148" on="0"/>
        <pt x="501" y="182" on="0"/>
        <pt x="570" y="242" on="0"/>
        <pt x="615" y="324" on="0"/>
        <pt x="622" y="372" on="1"/>
        <pt x="629" y="421" on="0"/>
        <pt x="607" y="503" on="0"/>
        <pt x="555" y="563" on="0"/>
        <pt x="478" y="597" on="0"/>
        <pt x="431" y="597" on="1"/>
        <pt x="384" y="597" on="0"/>
        <pt x="298" y="563" on="0"/>
        <pt x="229" y="503" on="0"/>
        <pt x="183" y="421" on="0"/>
        <pt x="176" y="372" on="1"/>
        <pt x="169" y="324" on="0"/>
        <pt x="192" y="242" on="0"/>
        <pt x="244" y="182" on="0"/>
        <pt x="321" y="148" on="0"/>
      </contour>
      <contour>
        <pt x="363" y="111" on="1"/>
        <pt x="309" y="111" on="0"/>
        <pt x="219" y="151" on="0"/>
        <pt x="157" y="221" on="0"/>
        <pt x="128" y="316" on="0"/>
        <pt x="136" y="372" on="1"/>
        <pt x="144" y="429" on="0"/>
        <pt x="200" y="525" on="0"/>
        <pt x="281" y="595" on="0"/>
        <pt x="382" y="634" on="0"/>
        <pt x="436" y="634" on="1"/>
        <pt x="490" y="634" on="0"/>
        <pt x="580" y="595" on="0"/>
        <pt x="642" y="525" on="0"/>
        <pt x="670" y="429" on="0"/>
        <pt x="662" y="372" on="1"/>
        <pt x="654" y="316" on="0"/>
        <pt x="599" y="221" on="0"/>
        <pt x="518" y="151" on="0"/>
        <pt x="417" y="111" on="0"/>
      </contour>
      <contour>
        <pt x="362" y="395" on="1"/>
        <pt x="403" y="395" on="1"/>
        <pt x="445" y="395" on="0"/>
        <pt x="480" y="433" on="0"/>
        <pt x="482" y="451" on="1"/>
        <pt x="485" y="472" on="0"/>
        <pt x="449" y="504" on="0"/>
        <pt x="420" y="504" on="1"/>
        <pt x="378" y="504" on="1"/>
      </contour>
      <contour>
        <pt x="297" y="210" on="1"/>
        <pt x="344" y="541" on="1"/>
        <pt x="422" y="541" on="1"/>
        <pt x="438" y="541" on="0"/>
        <pt x="476" y="531" on="0"/>
        <pt x="507" y="509" on="0"/>
        <pt x="525" y="475" on="0"/>
        <pt x="522" y="451" on="1"/>
        <pt x="517" y="416" on="0"/>
        <pt x="474" y="368" on="0"/>
        <pt x="439" y="360" on="1"/>
        <pt x="452" y="322" on="0"/>
        <pt x="476" y="248" on="0"/>
        <pt x="489" y="210" on="1"/>
        <pt x="446" y="210" on="1"/>
        <pt x="434" y="247" on="0"/>
        <pt x="410" y="320" on="0"/>
        <pt x="397" y="358" on="1"/>
        <pt x="389" y="358" on="1"/>
        <pt x="357" y="358" on="1"/>
        <pt x="336" y="210" on="1"/>
      </contour>
    </TTGlyph>
    <TTGlyph name="s" xMin="76" yMin="-8" xMax="358" yMax="384">
      <contour>
        <pt x="358" y="342" on="1"/>
        <pt x="344" y="326" on="0"/>
        <pt x="317" y="296" on="0"/>
        <pt x="303" y="280" on="1"/>
        <pt x="299" y="285" on="0"/>
        <pt x="272" y="303" on="0"/>
        <pt x="248" y="303" on="1"/>
        <pt x="226" y="303" on="0"/>
        <pt x="203" y="284" on="0"/>
        <pt x="203" y="268" on="1"/>
        <pt x="204" y="256" on="0"/>
        <pt x="227" y="241" on="0"/>
        <pt x="261" y="227" on="0"/>
        <pt x="298" y="209" on="0"/>
        <pt x="328" y="182" on="0"/>
        <pt x="344" y="141" on="0"/>
        <pt x="340" y="110" on="1"/>
        <pt x="338" y="96" on="0"/>
        <pt x="322" y="56" on="0"/>
        <pt x="288" y="18" on="0"/>
        <pt x="234" y="-8" on="0"/>
        <pt x="194" y="-8" on="1"/>
        <pt x="157" y="-8" on="0"/>
        <pt x="93" y="17" on="0"/>
        <pt x="76" y="39" on="1"/>
        <pt x="91" y="54" on="0"/>
        <pt x="120" y="85" on="0"/>
        <pt x="135" y="100" on="1"/>
        <pt x="155" y="86" on="0"/>
        <pt x="183" y="73" on="0"/>
        <pt x="207" y="73" on="1"/>
        <pt x="208" y="73" on="0"/>
        <pt x="221" y="74" on="0"/>
        <pt x="238" y="81" on="0"/>
        <pt x="253" y="95" on="0"/>
        <pt x="256" y="109" on="1"/>
        <pt x="260" y="127" on="0"/>
        <pt x="240" y="146" on="0"/>
        <pt x="207" y="159" on="0"/>
        <pt x="166" y="172" on="0"/>
        <pt x="133" y="195" on="0"/>
        <pt x="115" y="237" on="0"/>
        <pt x="120" y="272" on="1"/>
        <pt x="124" y="303" on="0"/>
        <pt x="154" y="345" on="0"/>
        <pt x="194" y="372" on="0"/>
        <pt x="237" y="384" on="0"/>
        <pt x="254" y="384" on="1"/>
        <pt x="264" y="384" on="0"/>
        <pt x="292" y="380" on="0"/>
        <pt x="322" y="370" on="0"/>
        <pt x="349" y="354" on="0"/>
      </contour>
    </TTGlyph>
    <TTGlyph name="section" xMin="115" yMin="-50" xMax="402" yMax="762">
      <contour>
        <pt x="194" y="360" on="1"/>
        <pt x="190" y="333" on="0"/>
        <pt x="222" y="296" on="0"/>
        <pt x="249" y="296" on="1"/>
        <pt x="275" y="296" on="0"/>
        <pt x="318" y="333" on="0"/>
        <pt x="322" y="360" on="1"/>
        <pt x="326" y="386" on="0"/>
        <pt x="294" y="424" on="0"/>
        <pt x="267" y="424" on="1"/>
        <pt x="241" y="424" on="0"/>
        <pt x="198" y="387" on="0"/>
      </contour>
      <contour>
        <pt x="187" y="148" on="1"/>
        <pt x="166" y="192" on="0"/>
        <pt x="141" y="244" on="0"/>
        <pt x="129" y="271" on="0"/>
        <pt x="127" y="280" on="0"/>
        <pt x="127" y="282" on="1"/>
        <pt x="117" y="305" on="0"/>
        <pt x="115" y="358" on="0"/>
        <pt x="131" y="410" on="0"/>
        <pt x="163" y="456" on="0"/>
        <pt x="186" y="473" on="1"/>
        <pt x="218" y="496" on="0"/>
        <pt x="260" y="500" on="1"/>
        <pt x="252" y="517" on="0"/>
        <pt x="237" y="551" on="0"/>
        <pt x="229" y="569" on="1"/>
        <pt x="215" y="602" on="0"/>
        <pt x="210" y="649" on="0"/>
        <pt x="222" y="684" on="0"/>
        <pt x="249" y="708" on="0"/>
        <pt x="267" y="718" on="1"/>
        <pt x="287" y="729" on="0"/>
        <pt x="328" y="751" on="0"/>
        <pt x="348" y="762" on="1"/>
        <pt x="363" y="728" on="0"/>
        <pt x="380" y="692" on="1"/>
        <pt x="369" y="687" on="0"/>
        <pt x="349" y="675" on="0"/>
        <pt x="338" y="670" on="1"/>
        <pt x="325" y="662" on="0"/>
        <pt x="310" y="648" on="0"/>
        <pt x="305" y="628" on="0"/>
        <pt x="312" y="601" on="0"/>
        <pt x="321" y="580" on="1"/>
        <pt x="322" y="580" on="1"/>
        <pt x="339" y="542" on="0"/>
        <pt x="373" y="469" on="0"/>
        <pt x="390" y="431" on="1"/>
        <pt x="401" y="408" on="0"/>
        <pt x="402" y="356" on="0"/>
        <pt x="386" y="305" on="0"/>
        <pt x="353" y="259" on="0"/>
        <pt x="329" y="243" on="1"/>
        <pt x="297" y="220" on="0"/>
        <pt x="255" y="214" on="1"/>
        <pt x="270" y="180" on="0"/>
        <pt x="287" y="144" on="1"/>
        <pt x="302" y="111" on="0"/>
        <pt x="307" y="63" on="0"/>
        <pt x="294" y="28" on="0"/>
        <pt x="267" y="3" on="0"/>
        <pt x="249" y="-7" on="1"/>
        <pt x="229" y="-18" on="0"/>
        <pt x="190" y="-39" on="0"/>
        <pt x="170" y="-50" on="1"/>
        <pt x="155" y="-16" on="0"/>
        <pt x="138" y="20" on="1"/>
        <pt x="149" y="26" on="0"/>
        <pt x="170" y="37" on="0"/>
        <pt x="181" y="43" on="1"/>
        <pt x="194" y="50" on="0"/>
        <pt x="209" y="66" on="0"/>
        <pt x="210" y="89" on="0"/>
        <pt x="199" y="122" on="0"/>
      </contour>
    </TTGlyph>
    <TTGlyph name="semicolon" xMin="-45" yMin="-120" xMax="196" yMax="355">
      <contour>
        <pt x="89" y="302" on="1"/>
        <pt x="93" y="325" on="0"/>
        <pt x="129" y="355" on="0"/>
        <pt x="149" y="355" on="1"/>
        <pt x="168" y="355" on="0"/>
        <pt x="196" y="325" on="0"/>
        <pt x="192" y="302" on="1"/>
        <pt x="189" y="279" on="0"/>
        <pt x="153" y="250" on="0"/>
        <pt x="134" y="250" on="1"/>
        <pt x="114" y="250" on="0"/>
        <pt x="86" y="279" on="0"/>
      </contour>
      <contour>
        <pt x="144" y="86" on="1"/>
        <pt x="115" y="34" on="0"/>
        <pt x="58" y="-68" on="0"/>
        <pt x="29" y="-120" on="1"/>
        <pt x="-45" y="-120" on="1"/>
        <pt x="-18" y="-68" on="0"/>
        <pt x="33" y="34" on="0"/>
        <pt x="60" y="86" on="1"/>
      </contour>
    </TTGlyph>
    <TTGlyph name="seven" xMin="-5" yMin="0" xMax="472" yMax="650">
      <contour>
        <pt x="48" y="568" on="1"/>
        <pt x="59" y="650" on="1"/>
        <pt x="472" y="650" on="1"/>
        <pt x="376" y="486" on="0"/>
        <pt x="185" y="164" on="0"/>
        <pt x="89" y="0" on="1"/>
        <pt x="-5" y="0" on="1"/>
        <pt x="79" y="143" on="0"/>
        <pt x="246" y="425" on="0"/>
        <pt x="331" y="568" on="1"/>
      </contour>
    </TTGlyph>
    <TTGlyph name="six" xMin="27" yMin="-8" xMax="475" yMax="637">
      <contour>
        <pt x="119" y="209" on="1"/>
        <pt x="115" y="181" on="0"/>
        <pt x="128" y="132" on="0"/>
        <pt x="159" y="95" on="0"/>
        <pt x="204" y="73" on="0"/>
        <pt x="231" y="73" on="1"/>
        <pt x="259" y="73" on="0"/>
        <pt x="311" y="95" on="0"/>
        <pt x="353" y="132" on="0"/>
        <pt x="382" y="181" on="0"/>
        <pt x="386" y="209" on="1"/>
        <pt x="390" y="237" on="0"/>
        <pt x="375" y="286" on="0"/>
        <pt x="343" y="322" on="0"/>
        <pt x="297" y="343" on="0"/>
        <pt x="269" y="343" on="1"/>
        <pt x="242" y="343" on="0"/>
        <pt x="191" y="322" on="0"/>
        <pt x="150" y="286" on="0"/>
        <pt x="123" y="237" on="0"/>
      </contour>
      <contour>
        <pt x="31" y="197" on="1"/>
        <pt x="41" y="269" on="0"/>
        <pt x="120" y="394" on="0"/>
        <pt x="231" y="502" on="0"/>
        <pt x="362" y="596" on="0"/>
        <pt x="424" y="637" on="1"/>
        <pt x="435" y="621" on="0"/>
        <pt x="456" y="589" on="0"/>
        <pt x="467" y="573" on="1"/>
        <pt x="396" y="530" on="0"/>
        <pt x="295" y="455" on="0"/>
        <pt x="259" y="423" on="1"/>
        <pt x="264" y="423" on="0"/>
        <pt x="275" y="424" on="0"/>
        <pt x="280" y="424" on="1"/>
        <pt x="325" y="424" on="0"/>
        <pt x="400" y="391" on="0"/>
        <pt x="451" y="332" on="0"/>
        <pt x="475" y="254" on="0"/>
        <pt x="469" y="209" on="1"/>
        <pt x="463" y="164" on="0"/>
        <pt x="416" y="85" on="0"/>
        <pt x="348" y="26" on="0"/>
        <pt x="264" y="-8" on="0"/>
        <pt x="219" y="-8" on="1"/>
        <pt x="176" y="-8" on="0"/>
        <pt x="103" y="24" on="0"/>
        <pt x="52" y="79" on="0"/>
        <pt x="27" y="154" on="0"/>
      </contour>
    </TTGlyph>
    <TTGlyph name="slash" xMin="-36" yMin="-19" xMax="432" yMax="736">
      <contour>
        <pt x="-36" y="-19" on="1"/>
        <pt x="61" y="171" on="0"/>
        <pt x="251" y="546" on="0"/>
        <pt x="348" y="736" on="1"/>
        <pt x="432" y="736" on="1"/>
        <pt x="335" y="546" on="0"/>
        <pt x="144" y="171" on="0"/>
        <pt x="47" y="-19" on="1"/>
      </contour>
    </TTGlyph>
    <TTGlyph name="sterling" xMin="-15" yMin="0" xMax="543" yMax="634">
      <contour>
        <pt x="154" y="81" on="1"/>
        <pt x="326" y="81" on="1"/>
        <pt x="358" y="81" on="0"/>
        <pt x="399" y="86" on="0"/>
        <pt x="424" y="98" on="0"/>
        <pt x="435" y="118" on="0"/>
        <pt x="437" y="133" on="1"/>
        <pt x="443" y="177" on="1"/>
        <pt x="464" y="177" on="0"/>
        <pt x="506" y="178" on="0"/>
        <pt x="527" y="178" on="1"/>
        <pt x="514" y="85" on="1"/>
        <pt x="511" y="67" on="0"/>
        <pt x="498" y="35" on="0"/>
        <pt x="470" y="13" on="0"/>
        <pt x="422" y="0" on="0"/>
        <pt x="384" y="0" on="1"/>
        <pt x="-15" y="0" on="1"/>
        <pt x="-4" y="81" on="1"/>
        <pt x="39" y="81" on="1"/>
        <pt x="55" y="81" on="0"/>
        <pt x="76" y="88" on="0"/>
        <pt x="91" y="110" on="0"/>
        <pt x="100" y="149" on="0"/>
        <pt x="105" y="181" on="1"/>
        <pt x="118" y="273" on="1"/>
        <pt x="53" y="273" on="1"/>
        <pt x="65" y="354" on="1"/>
        <pt x="130" y="354" on="1"/>
        <pt x="150" y="500" on="1"/>
        <pt x="160" y="569" on="0"/>
        <pt x="285" y="634" on="0"/>
        <pt x="390" y="634" on="1"/>
        <pt x="423" y="634" on="0"/>
        <pt x="474" y="618" on="0"/>
        <pt x="511" y="590" on="0"/>
        <pt x="536" y="554" on="0"/>
        <pt x="543" y="534" on="1"/>
        <pt x="526" y="525" on="0"/>
        <pt x="492" y="506" on="0"/>
        <pt x="475" y="497" on="1"/>
        <pt x="470" y="504" on="0"/>
        <pt x="460" y="523" on="0"/>
        <pt x="441" y="541" on="0"/>
        <pt x="407" y="553" on="0"/>
        <pt x="379" y="553" on="1"/>
        <pt x="311" y="553" on="0"/>
        <pt x="238" y="525" on="0"/>
        <pt x="231" y="478" on="1"/>
        <pt x="214" y="354" on="1"/>
        <pt x="331" y="354" on="1"/>
        <pt x="319" y="273" on="1"/>
        <pt x="202" y="273" on="1"/>
        <pt x="187" y="163" on="1"/>
        <pt x="183" y="134" on="0"/>
        <pt x="172" y="95" on="0"/>
      </contour>
    </TTGlyph>
    <TTGlyph name="t" xMin="66" yMin="0" xMax="342" yMax="619">
      <contour>
        <pt x="194" y="619" on="1"/>
        <pt x="277" y="619" on="1"/>
        <pt x="244" y="384" on="1"/>
        <pt x="342" y="384" on="1"/>
        <pt x="331" y="303" on="1"/>
        <pt x="233" y="303" on="1"/>
        <pt x="191" y="0" on="1"/>
        <pt x="108" y="0" on="1"/>
        <pt x="150" y="303" on="1"/>
        <pt x="66" y="303" on="1"/>
        <pt x="77" y="384" on="1"/>
        <pt x="161" y="384" on="1"/>
      </contour>
    </TTGlyph>
    <TTGlyph name="thorn" xMin="-3" yMin="-250" xMax="464" yMax="750">
      <contour>
        <pt x="375" y="188" on="1"/>
        <pt x="382" y="238" on="0"/>
        <pt x="326" y="303" on="0"/>
        <pt x="274" y="303" on="1"/>
        <pt x="248" y="303" on="0"/>
        <pt x="203" y="286" on="0"/>
        <pt x="167" y="255" on="0"/>
        <pt x="144" y="213" on="0"/>
        <pt x="141" y="188" on="1"/>
        <pt x="134" y="139" on="0"/>
        <pt x="189" y="72" on="0"/>
        <pt x="241" y="72" on="1"/>
        <pt x="267" y="72" on="0"/>
        <pt x="313" y="90" on="0"/>
        <pt x="348" y="121" on="0"/>
        <pt x="372" y="164" on="0"/>
      </contour>
      <contour>
        <pt x="459" y="187" on="1"/>
        <pt x="453" y="147" on="0"/>
        <pt x="412" y="76" on="0"/>
        <pt x="350" y="22" on="0"/>
        <pt x="272" y="-9" on="0"/>
        <pt x="230" y="-9" on="1"/>
        <pt x="200" y="-9" on="0"/>
        <pt x="155" y="5" on="0"/>
        <pt x="125" y="22" on="0"/>
        <pt x="110" y="38" on="0"/>
        <pt x="110" y="41" on="1"/>
        <pt x="112" y="36" on="0"/>
        <pt x="115" y="24" on="0"/>
        <pt x="117" y="19" on="1"/>
        <pt x="79" y="-250" on="1"/>
        <pt x="-3" y="-250" on="1"/>
        <pt x="137" y="750" on="1"/>
        <pt x="220" y="750" on="1"/>
        <pt x="165" y="360" on="1"/>
        <pt x="161" y="352" on="0"/>
        <pt x="154" y="336" on="0"/>
        <pt x="150" y="328" on="1"/>
        <pt x="151" y="331" on="0"/>
        <pt x="173" y="348" on="0"/>
        <pt x="210" y="367" on="0"/>
        <pt x="258" y="382" on="0"/>
        <pt x="285" y="382" on="1"/>
        <pt x="327" y="382" on="0"/>
        <pt x="396" y="351" on="0"/>
        <pt x="443" y="297" on="0"/>
        <pt x="464" y="226" on="0"/>
      </contour>
    </TTGlyph>
    <TTGlyph name="three" xMin="22" yMin="-8" xMax="478" yMax="650">
      <contour>
        <pt x="154" y="326" on="1"/>
        <pt x="198" y="387" on="0"/>
        <pt x="284" y="507" on="0"/>
        <pt x="327" y="568" on="1"/>
        <pt x="137" y="568" on="1"/>
        <pt x="149" y="650" on="1"/>
        <pt x="478" y="650" on="1"/>
        <pt x="433" y="590" on="0"/>
        <pt x="346" y="472" on="0"/>
        <pt x="301" y="412" on="1"/>
        <pt x="332" y="400" on="0"/>
        <pt x="381" y="361" on="0"/>
        <pt x="414" y="309" on="0"/>
        <pt x="427" y="245" on="0"/>
        <pt x="422" y="209" on="1"/>
        <pt x="416" y="164" on="0"/>
        <pt x="369" y="85" on="0"/>
        <pt x="301" y="26" on="0"/>
        <pt x="217" y="-8" on="0"/>
        <pt x="172" y="-8" on="1"/>
        <pt x="124" y="-8" on="0"/>
        <pt x="48" y="31" on="0"/>
        <pt x="22" y="63" on="1"/>
        <pt x="39" y="77" on="0"/>
        <pt x="74" y="106" on="0"/>
        <pt x="91" y="120" on="1"/>
        <pt x="106" y="98" on="0"/>
        <pt x="154" y="73" on="0"/>
        <pt x="184" y="73" on="1"/>
        <pt x="212" y="73" on="0"/>
        <pt x="264" y="95" on="0"/>
        <pt x="306" y="132" on="0"/>
        <pt x="335" y="181" on="0"/>
        <pt x="339" y="209" on="1"/>
        <pt x="343" y="237" on="0"/>
        <pt x="328" y="286" on="0"/>
        <pt x="296" y="322" on="0"/>
        <pt x="250" y="343" on="0"/>
        <pt x="222" y="343" on="1"/>
        <pt x="186" y="343" on="0"/>
      </contour>
    </TTGlyph>
    <TTGlyph name="threequarters" xMin="110" yMin="-19" xMax="1038" yMax="736">
      <component glyphName="three" x="93" y="205" scalex="0.773071289062" scaley="0.773559570312" flags="0x4"/>
      <component glyphName="slash" x="429" y="0" flags="0x4"/>
      <component glyphName="four" x="673" y="0" scalex="0.742980957031" scaley="0.744689941406" flags="0x4"/>
    </TTGlyph>
    <TTGlyph name="threesuperior" xMin="55" yMin="376" xMax="280" yMax="701">
      <component glyphName="three" x="45" y="380" scalex="0.4912109375" scaley="0.492431640625" flags="0x4"/>
    </TTGlyph>
    <TTGlyph name="two" xMin="6" yMin="0" xMax="482" yMax="658">
      <contour>
        <pt x="218" y="81" on="1"/>
        <pt x="461" y="81" on="1"/>
        <pt x="449" y="0" on="1"/>
        <pt x="6" y="0" on="1"/>
        <pt x="76" y="62" on="0"/>
        <pt x="209" y="179" on="0"/>
        <pt x="314" y="288" on="0"/>
        <pt x="383" y="391" on="0"/>
        <pt x="390" y="438" on="1"/>
        <pt x="395" y="475" on="0"/>
        <pt x="378" y="527" on="0"/>
        <pt x="346" y="561" on="0"/>
        <pt x="305" y="577" on="0"/>
        <pt x="287" y="577" on="1"/>
        <pt x="249" y="577" on="0"/>
        <pt x="197" y="551" on="0"/>
        <pt x="164" y="513" on="0"/>
        <pt x="147" y="471" on="0"/>
        <pt x="145" y="455" on="1"/>
        <pt x="136" y="391" on="0"/>
        <pt x="170" y="351" on="1"/>
        <pt x="155" y="338" on="0"/>
        <pt x="127" y="313" on="0"/>
        <pt x="112" y="300" on="1"/>
        <pt x="97" y="311" on="0"/>
        <pt x="75" y="348" on="0"/>
        <pt x="62" y="391" on="0"/>
        <pt x="58" y="436" on="0"/>
        <pt x="61" y="455" on="1"/>
        <pt x="67" y="495" on="0"/>
        <pt x="104" y="569" on="0"/>
        <pt x="166" y="625" on="0"/>
        <pt x="248" y="658" on="0"/>
        <pt x="299" y="658" on="1"/>
        <pt x="345" y="658" on="0"/>
        <pt x="416" y="624" on="0"/>
        <pt x="462" y="567" on="0"/>
        <pt x="482" y="492" on="0"/>
        <pt x="476" y="450" on="1"/>
        <pt x="469" y="400" on="0"/>
        <pt x="421" y="307" on="0"/>
        <pt x="351" y="215" on="0"/>
        <pt x="264" y="126" on="0"/>
      </contour>
    </TTGlyph>
    <TTGlyph name="twosuperior" xMin="80" yMin="375" xMax="316" yMax="700">
      <component glyphName="two" x="78" y="375" scalex="0.493408203125" scaley="0.493896484375" flags="0x4"/>
    </TTGlyph>
    <TTGlyph name="u" xMin="91" yMin="-9" xMax="506" yMax="375">
      <contour>
        <pt x="452" y="-9" on="1"/>
        <pt x="369" y="-9" on="1"/>
        <pt x="378" y="51" on="1"/>
        <pt x="387" y="96" on="1"/>
        <pt x="360" y="48" on="0"/>
        <pt x="263" y="-9" on="0"/>
        <pt x="209" y="-9" on="1"/>
        <pt x="150" y="-9" on="0"/>
        <pt x="91" y="53" on="0"/>
        <pt x="96" y="103" on="1"/>
        <pt x="134" y="375" on="1"/>
        <pt x="217" y="375" on="1"/>
        <pt x="184" y="141" on="1"/>
        <pt x="182" y="114" on="0"/>
        <pt x="212" y="75" on="0"/>
        <pt x="250" y="73" on="1"/>
        <pt x="276" y="73" on="0"/>
        <pt x="326" y="91" on="0"/>
        <pt x="366" y="123" on="0"/>
        <pt x="394" y="167" on="0"/>
        <pt x="398" y="193" on="1"/>
        <pt x="423" y="375" on="1"/>
        <pt x="506" y="375" on="1"/>
      </contour>
    </TTGlyph>
    <TTGlyph name="uacute" xMin="91" yMin="-9" xMax="506" yMax="612">
      <component glyphName="u" x="0" y="0" flags="0x204"/>
      <component glyphName="acute" x="204" y="0" flags="0x4"/>
    </TTGlyph>
    <TTGlyph name="ucircumflex" xMin="91" yMin="-9" xMax="506" yMax="660">
      <component glyphName="u" x="0" y="0" flags="0x204"/>
      <component glyphName="asciicircum" x="106" y="0" flags="0x4"/>
    </TTGlyph>
    <TTGlyph name="udieresis" xMin="91" yMin="-9" xMax="506" yMax="573">
      <component glyphName="u" x="0" y="0" flags="0x204"/>
      <component glyphName="dieresis" x="146" y="0" flags="0x4"/>
    </TTGlyph>
    <TTGlyph name="ugrave" xMin="91" yMin="-9" xMax="506" yMax="612">
      <component glyphName="u" x="0" y="0" flags="0x204"/>
      <component glyphName="grave" x="235" y="0" flags="0x4"/>
    </TTGlyph>
    <TTGlyph name="underscore" xMin="94" yMin="0" xMax="505" yMax="81">
      <contour>
        <pt x="494" y="0" on="1"/>
        <pt x="94" y="0" on="1"/>
        <pt x="105" y="81" on="1"/>
        <pt x="505" y="81" on="1"/>
      </contour>
    </TTGlyph>
    <TTGlyph name="v" xMin="106" yMin="-23" xMax="538" yMax="375">
      <contour>
        <pt x="266" y="-23" on="1"/>
        <pt x="226" y="77" on="0"/>
        <pt x="147" y="275" on="0"/>
        <pt x="106" y="375" on="1"/>
        <pt x="189" y="375" on="1"/>
        <pt x="201" y="345" on="0"/>
        <pt x="230" y="281" on="0"/>
        <pt x="257" y="217" on="0"/>
        <pt x="280" y="152" on="0"/>
        <pt x="286" y="120" on="1"/>
        <pt x="301" y="152" on="0"/>
        <pt x="342" y="217" on="0"/>
        <pt x="388" y="281" on="0"/>
        <pt x="434" y="345" on="0"/>
        <pt x="455" y="375" on="1"/>
        <pt x="538" y="375" on="1"/>
        <pt x="470" y="275" on="0"/>
        <pt x="335" y="77" on="0"/>
      </contour>
    </TTGlyph>
    <TTGlyph name="w" xMin="106" yMin="-23" xMax="780" yMax="375">
      <contour>
        <pt x="395" y="328" on="1"/>
        <pt x="390" y="340" on="0"/>
        <pt x="383" y="363" on="0"/>
        <pt x="378" y="375" on="1"/>
        <pt x="461" y="375" on="1"/>
        <pt x="482" y="312" on="0"/>
        <pt x="530" y="185" on="0"/>
        <pt x="543" y="120" on="1"/>
        <pt x="574" y="185" on="0"/>
        <pt x="659" y="312" on="0"/>
        <pt x="697" y="375" on="1"/>
        <pt x="780" y="375" on="1"/>
        <pt x="716" y="275" on="0"/>
        <pt x="588" y="77" on="0"/>
        <pt x="523" y="-23" on="1"/>
        <pt x="499" y="45" on="0"/>
        <pt x="449" y="178" on="0"/>
        <pt x="425" y="246" on="1"/>
        <pt x="381" y="178" on="0"/>
        <pt x="295" y="45" on="0"/>
        <pt x="251" y="-23" on="1"/>
        <pt x="215" y="77" on="0"/>
        <pt x="143" y="275" on="0"/>
        <pt x="106" y="375" on="1"/>
        <pt x="189" y="375" on="1"/>
        <pt x="210" y="312" on="0"/>
        <pt x="258" y="185" on="0"/>
        <pt x="271" y="120" on="1"/>
        <pt x="297" y="174" on="0"/>
        <pt x="364" y="277" on="0"/>
      </contour>
    </TTGlyph>
    <TTGlyph name="x" xMin="21" yMin="0" xMax="494" yMax="375">
      <contour>
        <pt x="197" y="202" on="1"/>
        <pt x="171" y="246" on="0"/>
        <pt x="120" y="331" on="0"/>
        <pt x="94" y="375" on="1"/>
        <pt x="196" y="375" on="1"/>
        <pt x="216" y="342" on="0"/>
        <pt x="257" y="275" on="0"/>
        <pt x="277" y="242" on="1"/>
        <pt x="306" y="275" on="0"/>
        <pt x="363" y="342" on="0"/>
        <pt x="392" y="375" on="1"/>
        <pt x="494" y="375" on="1"/>
        <pt x="450" y="324" on="0"/>
        <pt x="363" y="224" on="0"/>
        <pt x="319" y="173" on="1"/>
        <pt x="345" y="129" on="0"/>
        <pt x="398" y="44" on="0"/>
        <pt x="424" y="0" on="1"/>
        <pt x="318" y="0" on="1"/>
        <pt x="298" y="33" on="0"/>
        <pt x="258" y="100" on="0"/>
        <pt x="238" y="133" on="1"/>
        <pt x="209" y="100" on="0"/>
        <pt x="152" y="33" on="0"/>
        <pt x="123" y="0" on="1"/>
        <pt x="21" y="0" on="1"/>
        <pt x="65" y="51" on="0"/>
        <pt x="152" y="151" on="0"/>
      </contour>
    </TTGlyph>
    <TTGlyph name="y" xMin="53" yMin="-250" xMax="539" yMax="377">
      <contour>
        <pt x="136" y="-250" on="1"/>
        <pt x="53" y="-250" on="1"/>
        <pt x="94" y="-187" on="0"/>
        <pt x="174" y="-63" on="0"/>
        <pt x="215" y="0" on="1"/>
        <pt x="180" y="94" on="0"/>
        <pt x="113" y="281" on="0"/>
        <pt x="78" y="375" on="1"/>
        <pt x="161" y="375" on="1"/>
        <pt x="160" y="376" on="0"/>
        <pt x="169" y="351" on="0"/>
        <pt x="184" y="309" on="0"/>
        <pt x="203" y="254" on="0"/>
        <pt x="213" y="226" on="1"/>
        <pt x="267" y="74" on="1"/>
        <pt x="267" y="73" on="0"/>
        <pt x="295" y="119" on="0"/>
        <pt x="338" y="187" on="0"/>
        <pt x="387" y="266" on="0"/>
        <pt x="430" y="333" on="0"/>
        <pt x="457" y="377" on="0"/>
        <pt x="456" y="375" on="1"/>
        <pt x="539" y="375" on="1"/>
        <pt x="438" y="218" on="0"/>
        <pt x="238" y="-93" on="0"/>
      </contour>
    </TTGlyph>
    <TTGlyph name="yacute" xMin="53" yMin="-250" xMax="539" yMax="612">
      <component glyphName="y" x="0" y="0" flags="0x4"/>
      <component glyphName="acute" x="204" y="0" flags="0x4"/>
    </TTGlyph>
    <TTGlyph name="ydieresis" xMin="53" yMin="-250" xMax="539" yMax="573">
      <component glyphName="y" x="0" y="0" flags="0x4"/>
      <component glyphName="dieresis" x="142" y="0" flags="0x4"/>
    </TTGlyph>
    <TTGlyph name="yen" xMin="61" yMin="0" xMax="672" yMax="700">
      <contour>
        <pt x="459" y="181" on="1"/>
        <pt x="447" y="100" on="1"/>
        <pt x="333" y="100" on="1"/>
        <pt x="319" y="0" on="1"/>
        <pt x="217" y="0" on="1"/>
        <pt x="231" y="100" on="1"/>
        <pt x="114" y="100" on="1"/>
        <pt x="126" y="181" on="1"/>
        <pt x="243" y="181" on="1"/>
        <pt x="254" y="263" on="1"/>
        <pt x="137" y="263" on="1"/>
        <pt x="149" y="344" on="1"/>
        <pt x="222" y="344" on="1"/>
        <pt x="181" y="434" on="0"/>
        <pt x="101" y="610" on="0"/>
        <pt x="61" y="700" on="1"/>
        <pt x="163" y="700" on="1"/>
        <pt x="200" y="619" on="0"/>
        <pt x="272" y="458" on="0"/>
        <pt x="309" y="377" on="1"/>
        <pt x="311" y="369" on="0"/>
        <pt x="314" y="354" on="0"/>
        <pt x="316" y="346" on="1"/>
        <pt x="317" y="346" on="1"/>
        <pt x="321" y="354" on="0"/>
        <pt x="329" y="369" on="0"/>
        <pt x="333" y="377" on="1"/>
        <pt x="393" y="458" on="0"/>
        <pt x="510" y="619" on="0"/>
        <pt x="570" y="700" on="1"/>
        <pt x="672" y="700" on="1"/>
        <pt x="606" y="610" on="0"/>
        <pt x="477" y="434" on="0"/>
        <pt x="412" y="344" on="1"/>
        <pt x="482" y="344" on="1"/>
        <pt x="470" y="263" on="1"/>
        <pt x="356" y="263" on="1"/>
        <pt x="345" y="181" on="1"/>
      </contour>
    </TTGlyph>
    <TTGlyph name="z" xMin="42" yMin="0" xMax="436" yMax="410">
      <contour>
        <pt x="219" y="375" on="1"/>
        <pt x="436" y="375" on="1"/>
        <pt x="425" y="294" on="1"/>
        <pt x="389" y="266" on="0"/>
        <pt x="327" y="213" on="0"/>
        <pt x="267" y="161" on="0"/>
        <pt x="205" y="109" on="0"/>
        <pt x="170" y="81" on="1"/>
        <pt x="418" y="81" on="1"/>
        <pt x="407" y="0" on="1"/>
        <pt x="42" y="0" on="1"/>
        <pt x="53" y="81" on="1"/>
        <pt x="88" y="109" on="0"/>
        <pt x="150" y="162" on="0"/>
        <pt x="211" y="214" on="0"/>
        <pt x="273" y="268" on="0"/>
        <pt x="308" y="296" on="1"/>
        <pt x="169" y="296" on="1"/>
        <pt x="138" y="296" on="0"/>
        <pt x="100" y="332" on="0"/>
        <pt x="104" y="361" on="1"/>
        <pt x="111" y="410" on="1"/>
        <pt x="194" y="410" on="1"/>
        <pt x="192" y="398" on="1"/>
        <pt x="190" y="382" on="0"/>
        <pt x="202" y="375" on="0"/>
      </contour>
    </TTGlyph>
    <TTGlyph name="zero" xMin="26" yMin="-8" xMax="583" yMax="658">
      <contour>
        <pt x="37" y="327" on="1"/>
        <pt x="48" y="403" on="0"/>
        <pt x="107" y="526" on="0"/>
        <pt x="192" y="612" on="0"/>
        <pt x="297" y="658" on="0"/>
        <pt x="353" y="658" on="1"/>
        <pt x="409" y="658" on="0"/>
        <pt x="500" y="610" on="0"/>
        <pt x="560" y="523" on="0"/>
        <pt x="583" y="399" on="0"/>
        <pt x="572" y="323" on="1"/>
        <pt x="561" y="247" on="0"/>
        <pt x="498" y="125" on="0"/>
        <pt x="410" y="38" on="0"/>
        <pt x="307" y="-8" on="0"/>
        <pt x="256" y="-8" on="1"/>
        <pt x="205" y="-8" on="0"/>
        <pt x="115" y="40" on="0"/>
        <pt x="53" y="128" on="0"/>
        <pt x="26" y="251" on="0"/>
      </contour>
      <contour>
        <pt x="121" y="326" on="1"/>
        <pt x="113" y="273" on="0"/>
        <pt x="129" y="181" on="0"/>
        <pt x="169" y="113" on="0"/>
        <pt x="229" y="73" on="0"/>
        <pt x="267" y="73" on="1"/>
        <pt x="304" y="73" on="0"/>
        <pt x="377" y="111" on="0"/>
        <pt x="438" y="179" on="0"/>
        <pt x="480" y="271" on="0"/>
        <pt x="488" y="324" on="1"/>
        <pt x="494" y="360" on="0"/>
        <pt x="488" y="448" on="0"/>
        <pt x="456" y="525" on="0"/>
        <pt x="393" y="577" on="0"/>
        <pt x="342" y="577" on="1"/>
        <pt x="291" y="577" on="0"/>
        <pt x="213" y="526" on="0"/>
        <pt x="158" y="450" on="0"/>
        <pt x="126" y="362" on="0"/>
      </contour>
    </TTGlyph>
</ttFont>
